{
.appVersion = "3108";
.formatVersion = 3;
axes = (
{
name = Italic;
tag = ital;
},
{
name = Weight;
tag = wght;
}
);
classes = (
{
code = "A Aacute Abreve Acircumflex Adieresis Agrave Amacron Aogonek Aring Atilde AE AEacute B C Cacute Ccaron Ccedilla Ccircumflex Cdotaccent D Eth Dcaron Dcroat E Eacute Ebreve Ecaron Ecircumflex Edieresis Edotaccent Egrave ElSoft-cy Emacron Eogonek F G Gbreve Gcircumflex Gcommaaccent Gdotaccent H Hbar Hcircumflex I IJ Iacute Ibreve Icircumflex Idieresis Idotaccent Igrave Imacron Iogonek Itilde J Jcircumflex K Kcommaaccent L Lacute Lcaron Lcommaaccent Ldot Lslash M N Nacute Ncaron Ncommaaccent Ntilde O Oacute Obreve Ocircumflex Odieresis Ograve Ohungarumlaut Omacron Oslash Oslashacute Otilde OE P Thorn Q R Racute Rcaron Rcommaaccent S Sacute Scaron Scedilla Scircumflex Scommaaccent Germandbls T Tbar Tcaron Tcommaaccent U Uacute Ubreve Ucircumflex Udieresis Ugrave Uhungarumlaut Umacron Uogonek Uring Utilde V W Wacute Wcircumflex Wdieresis Wgrave X Y Yacute Ycircumflex Ydieresis Ygrave Z Zacute Zcaron Zdotaccent H.001 Hbar.001 G.alt H.alt L.alt A_l E_o I_e A_L E_O I_E 

";
name = Uppercase;
}
);
customParameters = (
{
name = "Disable Subroutines";
value = 1;
}
);
date = "2023-06-12 15:33:49 +0000";
familyName = Feroniapi;
featurePrefixes = (
{
automatic = 1;
code = "languagesystem DFLT dflt;

languagesystem latn dflt;
languagesystem latn ROM;
languagesystem latn MOL;
languagesystem latn CAT;
";
name = Languagesystems;
}
);
features = (
{
automatic = 1;
code = "feature locl;
feature sups;
feature frac;
feature ordn;
feature case;
feature case;
";
tag = aalt;
},
{
automatic = 1;
code = "script latn;
language ROM;
lookup locl_latn_0 {
	sub Scedilla by Scommaaccent;
	sub scedilla by scommaaccent;
} locl_latn_0;
language MOL;
lookup locl_latn_0;

script latn;
language CAT;
lookup locl_latn_1 {
	sub  l' periodcentered' l by ldot;
	sub  L' periodcentered' L by Ldot;
} locl_latn_1;
";
tag = locl;
},
{
automatic = 1;

glyphs = (
{
glyphname = A;
lastChange = "2025-11-12 14:19:19 +0000";
layers = (
{
guides = (
{
angle = 90;
pos = (55.14,423);
},
{
angle = 90;
pos = (675.14,322);
}
);
layerId = "21C22D19-092A-479F-91CA-8C525B8909B6";
shapes = (
{
closed = 1;
nodes = (
(192.784,-5,o),
(235.041,40.003,o),
(252.683,94.462,cs),
(255.697,104.508,o),
(264.739,132.639,o),
(276.795,170.816,cs),
(280.814,183.877,o),
(295.884,191.914,o),
(308.945,189.905,cs),
(400.369,172.825,o),
(471.7,213.012,o),
(496.817,229.087,c),
(509.928,235.643,o),
(519.806,252.428,o),
(512.891,266.259,cs),
(503.736,283.263,o),
(486.99,281.734,o),
(471.7,272.287,cs),
(449.119,258.335,o),
(394.341,227.077,o),
(324.014,239.133,cs),
(311.959,241.143,o),
(303.921,253.199,o),
(307.94,265.254,cs),
(334.061,343.618,o),
(362.192,435.043,o),
(380.276,494.318,cs),
(388.313,524.458,o),
(391.327,550.579,o),
(378.266,563.64,cs),
(343.39,596.93,o),
(288.005,568.742,o),
(253.688,551.584,cs),
(244.646,546.56,o),
(238.618,531.49,o),
(244.646,518.43,cs),
(250.674,506.374,o),
(265.744,502.355,o),
(277.8,508.383,cs),
(279.044,509.005,o),
(304.843,522.006,o),
(314.973,523.453,cs),
(328.468,525.381,o),
(336.838,520.143,o),
(332.052,507.378,cs),
(313.968,448.103,o),
(285.837,362.707,o),
(261.725,284.343,cs),
(257.707,272.287,o),
(244.646,267.264,o),
(234.599,274.296,cs),
(197.427,297.404,o),
(173.315,325.534,o),
(161.259,359.693,cs),
(123.082,465.183,o),
(209.949,551.046,o),
(213.501,554.598,cs),
(305.931,647.027,o),
(506.863,642.003,o),
(571.162,585.742,cs),
(588.241,571.677,o),
(610.344,546.56,o),
(620.39,508.383,cs),
(624.409,487.285,o),
(631.441,458.15,o),
(606.325,381.795,cs),
(567.494,277.829,o),
(561.41,264.105,o),
(520.929,160.769,cs),
(498.826,104.508,o),
(478.981,36.245,o),
(517.915,6.051,cs),
(528.266,-1.976,o),
(541.022,-3.995,o),
(555.087,-3.995,cs),
(602.306,-3.995,o),
(654.17,32.587,o),
(656.558,34.182,cs),
(667.451,41.457,o),
(670.623,57.289,o),
(662.586,68.34,cs),
(655.553,79.392,o),
(639.479,81.401,o),
(628.428,74.368,cs),
(616.372,65.326,o),
(593.264,55.28,o),
(573.171,49.252,cs),
(559.106,45.233,o),
(544.036,57.289,o),
(546.045,72.359,cs),
(549.059,86.424,o),
(554.189,108.486,o),
(567.143,141.681,cs),
(616.682,268.623,o),
(619.394,272.622,o),
(651.535,365.721,cs),
(681.675,449.108,o),
(674.642,488.29,o),
(667.609,519.434,cs),
(654.549,570.672,o),
(626.418,604.831,o),
(604.316,623.919,cs),
(515.905,700.274,o),
(284.833,697.26,o),
(177.334,589.761,cs),
(165.278,578.709,o),
(66.821,476.234,o),
(114.04,342.614,cs),
(127.1,307.45,o),
(155.231,260.231,o),
(221.539,223.059,cs),
(231.585,218.035,o),
(236.609,203.97,o),
(232.59,192.919,cs),
(219.529,152.732,o),
(209.483,120.583,o),
(206.469,110.536,cs),
(192.404,74.368,o),
(173.315,52.266,o),
(148.198,47.243,cs),
(128.105,42.219,o),
(107.007,55.28,o),
(96.961,63.317,cs),
(85.909,71.354,o),
(69.835,69.345,o),
(61.797,58.294,cs),
(53.76,47.243,o),
(55.769,32.173,o),
(66.821,23.131,cs),
(90.933,4.042,o),
(116.049,-5,o),
(139.156,-5,cs)
);
}
);
userData = {
assembly = "PUSHW[ ]	/* 4 values pushed */
49 3 132 4 
CALL[ ]	/* CallFunction */
PUSHW[ ]	/* 4 values pushed */
10 4 29 4 
CALL[ ]	/* CallFunction */
PUSHW[ ]	/* 4 values pushed */
5 3 39 4 
CALL[ ]	/* CallFunction */
NPUSHW[ ]	/* 5 values pushed */
218 29 234 29 2 
DELTAP1[ ]	/* DeltaExceptionP1 */
NPUSHW[ ]	/* 27 values pushed */
9 29 25 29 41 29 57 29 73 29 89 29 105 29 121 29 137 29 153 29 169 29 185 29 201 29 13 
DELTAP1[ ]	/* DeltaExceptionP1 */
NPUSHW[ ]	/* 5 values pushed */
218 39 234 39 2 
DELTAP1[ ]	/* DeltaExceptionP1 */
NPUSHW[ ]	/* 27 values pushed */
9 39 25 39 41 39 57 39 73 39 89 39 105 39 121 39 137 39 153 39 169 39 185 39 201 39 13 
DELTAP1[ ]	/* DeltaExceptionP1 */
NPUSHW[ ]	/* 27 values pushed */
6 49 22 49 38 49 54 49 70 49 86 49 102 49 118 49 134 49 150 49 166 49 182 49 198 49 13 
DELTAP1[ ]	/* DeltaExceptionP1 */
NPUSHW[ ]	/* 5 values pushed */
213 49 229 49 2 
DELTAP1[ ]	/* DeltaExceptionP1 */
PUSHW[ ]	/* 1 value pushed */
5 
SRP0[ ]	/* SetRefPoint0 */
PUSHW[ ]	/* 1 value pushed */
138 
MDRP[11100]	/* MoveDirectRelPt */
SVTCA[0]	/* SetFreedomAndProjectionVectorToAxis */
PUSHW[ ]	/* 1 value pushed */
26 
MDAP[1]	/* MoveDirectAbsPt */
PUSHW[ ]	/* 1 value pushed */
111 
MDAP[1]	/* MoveDirectAbsPt */
PUSHW[ ]	/* 4 values pushed */
0 1 44 4 
CALL[ ]	/* CallFunction */
PUSHW[ ]	/* 4 values pushed */
54 1 104 4 
CALL[ ]	/* CallFunction */
PUSHW[ ]	/* 1 value pushed */
111 
SRP0[ ]	/* SetRefPoint0 */
PUSHW[ ]	/* 2 values pushed */
122 2 
MIRP[10100]	/* MoveIndirectRelPt */
PUSHW[ ]	/* 1 value pushed */
13 
MDRP[10000]	/* MoveDirectRelPt */
PUSHW[ ]	/* 1 value pushed */
13 
MDAP[1]	/* MoveDirectAbsPt */
PUSHW[ ]	/* 1 value pushed */
111 
SRP0[ ]	/* SetRefPoint0 */
PUSHW[ ]	/* 2 values pushed */
18 1 
MIRP[10100]	/* MoveIndirectRelPt */
PUSHW[ ]	/* 1 value pushed */
104 
SRP0[ ]	/* SetRefPoint0 */
PUSHW[ ]	/* 2 values pushed */
88 2 
MIRP[10100]	/* MoveIndirectRelPt */
PUSHW[ ]	/* 1 value pushed */
111 
SRP0[ ]	/* SetRefPoint0 */
PUSHW[ ]	/* 2 values pushed */
119 1 
MIRP[10100]	/* MoveIndirectRelPt */
IUP[0]	/* InterpolateUntPts */
IUP[1]	/* InterpolateUntPts */";
};
width = 730.04;
}
);
note = A;
unicode = 65;
},
{
glyphname = Aacute;
lastChange = "2025-11-12 14:19:19 +0000";
layers = (
{
layerId = "21C22D19-092A-479F-91CA-8C525B8909B6";
shapes = (
{
closed = 1;
nodes = (
(192.784,-5,o),
(235.041,40.003,o),
(252.683,94.462,cs),
(255.697,104.508,o),
(264.739,132.639,o),
(276.795,170.816,cs),
(280.814,183.877,o),
(295.884,191.914,o),
(308.945,189.905,cs),
(400.369,172.825,o),
(471.7,213.012,o),
(496.817,229.087,c),
(509.928,235.643,o),
(519.806,252.428,o),
(512.891,266.259,cs),
(503.736,283.263,o),
(486.99,281.734,o),
(471.7,272.287,cs),
(449.119,258.335,o),
(394.341,227.077,o),
(324.014,239.133,cs),
(311.959,241.143,o),
(303.921,253.199,o),
(307.94,265.254,cs),
(334.061,343.618,o),
(362.192,435.043,o),
(380.276,494.318,cs),
(388.313,524.458,o),
(391.327,550.579,o),
(378.266,563.64,cs),
(343.39,596.93,o),
(288.005,568.742,o),
(253.688,551.584,cs),
(244.646,546.56,o),
(238.618,531.49,o),
(244.646,518.43,cs),
(250.674,506.374,o),
(265.744,502.355,o),
(277.8,508.383,cs),
(279.044,509.005,o),
(304.843,522.006,o),
(314.973,523.453,cs),
(328.468,525.381,o),
(336.838,520.143,o),
(332.052,507.378,cs),
(313.968,448.103,o),
(285.837,362.707,o),
(261.725,284.343,cs),
(257.707,272.287,o),
(244.646,267.264,o),
(234.599,274.296,cs),
(197.427,297.404,o),
(173.315,325.534,o),
(161.259,359.693,cs),
(123.082,465.183,o),
(209.949,551.046,o),
(213.501,554.598,cs),
(305.931,647.027,o),
(506.863,642.003,o),
(571.162,585.742,cs),
(588.241,571.677,o),
(610.344,546.56,o),
(620.39,508.383,cs),
(624.409,487.285,o),
(631.441,458.15,o),
(606.325,381.795,cs),
(567.494,277.829,o),
(561.41,264.105,o),
(520.929,160.769,cs),
(498.826,104.508,o),
(478.981,36.245,o),
(517.915,6.051,cs),
(528.266,-1.976,o),
(541.022,-3.995,o),
(555.087,-3.995,cs),
(602.306,-3.995,o),
(654.17,32.587,o),
(656.558,34.182,cs),
(667.451,41.457,o),
(670.623,57.289,o),
(662.586,68.34,cs),
(655.553,79.392,o),
(639.479,81.401,o),
(628.428,74.368,cs),
(616.372,65.326,o),
(593.264,55.28,o),
(573.171,49.252,cs),
(559.106,45.233,o),
(544.036,57.289,o),
(546.045,72.359,cs),
(549.059,86.424,o),
(554.189,108.486,o),
(567.143,141.681,cs),
(616.682,268.623,o),
(619.394,272.622,o),
(651.535,365.721,cs),
(681.675,449.108,o),
(674.642,488.29,o),
(667.609,519.434,cs),
(654.549,570.672,o),
(626.418,604.831,o),
(604.316,623.919,cs),
(515.905,700.274,o),
(284.833,697.26,o),
(177.334,589.761,cs),
(165.278,578.709,o),
(66.821,476.234,o),
(114.04,342.614,cs),
(127.1,307.45,o),
(155.231,260.231,o),
(221.539,223.059,cs),
(231.585,218.035,o),
(236.609,203.97,o),
(232.59,192.919,cs),
(219.529,152.732,o),
(209.483,120.583,o),
(206.469,110.536,cs),
(192.404,74.368,o),
(173.315,52.266,o),
(148.198,47.243,cs),
(128.105,42.219,o),
(107.007,55.28,o),
(96.961,63.317,cs),
(85.909,71.354,o),
(69.835,69.345,o),
(61.797,58.294,cs),
(53.76,47.243,o),
(55.769,32.173,o),
(66.821,23.131,cs),
(90.933,4.042,o),
(116.049,-5,o),
(139.156,-5,cs)
);
},
{
closed = 1;
nodes = (
(435.11,749.875,o),
(457.073,714.893,o),
(482,732,cs),
(508.073,749.894,o),
(563.902,792.106,o),
(592,818,cs),
(614.903,839.106,o),
(587.902,873.128,o),
(559,851,cs),
(523.902,824.128,o),
(471.111,781.876,o),
(451,764,cs)
);
}
);
width = 730.04;
}
);
note = Aacute;
unicode = 193;
},
{
glyphname = Abreve;
lastChange = "2025-11-12 14:19:19 +0000";
layers = (
{
layerId = "21C22D19-092A-479F-91CA-8C525B8909B6";
shapes = (
{
closed = 1;
nodes = (
(192.784,-5,o),
(235.041,40.003,o),
(252.683,94.462,cs),
(255.697,104.508,o),
(264.739,132.639,o),
(276.795,170.816,cs),
(280.814,183.877,o),
(295.884,191.914,o),
(308.945,189.905,cs),
(400.369,172.825,o),
(471.7,213.012,o),
(496.817,229.087,c),
(509.928,235.643,o),
(519.806,252.428,o),
(512.891,266.259,cs),
(503.736,283.263,o),
(486.99,281.734,o),
(471.7,272.287,cs),
(449.119,258.335,o),
(394.341,227.077,o),
(324.014,239.133,cs),
(311.959,241.143,o),
(303.921,253.199,o),
(307.94,265.254,cs),
(334.061,343.618,o),
(362.192,435.043,o),
(380.276,494.318,cs),
(388.313,524.458,o),
(391.327,550.579,o),
(378.266,563.64,cs),
(343.39,596.93,o),
(288.005,568.742,o),
(253.688,551.584,cs),
(244.646,546.56,o),
(238.618,531.49,o),
(244.646,518.43,cs),
(250.674,506.374,o),
(265.744,502.355,o),
(277.8,508.383,cs),
(279.044,509.005,o),
(304.843,522.006,o),
(314.973,523.453,cs),
(328.468,525.381,o),
(336.838,520.143,o),
(332.052,507.378,cs),
(313.968,448.103,o),
(285.837,362.707,o),
(261.725,284.343,cs),
(257.707,272.287,o),
(244.646,267.264,o),
(234.599,274.296,cs),
(197.427,297.404,o),
(173.315,325.534,o),
(161.259,359.693,cs),
(123.082,465.183,o),
(209.949,551.046,o),
(213.501,554.598,cs),
(305.931,647.027,o),
(506.863,642.003,o),
(571.162,585.742,cs),
(588.241,571.677,o),
(610.344,546.56,o),
(620.39,508.383,cs),
(624.409,487.285,o),
(631.441,458.15,o),
(606.325,381.795,cs),
(567.494,277.829,o),
(561.41,264.105,o),
(520.929,160.769,cs),
(498.826,104.508,o),
(478.981,36.245,o),
(517.915,6.051,cs),
(528.266,-1.976,o),
(541.022,-3.995,o),
(555.087,-3.995,cs),
(602.306,-3.995,o),
(654.17,32.587,o),
(656.558,34.182,cs),
(667.451,41.457,o),
(670.623,57.289,o),
(662.586,68.34,cs),
(655.553,79.392,o),
(639.479,81.401,o),
(628.428,74.368,cs),
(616.372,65.326,o),
(593.264,55.28,o),
(573.171,49.252,cs),
(559.106,45.233,o),
(544.036,57.289,o),
(546.045,72.359,cs),
(549.059,86.424,o),
(554.189,108.486,o),
(567.143,141.681,cs),
(616.682,268.623,o),
(619.394,272.622,o),
(651.535,365.721,cs),
(681.675,449.108,o),
(674.642,488.29,o),
(667.609,519.434,cs),
(654.549,570.672,o),
(626.418,604.831,o),
(604.316,623.919,cs),
(515.905,700.274,o),
(284.833,697.26,o),
(177.334,589.761,cs),
(165.278,578.709,o),
(66.821,476.234,o),
(114.04,342.614,cs),
(127.1,307.45,o),
(155.231,260.231,o),
(221.539,223.059,cs),
(231.585,218.035,o),
(236.609,203.97,o),
(232.59,192.919,cs),
(219.529,152.732,o),
(209.483,120.583,o),
(206.469,110.536,cs),
(192.404,74.368,o),
(173.315,52.266,o),
(148.198,47.243,cs),
(128.105,42.219,o),
(107.007,55.28,o),
(96.961,63.317,cs),
(85.909,71.354,o),
(69.835,69.345,o),
(61.797,58.294,cs),
(53.76,47.243,o),
(55.769,32.173,o),
(66.821,23.131,cs),
(90.933,4.042,o),
(116.049,-5,o),
(139.156,-5,cs)
);
},
{
closed = 1;
nodes = (
(389.674,765.017,o),
(422.799,722,o),
(476.63,722,cs),
(527.53,722,o),
(576.514,762.19,o),
(582,814,cs),
(583.268,825.975,o),
(573.952,837.505,o),
(561,839,cs),
(547.934,840.508,o),
(536.622,832.053,o),
(535,819,cs),
(531.38,789.872,o),
(506.024,770,o),
(478.63,770,cs),
(453.43,770,o),
(439,793.8,o),
(439,819,cs),
(439,832.038,o),
(429.003,842.04,o),
(417,843,cs),
(404.003,844.04,o),
(392.541,834.027,o),
(392,821,cs)
);
}
);
width = 730.04;
}
);
note = Abreve;
unicode = 258;
},
{
glyphname = Acircumflex;
lastChange = "2025-11-12 14:19:19 +0000";
layers = (
{
layerId = "21C22D19-092A-479F-91CA-8C525B8909B6";
shapes = (
{
closed = 1;
nodes = (
(192.784,-5,o),
(235.041,40.003,o),
(252.683,94.462,cs),
(255.697,104.508,o),
(264.739,132.639,o),
(276.795,170.816,cs),
(280.814,183.877,o),
(295.884,191.914,o),
(308.945,189.905,cs),
(400.369,172.825,o),
(471.7,213.012,o),
(496.817,229.087,c),
(509.928,235.643,o),
(519.806,252.428,o),
(512.891,266.259,cs),
(503.736,283.263,o),
(486.99,281.734,o),
(471.7,272.287,cs),
(449.119,258.335,o),
(394.341,227.077,o),
(324.014,239.133,cs),
(311.959,241.143,o),
(303.921,253.199,o),
(307.94,265.254,cs),
(334.061,343.618,o),
(362.192,435.043,o),
(380.276,494.318,cs),
(388.313,524.458,o),
(391.327,550.579,o),
(378.266,563.64,cs),
(343.39,596.93,o),
(288.005,568.742,o),
(253.688,551.584,cs),
(244.646,546.56,o),
(238.618,531.49,o),
(244.646,518.43,cs),
(250.674,506.374,o),
(265.744,502.355,o),
(277.8,508.383,cs),
(279.044,509.005,o),
(304.843,522.006,o),
(314.973,523.453,cs),
(328.468,525.381,o),
(336.838,520.143,o),
(332.052,507.378,cs),
(313.968,448.103,o),
(285.837,362.707,o),
(261.725,284.343,cs),
(257.707,272.287,o),
(244.646,267.264,o),
(234.599,274.296,cs),
(197.427,297.404,o),
(173.315,325.534,o),
(161.259,359.693,cs),
(123.082,465.183,o),
(209.949,551.046,o),
(213.501,554.598,cs),
(305.931,647.027,o),
(506.863,642.003,o),
(571.162,585.742,cs),
(588.241,571.677,o),
(610.344,546.56,o),
(620.39,508.383,cs),
(624.409,487.285,o),
(631.441,458.15,o),
(606.325,381.795,cs),
(567.494,277.829,o),
(561.41,264.105,o),
(520.929,160.769,cs),
(498.826,104.508,o),
(478.981,36.245,o),
(517.915,6.051,cs),
(528.266,-1.976,o),
(541.022,-3.995,o),
(555.087,-3.995,cs),
(602.306,-3.995,o),
(654.17,32.587,o),
(656.558,34.182,cs),
(667.451,41.457,o),
(670.623,57.289,o),
(662.586,68.34,cs),
(655.553,79.392,o),
(639.479,81.401,o),
(628.428,74.368,cs),
(616.372,65.326,o),
(593.264,55.28,o),
(573.171,49.252,cs),
(559.106,45.233,o),
(544.036,57.289,o),
(546.045,72.359,cs),
(549.059,86.424,o),
(554.189,108.486,o),
(567.143,141.681,cs),
(616.682,268.623,o),
(619.394,272.622,o),
(651.535,365.721,cs),
(681.675,449.108,o),
(674.642,488.29,o),
(667.609,519.434,cs),
(654.549,570.672,o),
(626.418,604.831,o),
(604.316,623.919,cs),
(515.905,700.274,o),
(284.833,697.26,o),
(177.334,589.761,cs),
(165.278,578.709,o),
(66.821,476.234,o),
(114.04,342.614,cs),
(127.1,307.45,o),
(155.231,260.231,o),
(221.539,223.059,cs),
(231.585,218.035,o),
(236.609,203.97,o),
(232.59,192.919,cs),
(219.529,152.732,o),
(209.483,120.583,o),
(206.469,110.536,cs),
(192.404,74.368,o),
(173.315,52.266,o),
(148.198,47.243,cs),
(128.105,42.219,o),
(107.007,55.28,o),
(96.961,63.317,cs),
(85.909,71.354,o),
(69.835,69.345,o),
(61.797,58.294,cs),
(53.76,47.243,o),
(55.769,32.173,o),
(66.821,23.131,cs),
(90.933,4.042,o),
(116.049,-5,o),
(139.156,-5,cs)
);
},
{
closed = 1;
nodes = (
(413.756,739.785,o),
(430.408,738.523,o),
(441,748,cs),
(498,799,ls),
(502.216,802.772,o),
(508.87,801.919,o),
(512,797,cs),
(540,753,ls),
(546.408,742.93,o),
(562.117,738.055,o),
(575,746,cs),
(586.098,752.844,o),
(589.672,768.788,o),
(582,781,cs),
(533,859,ls),
(524.801,872.051,o),
(505.476,874.289,o),
(494,864,cs),
(407,786,ls),
(396.418,776.512,o),
(395.751,760.791,o),
(405,750,cs)
);
}
);
width = 730.04;
}
);
note = Acircumflex;
unicode = 194;
},
{
glyphname = Adieresis;
lastChange = "2025-11-12 14:19:19 +0000";
layers = (
{
layerId = "21C22D19-092A-479F-91CA-8C525B8909B6";
shapes = (
{
closed = 1;
nodes = (
(192.784,-5,o),
(235.041,40.003,o),
(252.683,94.462,cs),
(255.697,104.508,o),
(264.739,132.639,o),
(276.795,170.816,cs),
(280.814,183.877,o),
(295.884,191.914,o),
(308.945,189.905,cs),
(400.369,172.825,o),
(471.7,213.012,o),
(496.817,229.087,c),
(509.928,235.643,o),
(519.806,252.428,o),
(512.891,266.259,cs),
(503.736,283.263,o),
(486.99,281.734,o),
(471.7,272.287,cs),
(449.119,258.335,o),
(394.341,227.077,o),
(324.014,239.133,cs),
(311.959,241.143,o),
(303.921,253.199,o),
(307.94,265.254,cs),
(334.061,343.618,o),
(362.192,435.043,o),
(380.276,494.318,cs),
(388.313,524.458,o),
(391.327,550.579,o),
(378.266,563.64,cs),
(343.39,596.93,o),
(288.005,568.742,o),
(253.688,551.584,cs),
(244.646,546.56,o),
(238.618,531.49,o),
(244.646,518.43,cs),
(250.674,506.374,o),
(265.744,502.355,o),
(277.8,508.383,cs),
(279.044,509.005,o),
(304.843,522.006,o),
(314.973,523.453,cs),
(328.468,525.381,o),
(336.838,520.143,o),
(332.052,507.378,cs),
(313.968,448.103,o),
(285.837,362.707,o),
(261.725,284.343,cs),
(257.707,272.287,o),
(244.646,267.264,o),
(234.599,274.296,cs),
(197.427,297.404,o),
(173.315,325.534,o),
(161.259,359.693,cs),
(123.082,465.183,o),
(209.949,551.046,o),
(213.501,554.598,cs),
(305.931,647.027,o),
(506.863,642.003,o),
(571.162,585.742,cs),
(588.241,571.677,o),
(610.344,546.56,o),
(620.39,508.383,cs),
(624.409,487.285,o),
(631.441,458.15,o),
(606.325,381.795,cs),
(567.494,277.829,o),
(561.41,264.105,o),
(520.929,160.769,cs),
(498.826,104.508,o),
(478.981,36.245,o),
(517.915,6.051,cs),
(528.266,-1.976,o),
(541.022,-3.995,o),
(555.087,-3.995,cs),
(602.306,-3.995,o),
(654.17,32.587,o),
(656.558,34.182,cs),
(667.451,41.457,o),
(670.623,57.289,o),
(662.586,68.34,cs),
(655.553,79.392,o),
(639.479,81.401,o),
(628.428,74.368,cs),
(616.372,65.326,o),
(593.264,55.28,o),
(573.171,49.252,cs),
(559.106,45.233,o),
(544.036,57.289,o),
(546.045,72.359,cs),
(549.059,86.424,o),
(554.189,108.486,o),
(567.143,141.681,cs),
(616.682,268.623,o),
(619.394,272.622,o),
(651.535,365.721,cs),
(681.675,449.108,o),
(674.642,488.29,o),
(667.609,519.434,cs),
(654.549,570.672,o),
(626.418,604.831,o),
(604.316,623.919,cs),
(515.905,700.274,o),
(284.833,697.26,o),
(177.334,589.761,cs),
(165.278,578.709,o),
(66.821,476.234,o),
(114.04,342.614,cs),
(127.1,307.45,o),
(155.231,260.231,o),
(221.539,223.059,cs),
(231.585,218.035,o),
(236.609,203.97,o),
(232.59,192.919,cs),
(219.529,152.732,o),
(209.483,120.583,o),
(206.469,110.536,cs),
(192.404,74.368,o),
(173.315,52.266,o),
(148.198,47.243,cs),
(128.105,42.219,o),
(107.007,55.28,o),
(96.961,63.317,cs),
(85.909,71.354,o),
(69.835,69.345,o),
(61.797,58.294,cs),
(53.76,47.243,o),
(55.769,32.173,o),
(66.821,23.131,cs),
(90.933,4.042,o),
(116.049,-5,o),
(139.156,-5,cs)
);
},
{
closed = 1;
nodes = (
(359,738,o),
(369,730,o),
(384,730,cs),
(410,730,o),
(453,770,o),
(453,793,cs),
(453,804,o),
(439,812,o),
(430,812,cs),
(404,812,o),
(359,776,o),
(359,753,cs)
);
},
{
closed = 1;
nodes = (
(522,736,o),
(534,729,o),
(545,729,cs),
(569,729,o),
(621.208,768.091,o),
(621,794,cs),
(620.904,806,o),
(607.289,814.006,o),
(594.404,812,cs),
(563.238,807.149,o),
(522,771,o),
(522,748,cs)
);
}
);
width = 730.04;
}
);
note = Adieresis;
unicode = 196;
},
{
glyphname = Agrave;
lastChange = "2025-11-12 14:19:19 +0000";
layers = (
{
layerId = "21C22D19-092A-479F-91CA-8C525B8909B6";
shapes = (
{
closed = 1;
nodes = (
(192.784,-5,o),
(235.041,40.003,o),
(252.683,94.462,cs),
(255.697,104.508,o),
(264.739,132.639,o),
(276.795,170.816,cs),
(280.814,183.877,o),
(295.884,191.914,o),
(308.945,189.905,cs),
(400.369,172.825,o),
(471.7,213.012,o),
(496.817,229.087,c),
(509.928,235.643,o),
(519.806,252.428,o),
(512.891,266.259,cs),
(503.736,283.263,o),
(486.99,281.734,o),
(471.7,272.287,cs),
(449.119,258.335,o),
(394.341,227.077,o),
(324.014,239.133,cs),
(311.959,241.143,o),
(303.921,253.199,o),
(307.94,265.254,cs),
(334.061,343.618,o),
(362.192,435.043,o),
(380.276,494.318,cs),
(388.313,524.458,o),
(391.327,550.579,o),
(378.266,563.64,cs),
(343.39,596.93,o),
(288.005,568.742,o),
(253.688,551.584,cs),
(244.646,546.56,o),
(238.618,531.49,o),
(244.646,518.43,cs),
(250.674,506.374,o),
(265.744,502.355,o),
(277.8,508.383,cs),
(279.044,509.005,o),
(304.843,522.006,o),
(314.973,523.453,cs),
(328.468,525.381,o),
(336.838,520.143,o),
(332.052,507.378,cs),
(313.968,448.103,o),
(285.837,362.707,o),
(261.725,284.343,cs),
(257.707,272.287,o),
(244.646,267.264,o),
(234.599,274.296,cs),
(197.427,297.404,o),
(173.315,325.534,o),
(161.259,359.693,cs),
(123.082,465.183,o),
(209.949,551.046,o),
(213.501,554.598,cs),
(305.931,647.027,o),
(506.863,642.003,o),
(571.162,585.742,cs),
(588.241,571.677,o),
(610.344,546.56,o),
(620.39,508.383,cs),
(624.409,487.285,o),
(631.441,458.15,o),
(606.325,381.795,cs),
(567.494,277.829,o),
(561.41,264.105,o),
(520.929,160.769,cs),
(498.826,104.508,o),
(478.981,36.245,o),
(517.915,6.051,cs),
(528.266,-1.976,o),
(541.022,-3.995,o),
(555.087,-3.995,cs),
(602.306,-3.995,o),
(654.17,32.587,o),
(656.558,34.182,cs),
(667.451,41.457,o),
(670.623,57.289,o),
(662.586,68.34,cs),
(655.553,79.392,o),
(639.479,81.401,o),
(628.428,74.368,cs),
(616.372,65.326,o),
(593.264,55.28,o),
(573.171,49.252,cs),
(559.106,45.233,o),
(544.036,57.289,o),
(546.045,72.359,cs),
(549.059,86.424,o),
(554.189,108.486,o),
(567.143,141.681,cs),
(616.682,268.623,o),
(619.394,272.622,o),
(651.535,365.721,cs),
(681.675,449.108,o),
(674.642,488.29,o),
(667.609,519.434,cs),
(654.549,570.672,o),
(626.418,604.831,o),
(604.316,623.919,cs),
(515.905,700.274,o),
(284.833,697.26,o),
(177.334,589.761,cs),
(165.278,578.709,o),
(66.821,476.234,o),
(114.04,342.614,cs),
(127.1,307.45,o),
(155.231,260.231,o),
(221.539,223.059,cs),
(231.585,218.035,o),
(236.609,203.97,o),
(232.59,192.919,cs),
(219.529,152.732,o),
(209.483,120.583,o),
(206.469,110.536,cs),
(192.404,74.368,o),
(173.315,52.266,o),
(148.198,47.243,cs),
(128.105,42.219,o),
(107.007,55.28,o),
(96.961,63.317,cs),
(85.909,71.354,o),
(69.835,69.345,o),
(61.797,58.294,cs),
(53.76,47.243,o),
(55.769,32.173,o),
(66.821,23.131,cs),
(90.933,4.042,o),
(116.049,-5,o),
(139.156,-5,cs)
);
},
{
closed = 1;
nodes = (
(430.975,818.976,o),
(479.077,777.09,o),
(507,753,cs),
(530.078,733.09,o),
(563,765,o),
(539,786,cs),
(507,814,o),
(459.187,856.211,o),
(440,873,cs),
(419.185,891.213,o),
(390,862,o),
(410,841,cs)
);
}
);
width = 730.04;
}
);
note = Agrave;
unicode = 192;
},
{
glyphname = Amacron;
lastChange = "2025-11-12 14:19:19 +0000";
layers = (
{
layerId = "21C22D19-092A-479F-91CA-8C525B8909B6";
shapes = (
{
closed = 1;
nodes = (
(192.784,-5,o),
(235.041,40.003,o),
(252.683,94.462,cs),
(255.697,104.508,o),
(264.739,132.639,o),
(276.795,170.816,cs),
(280.814,183.877,o),
(295.884,191.914,o),
(308.945,189.905,cs),
(400.369,172.825,o),
(471.7,213.012,o),
(496.817,229.087,c),
(509.928,235.643,o),
(519.806,252.428,o),
(512.891,266.259,cs),
(503.736,283.263,o),
(486.99,281.734,o),
(471.7,272.287,cs),
(449.119,258.335,o),
(394.341,227.077,o),
(324.014,239.133,cs),
(311.959,241.143,o),
(303.921,253.199,o),
(307.94,265.254,cs),
(334.061,343.618,o),
(362.192,435.043,o),
(380.276,494.318,cs),
(388.313,524.458,o),
(391.327,550.579,o),
(378.266,563.64,cs),
(343.39,596.93,o),
(288.005,568.742,o),
(253.688,551.584,cs),
(244.646,546.56,o),
(238.618,531.49,o),
(244.646,518.43,cs),
(250.674,506.374,o),
(265.744,502.355,o),
(277.8,508.383,cs),
(279.044,509.005,o),
(304.843,522.006,o),
(314.973,523.453,cs),
(328.468,525.381,o),
(336.838,520.143,o),
(332.052,507.378,cs),
(313.968,448.103,o),
(285.837,362.707,o),
(261.725,284.343,cs),
(257.707,272.287,o),
(244.646,267.264,o),
(234.599,274.296,cs),
(197.427,297.404,o),
(173.315,325.534,o),
(161.259,359.693,cs),
(123.082,465.183,o),
(209.949,551.046,o),
(213.501,554.598,cs),
(305.931,647.027,o),
(506.863,642.003,o),
(571.162,585.742,cs),
(588.241,571.677,o),
(610.344,546.56,o),
(620.39,508.383,cs),
(624.409,487.285,o),
(631.441,458.15,o),
(606.325,381.795,cs),
(567.494,277.829,o),
(561.41,264.105,o),
(520.929,160.769,cs),
(498.826,104.508,o),
(478.981,36.245,o),
(517.915,6.051,cs),
(528.266,-1.976,o),
(541.022,-3.995,o),
(555.087,-3.995,cs),
(602.306,-3.995,o),
(654.17,32.587,o),
(656.558,34.182,cs),
(667.451,41.457,o),
(670.623,57.289,o),
(662.586,68.34,cs),
(655.553,79.392,o),
(639.479,81.401,o),
(628.428,74.368,cs),
(616.372,65.326,o),
(593.264,55.28,o),
(573.171,49.252,cs),
(559.106,45.233,o),
(544.036,57.289,o),
(546.045,72.359,cs),
(549.059,86.424,o),
(554.189,108.486,o),
(567.143,141.681,cs),
(616.682,268.623,o),
(619.394,272.622,o),
(651.535,365.721,cs),
(681.675,449.108,o),
(674.642,488.29,o),
(667.609,519.434,cs),
(654.549,570.672,o),
(626.418,604.831,o),
(604.316,623.919,cs),
(515.905,700.274,o),
(284.833,697.26,o),
(177.334,589.761,cs),
(165.278,578.709,o),
(66.821,476.234,o),
(114.04,342.614,cs),
(127.1,307.45,o),
(155.231,260.231,o),
(221.539,223.059,cs),
(231.585,218.035,o),
(236.609,203.97,o),
(232.59,192.919,cs),
(219.529,152.732,o),
(209.483,120.583,o),
(206.469,110.536,cs),
(192.404,74.368,o),
(173.315,52.266,o),
(148.198,47.243,cs),
(128.105,42.219,o),
(107.007,55.28,o),
(96.961,63.317,cs),
(85.909,71.354,o),
(69.835,69.345,o),
(61.797,58.294,cs),
(53.76,47.243,o),
(55.769,32.173,o),
(66.821,23.131,cs),
(90.933,4.042,o),
(116.049,-5,o),
(139.156,-5,cs)
);
},
{
closed = 1;
nodes = (
(369,776,o),
(377,765,o),
(388,765,cs),
(617,765,ls),
(627,765,o),
(635,776,o),
(635,787,cs),
(635,799,o),
(627,809,o),
(617,809,cs),
(388,809,ls),
(377,809,o),
(369,799,o),
(369,787,cs)
);
}
);
width = 730.04;
}
);
note = Amacron;
unicode = 256;
},
{
glyphname = Aogonek;
lastChange = "2025-11-12 14:19:19 +0000";
layers = (
{
layerId = "21C22D19-092A-479F-91CA-8C525B8909B6";
shapes = (
{
closed = 1;
nodes = (
(613.38,65,o),
(590.38,55,o),
(570.38,49,cs),
(556.38,45,o),
(541.38,57,o),
(543.38,72,cs),
(546.38,86,o),
(551.38,108,o),
(564.38,141,cs),
(580.38,182,ls),
(604.38,239,o),
(619.38,280,o),
(648.38,364,cs),
(678.38,447,o),
(671.38,486,o),
(664.38,517,cs),
(651.38,568,o),
(623.38,602,o),
(601.38,621,cs),
(513.38,697,o),
(283.38,694,o),
(176.38,587,cs),
(164.38,576,o),
(66.38,474,o),
(113.38,341,cs),
(126.38,306,o),
(154.38,259,o),
(220.38,222,cs),
(230.38,217,o),
(235.38,203,o),
(231.38,192,cs),
(218.38,152,o),
(208.38,120,o),
(205.38,110,cs),
(191.38,74,o),
(172.38,52,o),
(147.38,47,cs),
(127.38,42,o),
(106.38,55,o),
(96.38,63,cs),
(85.38,71,o),
(69.38,69,o),
(61.38,58,cs),
(53.38,47,o),
(55.38,32,o),
(66.38,23,cs),
(90.38,4,o),
(115.38,-5,o),
(138.38,-5,cs),
(145.38,-5,o),
(151.38,-4,o),
(157.38,-3,cs),
(182.38,2,o),
(228.38,23,o),
(251.38,94,cs),
(254.38,104,o),
(263.38,132,o),
(275.38,170,cs),
(279.38,183,o),
(294.38,191,o),
(307.38,189,cs),
(398.38,172,o),
(469.38,212,o),
(494.38,228,cs),
(496.38,229,o),
(498.38,230,o),
(499.38,232,c),
(511.38,238,o),
(516.38,253,o),
(510.38,265,cs),
(503.38,278,o),
(489.38,282,o),
(477.38,276,cs),
(475.38,275,o),
(472.38,273,o),
(469.38,271,cs),
(446.38,258,o),
(392.38,226,o),
(322.38,238,cs),
(310.38,240,o),
(302.38,252,o),
(306.38,264,cs),
(332.38,342,o),
(360.38,433,o),
(378.38,492,cs),
(386.38,522,o),
(389.38,548,o),
(376.38,561,cs),
(354.38,582,o),
(324.38,583,o),
(261.38,554,c),
(258.38,552,o),
(254.38,550,o),
(252.38,549,cs),
(243.38,544,o),
(237.38,529,o),
(243.38,516,cs),
(249.38,504,o),
(264.38,500,o),
(276.38,506,cs),
(278.38,507,o),
(286.38,510,o),
(291.38,513,cs),
(299.38,517,o),
(306.38,520,o),
(313.38,521,cs),
(320.38,522,o),
(325.38,521,o),
(329.38,518,c),
(330.38,516,o),
(333.38,513,o),
(330.38,505,cs),
(312.38,446,o),
(284.38,361,o),
(260.38,283,cs),
(256.38,271,o),
(243.38,266,o),
(233.38,273,cs),
(196.38,296,o),
(172.38,324,o),
(160.38,358,cs),
(122.38,463,o),
(208.38,549,o),
(212.38,552,c),
(304.38,644,o),
(504.38,639,o),
(568.38,583,cs),
(585.38,569,o),
(607.38,544,o),
(617.38,506,cs),
(621.38,485,o),
(628.38,456,o),
(603.38,380,cs),
(572.38,297,o),
(556.38,257,o),
(534.38,200,cs),
(518.38,160,ls),
(498.824,110.22,o),
(481.638,51.748,o),
(504.754,17.597,c),
(498.738,9.065,o),
(494.258,0.532,o),
(490.38,-8,cs),
(464.38,-65,o),
(492.38,-131,o),
(542.38,-159,cs),
(565.38,-171,o),
(635.38,-184,o),
(647.38,-159,cs),
(652.38,-146,o),
(648.38,-135,o),
(636.38,-131,c),
(604.38,-126,o),
(584.38,-127,o),
(562.38,-114,cs),
(533.38,-98,o),
(523.38,-63,o),
(536.38,-32,cs),
(546.789,-8.78,o),
(552.71,-6.075,o),
(567.491,-2.84,cs),
(610.222,3.44,o),
(653.38,33.106,o),
(653.38,34,c),
(664.38,41,o),
(667.38,57,o),
(659.38,68,cs),
(652.38,79,o),
(636.38,81,o),
(625.38,74,cs)
);
}
);
userData = {
assembly = "PUSHW[ ]	/* 4 values pushed */
47 3 130 4 
CALL[ ]	/* CallFunction */
PUSHW[ ]	/* 4 values pushed */
145 4 27 4 
CALL[ ]	/* CallFunction */
PUSHW[ ]	/* 4 values pushed */
140 3 37 4 
CALL[ ]	/* CallFunction */
NPUSHW[ ]	/* 5 values pushed */
218 27 234 27 2 
DELTAP1[ ]	/* DeltaExceptionP1 */
NPUSHW[ ]	/* 27 values pushed */
9 27 25 27 41 27 57 27 73 27 89 27 105 27 121 27 137 27 153 27 169 27 185 27 201 27 13 
DELTAP1[ ]	/* DeltaExceptionP1 */
NPUSHW[ ]	/* 5 values pushed */
218 37 234 37 2 
DELTAP1[ ]	/* DeltaExceptionP1 */
NPUSHW[ ]	/* 27 values pushed */
9 37 25 37 41 37 57 37 73 37 89 37 105 37 121 37 137 37 153 37 169 37 185 37 201 37 13 
DELTAP1[ ]	/* DeltaExceptionP1 */
NPUSHW[ ]	/* 27 values pushed */
6 47 22 47 38 47 54 47 70 47 86 47 102 47 118 47 134 47 150 47 166 47 182 47 198 47 13 
DELTAP1[ ]	/* DeltaExceptionP1 */
NPUSHW[ ]	/* 5 values pushed */
213 47 229 47 2 
DELTAP1[ ]	/* DeltaExceptionP1 */
PUSHW[ ]	/* 1 value pushed */
140 
SRP0[ ]	/* SetRefPoint0 */
PUSHW[ ]	/* 1 value pushed */
161 
MDRP[11100]	/* MoveDirectRelPt */
SVTCA[0]	/* SetFreedomAndProjectionVectorToAxis */
PUSHW[ ]	/* 4 values pushed */
135 1 42 4 
CALL[ ]	/* CallFunction */
PUSHW[ ]	/* 4 values pushed */
120 2 109 4 
CALL[ ]	/* CallFunction */
PUSHW[ ]	/* 4 values pushed */
52 1 102 4 
CALL[ ]	/* CallFunction */
PUSHW[ ]	/* 1 value pushed */
102 
SRP0[ ]	/* SetRefPoint0 */
PUSHW[ ]	/* 2 values pushed */
86 2 
MIRP[10100]	/* MoveIndirectRelPt */
IUP[0]	/* InterpolateUntPts */
IUP[1]	/* InterpolateUntPts */";
};
width = 762.65;
}
);
note = Aogonek;
unicode = 260;
},
{
glyphname = Aring;
lastChange = "2025-11-12 14:19:19 +0000";
layers = (
{
layerId = "21C22D19-092A-479F-91CA-8C525B8909B6";
shapes = (
{
closed = 1;
nodes = (
(407.38,763,o),
(438.38,727,o),
(488.38,729,cs),
(533.38,729,o),
(584.38,764,o),
(597.38,817,cs),
(611.38,876,o),
(573.38,929,o),
(512.38,921,cs),
(463.38,914,o),
(431.38,872,o),
(416.38,827,c)
);
},
{
closed = 1;
nodes = (
(53.38,47,o),
(55.38,32,o),
(66.38,23,cs),
(90.38,4,o),
(115.38,-5,o),
(138.38,-5,cs),
(145.38,-5,o),
(151.38,-4,o),
(157.38,-3,cs),
(182.38,2,o),
(228.38,23,o),
(251.38,94,cs),
(254.38,104,o),
(263.38,132,o),
(275.38,170,cs),
(279.38,183,o),
(294.38,191,o),
(307.38,189,cs),
(398.38,172,o),
(469.38,212,o),
(494.38,228,cs),
(496.38,229,o),
(498.38,230,o),
(499.38,232,c),
(511.38,238,o),
(516.38,253,o),
(510.38,265,cs),
(503.38,278,o),
(489.38,282,o),
(477.38,276,cs),
(475.38,275,o),
(472.38,273,o),
(469.38,271,cs),
(446.38,258,o),
(392.38,226,o),
(322.38,238,cs),
(310.38,240,o),
(302.38,252,o),
(306.38,264,cs),
(332.38,342,o),
(360.38,433,o),
(378.38,492,cs),
(386.38,522,o),
(389.38,548,o),
(376.38,561,cs),
(354.38,582,o),
(324.38,583,o),
(261.38,554,c),
(258.38,552,o),
(254.38,550,o),
(252.38,549,cs),
(243.38,544,o),
(237.38,529,o),
(243.38,516,cs),
(249.38,504,o),
(264.38,500,o),
(276.38,506,cs),
(278.38,507,o),
(286.38,510,o),
(291.38,513,cs),
(299.38,517,o),
(306.38,520,o),
(313.38,521,cs),
(320.38,522,o),
(325.38,521,o),
(329.38,518,c),
(330.38,516,o),
(333.38,513,o),
(330.38,505,cs),
(312.38,446,o),
(284.38,361,o),
(260.38,283,cs),
(256.38,271,o),
(243.38,266,o),
(233.38,273,cs),
(196.38,296,o),
(172.38,324,o),
(160.38,358,cs),
(122.38,463,o),
(208.38,549,o),
(212.38,552,c),
(304.38,644,o),
(504.38,639,o),
(568.38,583,cs),
(585.38,569,o),
(607.38,544,o),
(617.38,506,cs),
(621.38,485,o),
(628.38,456,o),
(603.38,380,cs),
(572.38,297,o),
(556.38,257,o),
(534.38,200,cs),
(518.38,160,ls),
(496.38,104,o),
(477.38,37,o),
(515.38,6,c),
(526.38,-1,o),
(538.38,-4,o),
(552.38,-4,cs),
(599.38,-4,o),
(653.38,33,o),
(653.38,34,c),
(664.38,41,o),
(667.38,57,o),
(659.38,68,cs),
(652.38,79,o),
(636.38,81,o),
(625.38,74,cs),
(613.38,65,o),
(590.38,55,o),
(570.38,49,cs),
(556.38,45,o),
(541.38,57,o),
(543.38,72,cs),
(546.38,86,o),
(551.38,108,o),
(564.38,141,cs),
(580.38,182,ls),
(604.38,239,o),
(619.38,280,o),
(648.38,364,cs),
(678.38,447,o),
(671.38,486,o),
(664.38,517,cs),
(651.38,568,o),
(623.38,602,o),
(601.38,621,cs),
(513.38,697,o),
(283.38,694,o),
(176.38,587,cs),
(164.38,576,o),
(66.38,474,o),
(113.38,341,cs),
(126.38,306,o),
(154.38,259,o),
(220.38,222,cs),
(230.38,217,o),
(235.38,203,o),
(231.38,192,cs),
(218.38,152,o),
(208.38,120,o),
(205.38,110,cs),
(191.38,74,o),
(172.38,52,o),
(147.38,47,cs),
(127.38,42,o),
(106.38,55,o),
(96.38,63,cs),
(85.38,71,o),
(69.38,69,o),
(61.38,58,cs)
);
},
{
closed = 1;
nodes = (
(463.715,844.511,o),
(476.7,864.154,o),
(501.38,876,cs),
(538.38,895,o),
(566.38,868,o),
(558.38,827,cs),
(542.775,756.776,o),
(449.165,741.726,o),
(455.69,818.034,c)
);
},
{
closed = 1;
nodes = (
(456.38,824,ls),
(456.327,823.63,ls)
);
}
);
userData = {
assembly = "PUSHW[ ]	/* 4 values pushed */
78 3 161 4 
CALL[ ]	/* CallFunction */
PUSHW[ ]	/* 4 values pushed */
39 4 58 4 
CALL[ ]	/* CallFunction */
PUSHW[ ]	/* 4 values pushed */
34 3 68 4 
CALL[ ]	/* CallFunction */
PUSHW[ ]	/* 3 values pushed */
15 161 34 
SRP1[ ]	/* SetRefPoint1 */
SRP2[ ]	/* SetRefPoint2 */
IP[ ]	/* InterpolatePts */
PUSHW[ ]	/* 3 values pushed */
28 161 34 
SRP1[ ]	/* SetRefPoint1 */
SRP2[ ]	/* SetRefPoint2 */
IP[ ]	/* InterpolatePts */
NPUSHW[ ]	/* 5 values pushed */
218 58 234 58 2 
DELTAP1[ ]	/* DeltaExceptionP1 */
NPUSHW[ ]	/* 27 values pushed */
9 58 25 58 41 58 57 58 73 58 89 58 105 58 121 58 137 58 153 58 169 58 185 58 201 58 13 
DELTAP1[ ]	/* DeltaExceptionP1 */
NPUSHW[ ]	/* 5 values pushed */
218 68 234 68 2 
DELTAP1[ ]	/* DeltaExceptionP1 */
NPUSHW[ ]	/* 27 values pushed */
9 68 25 68 41 68 57 68 73 68 89 68 105 68 121 68 137 68 153 68 169 68 185 68 201 68 13 
DELTAP1[ ]	/* DeltaExceptionP1 */
NPUSHW[ ]	/* 27 values pushed */
6 78 22 78 38 78 54 78 70 78 86 78 102 78 118 78 134 78 150 78 166 78 182 78 198 78 13 
DELTAP1[ ]	/* DeltaExceptionP1 */
NPUSHW[ ]	/* 5 values pushed */
213 78 229 78 2 
DELTAP1[ ]	/* DeltaExceptionP1 */
PUSHW[ ]	/* 1 value pushed */
34 
SRP0[ ]	/* SetRefPoint0 */
PUSHW[ ]	/* 1 value pushed */
167 
MDRP[11100]	/* MoveDirectRelPt */
SVTCA[0]	/* SetFreedomAndProjectionVectorToAxis */
PUSHW[ ]	/* 1 value pushed */
55 
MDAP[1]	/* MoveDirectAbsPt */
PUSHW[ ]	/* 1 value pushed */
140 
MDAP[1]	/* MoveDirectAbsPt */
PUSHW[ ]	/* 4 values pushed */
83 1 133 4 
CALL[ ]	/* CallFunction */
PUSHW[ ]	/* 4 values pushed */
29 1 73 4 
CALL[ ]	/* CallFunction */
PUSHW[ ]	/* 1 value pushed */
140 
SRP0[ ]	/* SetRefPoint0 */
PUSHW[ ]	/* 2 values pushed */
151 2 
MIRP[10100]	/* MoveIndirectRelPt */
PUSHW[ ]	/* 1 value pushed */
42 
MDRP[10000]	/* MoveDirectRelPt */
PUSHW[ ]	/* 1 value pushed */
42 
MDAP[1]	/* MoveDirectAbsPt */
PUSHW[ ]	/* 1 value pushed */
140 
SRP0[ ]	/* SetRefPoint0 */
PUSHW[ ]	/* 2 values pushed */
47 1 
MIRP[10100]	/* MoveIndirectRelPt */
PUSHW[ ]	/* 1 value pushed */
133 
SRP0[ ]	/* SetRefPoint0 */
PUSHW[ ]	/* 2 values pushed */
117 2 
MIRP[10100]	/* MoveIndirectRelPt */
PUSHW[ ]	/* 1 value pushed */
140 
SRP0[ ]	/* SetRefPoint0 */
PUSHW[ ]	/* 2 values pushed */
148 1 
MIRP[10100]	/* MoveIndirectRelPt */
IUP[0]	/* InterpolateUntPts */
IUP[1]	/* InterpolateUntPts */";
};
width = 726.98;
}
);
note = Aring;
unicode = 197;
},
{
glyphname = Atilde;
lastChange = "2025-11-12 14:19:19 +0000";
layers = (
{
layerId = "21C22D19-092A-479F-91CA-8C525B8909B6";
shapes = (
{
closed = 1;
nodes = (
(192.784,-5,o),
(235.041,40.003,o),
(252.683,94.462,cs),
(255.697,104.508,o),
(264.739,132.639,o),
(276.795,170.816,cs),
(280.814,183.877,o),
(295.884,191.914,o),
(308.945,189.905,cs),
(400.369,172.825,o),
(471.7,213.012,o),
(496.817,229.087,c),
(509.928,235.643,o),
(519.806,252.428,o),
(512.891,266.259,cs),
(503.736,283.263,o),
(486.99,281.734,o),
(471.7,272.287,cs),
(449.119,258.335,o),
(394.341,227.077,o),
(324.014,239.133,cs),
(311.959,241.143,o),
(303.921,253.199,o),
(307.94,265.254,cs),
(334.061,343.618,o),
(362.192,435.043,o),
(380.276,494.318,cs),
(388.313,524.458,o),
(391.327,550.579,o),
(378.266,563.64,cs),
(343.39,596.93,o),
(288.005,568.742,o),
(253.688,551.584,cs),
(244.646,546.56,o),
(238.618,531.49,o),
(244.646,518.43,cs),
(250.674,506.374,o),
(265.744,502.355,o),
(277.8,508.383,cs),
(279.044,509.005,o),
(304.843,522.006,o),
(314.973,523.453,cs),
(328.468,525.381,o),
(336.838,520.143,o),
(332.052,507.378,cs),
(313.968,448.103,o),
(285.837,362.707,o),
(261.725,284.343,cs),
(257.707,272.287,o),
(244.646,267.264,o),
(234.599,274.296,cs),
(197.427,297.404,o),
(173.315,325.534,o),
(161.259,359.693,cs),
(123.082,465.183,o),
(209.949,551.046,o),
(213.501,554.598,cs),
(305.931,647.027,o),
(506.863,642.003,o),
(571.162,585.742,cs),
(588.241,571.677,o),
(610.344,546.56,o),
(620.39,508.383,cs),
(624.409,487.285,o),
(631.441,458.15,o),
(606.325,381.795,cs),
(567.494,277.829,o),
(561.41,264.105,o),
(520.929,160.769,cs),
(498.826,104.508,o),
(478.981,36.245,o),
(517.915,6.051,cs),
(528.266,-1.976,o),
(541.022,-3.995,o),
(555.087,-3.995,cs),
(602.306,-3.995,o),
(654.17,32.587,o),
(656.558,34.182,cs),
(667.451,41.457,o),
(670.623,57.289,o),
(662.586,68.34,cs),
(655.553,79.392,o),
(639.479,81.401,o),
(628.428,74.368,cs),
(616.372,65.326,o),
(593.264,55.28,o),
(573.171,49.252,cs),
(559.106,45.233,o),
(544.036,57.289,o),
(546.045,72.359,cs),
(549.059,86.424,o),
(554.189,108.486,o),
(567.143,141.681,cs),
(616.682,268.623,o),
(619.394,272.622,o),
(651.535,365.721,cs),
(681.675,449.108,o),
(674.642,488.29,o),
(667.609,519.434,cs),
(654.549,570.672,o),
(626.418,604.831,o),
(604.316,623.919,cs),
(515.905,700.274,o),
(284.833,697.26,o),
(177.334,589.761,cs),
(165.278,578.709,o),
(66.821,476.234,o),
(114.04,342.614,cs),
(127.1,307.45,o),
(155.231,260.231,o),
(221.539,223.059,cs),
(231.585,218.035,o),
(236.609,203.97,o),
(232.59,192.919,cs),
(219.529,152.732,o),
(209.483,120.583,o),
(206.469,110.536,cs),
(192.404,74.368,o),
(173.315,52.266,o),
(148.198,47.243,cs),
(128.105,42.219,o),
(107.007,55.28,o),
(96.961,63.317,cs),
(85.909,71.354,o),
(69.835,69.345,o),
(61.797,58.294,cs),
(53.76,47.243,o),
(55.769,32.173,o),
(66.821,23.131,cs),
(90.933,4.042,o),
(116.049,-5,o),
(139.156,-5,cs)
);
},
{
closed = 1;
nodes = (
(354.295,746.964,o),
(357.096,734.188,o),
(367,729,cs),
(378.099,723.186,o),
(390,727,o),
(398,738,c),
(421.487,763.481,o),
(435.336,784,o),
(448,784,cs),
(461,784,o),
(465.919,776.951,o),
(472,767,cs),
(485.589,744.763,o),
(499.34,728,o),
(528,728,cs),
(552,728,o),
(575.477,739.636,o),
(596,767,cs),
(608.485,783.647,o),
(617,801,o),
(617,801,c),
(623,812,o),
(616.9,823.735,o),
(606,828,cs),
(593.894,832.737,o),
(581,828,o),
(576,818,c),
(576,818,o),
(565.67,801.24,o),
(557,789,cs),
(548.664,777.231,o),
(541,775,o),
(532,775,cs),
(524,775,o),
(514.721,783.734,o),
(509,790,cs),
(491.15,809.55,o),
(483,831,o),
(450,831,cs),
(427,831,o),
(405.183,816.843,o),
(382,790,cs),
(367.181,772.842,o),
(359.035,761.047,o),
(357,755,cs)
);
}
);
width = 730.04;
}
);
note = Atilde;
unicode = 195;
},
{
glyphname = AE;
lastChange = "2025-11-12 14:19:19 +0000";
layers = (
{
layerId = "21C22D19-092A-479F-91CA-8C525B8909B6";
shapes = (
{
closed = 1;
nodes = (
(732.09,-4,o),
(795.09,28,o),
(842.09,82,cs),
(891.09,139,o),
(902.09,202,o),
(902.09,237,cs),
(902.09,249,o),
(891.09,260,o),
(878.09,260,cs),
(864.09,260,o),
(853.09,250,o),
(852.09,237,cs),
(850.09,209,o),
(843.09,159,o),
(805.09,114,cs),
(755.09,54,o),
(683.09,45,o),
(643.09,45,cs),
(567.09,45,o),
(504.09,75,o),
(467.09,125,cs),
(452.09,147,o),
(442.09,169,o),
(438.09,191,cs),
(437.09,197,o),
(440.09,202,o),
(445.09,204,cs),
(466.09,214,o),
(485.09,224,o),
(495.09,230,cs),
(509.09,237,o),
(518.09,253,o),
(511.09,267,cs),
(506.09,276,o),
(498.09,281,o),
(489.09,281,cs),
(480.09,281,o),
(478.09,278,o),
(470.09,273,cs),
(464.09,269,o),
(454.09,264,o),
(442.09,258,cs),
(439.09,257,o),
(436.09,259,o),
(436.09,263,cs),
(443.09,334,o),
(467.09,360,o),
(506.09,396,cs),
(511.09,400,o),
(518.09,399,o),
(521.09,394,cs),
(555.09,340,o),
(619.09,311,o),
(679.09,311,cs),
(736.09,311,o),
(798.09,350,o),
(798.09,403,cs),
(798.09,466,o),
(722.09,505,o),
(661.09,505,cs),
(628.09,505,o),
(591.09,496,o),
(552.09,480,cs),
(546.09,477,o),
(542.09,480,o),
(542.09,486,cs),
(542.09,497,o),
(543.09,508,o),
(546.09,519,cs),
(561.09,577,o),
(614.09,601,o),
(633.09,610,cs),
(660.09,624,o),
(688.09,628,o),
(714.09,628,cs),
(764.09,628,o),
(804.09,610,o),
(815.09,605,cs),
(859.09,584,o),
(889.09,553,o),
(904.09,529,cs),
(912.09,517,o),
(928.09,516,o),
(938.09,523,cs),
(950.09,530,o),
(952.09,548,o),
(945.09,558,cs),
(916.09,598,o),
(879.09,629,o),
(836.09,650,cs),
(819.09,658,o),
(772.09,678,o),
(714.09,678,cs),
(682.09,678,o),
(647.09,670,o),
(611.09,654,cs),
(604.09,651,o),
(597.09,647,o),
(585.09,640,cs),
(583.09,639,o),
(581.09,639,o),
(577.09,641,cs),
(537.09,664,o),
(481.09,676,o),
(422.09,676,cs),
(333.09,676,o),
(236.09,648,o),
(177.09,589,cs),
(168.09,579,o),
(101.09,512,o),
(101.09,415,cs),
(101.09,339,o),
(141.09,269,o),
(221.09,224,cs),
(231.09,219,o),
(236.09,205,o),
(232.09,194,cs),
(219.09,154,o),
(210.09,122,o),
(206.09,112,cs),
(191.09,72,o),
(168.09,48,o),
(139.09,48,cs),
(122.09,48,o),
(106.09,58,o),
(97.09,65,cs),
(88.09,72,o),
(70.09,72,o),
(62.09,60,cs),
(54.09,49,o),
(56.09,34,o),
(67.09,25,cs),
(91.09,6,o),
(116.09,-3,o),
(139.09,-3,cs),
(192.09,-3,o),
(235.09,42,o),
(252.09,96,cs),
(276.09,172,ls),
(280.09,185,o),
(295.09,193,o),
(308.09,191,cs),
(332.09,186,o),
(356.09,186,o),
(377.09,188,cs),
(383.09,189,o),
(389.09,185,o),
(390.09,179,cs),
(397.09,151,o),
(408.09,123,o),
(427.09,96,cs),
(471.09,35,o),
(541.09,-4,o),
(627.09,-4,cs)
);
},
{
closed = 1;
nodes = (
(151.09,493,o),
(210.09,551,o),
(213.09,554,cs),
(263.09,604,o),
(345.09,625,o),
(420.09,625,cs),
(463.09,625,o),
(503.09,618,o),
(533.09,606,cs),
(536.09,605,o),
(538.09,603,o),
(535.09,600,cs),
(492.09,556,o),
(488.09,500,o),
(496.09,460,cs),
(497.09,454,o),
(495.09,448,o),
(490.09,445,cs),
(420.09,394,o),
(384.09,330,o),
(384.09,248,cs),
(384.09,243,o),
(380.09,238,o),
(375.09,238,cs),
(359.09,236,o),
(342.09,237,o),
(323.09,240,cs),
(309.09,242,o),
(304.09,256,o),
(307.09,266,cs),
(333.09,344,o),
(362.09,435,o),
(379.09,494,cs),
(384.09,509,o),
(386.09,524,o),
(386.09,536,cs),
(386.09,565,o),
(365.09,578,o),
(338.09,578,cs),
(308.09,578,o),
(280.09,566,o),
(253.09,551,cs),
(242.09,545,o),
(239.09,528,o),
(244.09,518,cs),
(250.09,505,o),
(266.09,502,o),
(277.09,508,cs),
(281.09,510,o),
(306.09,523,o),
(319.09,523,cs),
(330.09,523,o),
(335.09,518,o),
(331.09,507,cs),
(313.09,448,o),
(285.09,363,o),
(261.09,285,cs),
(257.09,273,o),
(245.09,269,o),
(234.09,275,cs),
(179.09,309,o),
(151.09,359,o),
(151.09,415,cs)
);
},
{
closed = 1;
nodes = (
(558.451,428.278,o),
(561.459,431.148,o),
(571.09,435,cs),
(604.09,449,o),
(635.09,456,o),
(661.09,456,cs),
(684.09,456,o),
(708.09,452,o),
(723.09,442,cs),
(754.09,421,o),
(762.09,391,o),
(727.09,370,cs),
(704.09,356,o),
(671.09,354,o),
(644.09,360,cs),
(617.09,366,o),
(583.09,390,o),
(563.09,419,c)
);
}
);
userData = {
assembly = "PUSHW[ ]	/* 4 values pushed */
5 3 147 4 
CALL[ ]	/* CallFunction */
PUSHW[ ]	/* 4 values pushed */
35 5 142 4 
CALL[ ]	/* CallFunction */
PUSHW[ ]	/* 3 values pushed */
185 116 3 
CALL[ ]	/* CallFunction */
PUSHW[ ]	/* 4 values pushed */
62 3 193 4 
CALL[ ]	/* CallFunction */
NPUSHW[ ]	/* 27 values pushed */
6 5 22 5 38 5 54 5 70 5 86 5 102 5 118 5 134 5 150 5 166 5 182 5 198 5 13 
DELTAP1[ ]	/* DeltaExceptionP1 */
NPUSHW[ ]	/* 5 values pushed */
213 5 229 5 2 
DELTAP1[ ]	/* DeltaExceptionP1 */
NPUSHW[ ]	/* 27 values pushed */
6 35 22 35 38 35 54 35 70 35 86 35 102 35 118 35 134 35 150 35 166 35 182 35 198 35 13 
DELTAP1[ ]	/* DeltaExceptionP1 */
NPUSHW[ ]	/* 5 values pushed */
213 35 229 35 2 
DELTAP1[ ]	/* DeltaExceptionP1 */
PUSHW[ ]	/* 1 value pushed */
35 
SRP0[ ]	/* SetRefPoint0 */
PUSHW[ ]	/* 1 value pushed */
17 
MDRP[10000]	/* MoveDirectRelPt */
PUSHW[ ]	/* 1 value pushed */
17 
MDAP[1]	/* MoveDirectAbsPt */
PUSHW[ ]	/* 3 values pushed */
22 142 35 
SRP1[ ]	/* SetRefPoint1 */
SRP2[ ]	/* SetRefPoint2 */
IP[ ]	/* InterpolatePts */
PUSHW[ ]	/* 1 value pushed */
22 
MDAP[1]	/* MoveDirectAbsPt */
PUSHW[ ]	/* 2 values pushed */
30 5 
MIRP[10100]	/* MoveIndirectRelPt */
PUSHW[ ]	/* 1 value pushed */
116 
SRP0[ ]	/* SetRefPoint0 */
PUSHW[ ]	/* 1 value pushed */
41 
MDRP[10000]	/* MoveDirectRelPt */
PUSHW[ ]	/* 1 value pushed */
41 
MDAP[1]	/* MoveDirectAbsPt */
NPUSHW[ ]	/* 27 values pushed */
6 185 22 185 38 185 54 185 70 185 86 185 102 185 118 185 134 185 150 185 166 185 182 185 198 185 13 
DELTAP1[ ]	/* DeltaExceptionP1 */
NPUSHW[ ]	/* 5 values pushed */
213 185 229 185 2 
DELTAP1[ ]	/* DeltaExceptionP1 */
PUSHW[ ]	/* 3 values pushed */
54 116 185 
SRP1[ ]	/* SetRefPoint1 */
SRP2[ ]	/* SetRefPoint2 */
IP[ ]	/* InterpolatePts */
PUSHW[ ]	/* 3 values pushed */
78 116 185 
SRP1[ ]	/* SetRefPoint1 */
SRP2[ ]	/* SetRefPoint2 */
IP[ ]	/* InterpolatePts */
NPUSHW[ ]	/* 5 values pushed */
218 193 234 193 2 
DELTAP1[ ]	/* DeltaExceptionP1 */
NPUSHW[ ]	/* 27 values pushed */
9 193 25 193 41 193 57 193 73 193 89 193 105 193 121 193 137 193 153 193 169 193 185 193 201 193 13 
DELTAP1[ ]	/* DeltaExceptionP1 */
PUSHW[ ]	/* 1 value pushed */
62 
SRP0[ ]	/* SetRefPoint0 */
PUSHW[ ]	/* 1 value pushed */
201 
MDRP[11100]	/* MoveDirectRelPt */
SVTCA[0]	/* SetFreedomAndProjectionVectorToAxis */
PUSHW[ ]	/* 1 value pushed */
0 
RCVT[ ]	/* ReadCVT */
IF[ ]	/* If */
PUSHW[ ]	/* 1 value pushed */
110 
MDAP[1]	/* MoveDirectAbsPt */
ELSE[ ]	/* Else */
PUSHW[ ]	/* 2 values pushed */
110 6 
MIAP[0]	/* MoveIndirectAbsPt */
EIF[ ]	/* EndIf */
PUSHW[ ]	/* 4 values pushed */
134 1 126 4 
CALL[ ]	/* CallFunction */
PUSHW[ ]	/* 4 values pushed */
160 2 0 4 
CALL[ ]	/* CallFunction */
PUSHW[ ]	/* 4 values pushed */
190 2 67 4 
CALL[ ]	/* CallFunction */
PUSHW[ ]	/* 1 value pushed */
160 
SRP0[ ]	/* SetRefPoint0 */
PUSHW[ ]	/* 1 value pushed */
168 
MDRP[11100]	/* MoveDirectRelPt */
PUSHW[ ]	/* 3 values pushed */
54 160 168 
SRP1[ ]	/* SetRefPoint1 */
SRP2[ ]	/* SetRefPoint2 */
IP[ ]	/* InterpolatePts */
PUSHW[ ]	/* 1 value pushed */
126 
SRP0[ ]	/* SetRefPoint0 */
PUSHW[ ]	/* 2 values pushed */
95 2 
MIRP[10100]	/* MoveIndirectRelPt */
PUSHW[ ]	/* 1 value pushed */
0 
SRP0[ ]	/* SetRefPoint0 */
PUSHW[ ]	/* 1 value pushed */
173 
MDRP[10000]	/* MoveDirectRelPt */
PUSHW[ ]	/* 1 value pushed */
173 
MDAP[1]	/* MoveDirectAbsPt */
IUP[0]	/* InterpolateUntPts */
IUP[1]	/* InterpolateUntPts */";
};
width = 962.06;
}
);
note = AE;
unicode = 198;
},
{
glyphname = AEacute;
lastChange = "2025-11-12 14:19:19 +0000";
layers = (
{
layerId = "21C22D19-092A-479F-91CA-8C525B8909B6";
shapes = (
{
closed = 1;
nodes = (
(732.09,-4,o),
(795.09,28,o),
(842.09,82,cs),
(891.09,139,o),
(902.09,202,o),
(902.09,237,cs),
(902.09,249,o),
(891.09,260,o),
(878.09,260,cs),
(864.09,260,o),
(853.09,250,o),
(852.09,237,cs),
(850.09,209,o),
(843.09,159,o),
(805.09,114,cs),
(755.09,54,o),
(683.09,45,o),
(643.09,45,cs),
(567.09,45,o),
(504.09,75,o),
(467.09,125,cs),
(452.09,147,o),
(442.09,169,o),
(438.09,191,cs),
(437.09,197,o),
(440.09,202,o),
(445.09,204,cs),
(466.09,214,o),
(485.09,224,o),
(495.09,230,cs),
(509.09,237,o),
(518.09,253,o),
(511.09,267,cs),
(506.09,276,o),
(498.09,281,o),
(489.09,281,cs),
(480.09,281,o),
(478.09,278,o),
(470.09,273,cs),
(464.09,269,o),
(454.09,264,o),
(442.09,258,cs),
(439.09,257,o),
(436.09,259,o),
(436.09,263,cs),
(443.09,334,o),
(467.09,360,o),
(506.09,396,cs),
(511.09,400,o),
(518.09,399,o),
(521.09,394,cs),
(555.09,340,o),
(619.09,311,o),
(679.09,311,cs),
(736.09,311,o),
(798.09,350,o),
(798.09,403,cs),
(798.09,466,o),
(722.09,505,o),
(661.09,505,cs),
(628.09,505,o),
(591.09,496,o),
(552.09,480,cs),
(546.09,477,o),
(542.09,480,o),
(542.09,486,cs),
(542.09,497,o),
(543.09,508,o),
(546.09,519,cs),
(561.09,577,o),
(614.09,601,o),
(633.09,610,cs),
(660.09,624,o),
(688.09,628,o),
(714.09,628,cs),
(764.09,628,o),
(804.09,610,o),
(815.09,605,cs),
(859.09,584,o),
(889.09,553,o),
(904.09,529,cs),
(912.09,517,o),
(928.09,516,o),
(938.09,523,cs),
(950.09,530,o),
(952.09,548,o),
(945.09,558,cs),
(916.09,598,o),
(879.09,629,o),
(836.09,650,cs),
(819.09,658,o),
(772.09,678,o),
(714.09,678,cs),
(682.09,678,o),
(647.09,670,o),
(611.09,654,cs),
(604.09,651,o),
(597.09,647,o),
(585.09,640,cs),
(583.09,639,o),
(581.09,639,o),
(577.09,641,cs),
(537.09,664,o),
(481.09,676,o),
(422.09,676,cs),
(333.09,676,o),
(236.09,648,o),
(177.09,589,cs),
(168.09,579,o),
(101.09,512,o),
(101.09,415,cs),
(101.09,339,o),
(141.09,269,o),
(221.09,224,cs),
(231.09,219,o),
(236.09,205,o),
(232.09,194,cs),
(219.09,154,o),
(210.09,122,o),
(206.09,112,cs),
(191.09,72,o),
(168.09,48,o),
(139.09,48,cs),
(122.09,48,o),
(106.09,58,o),
(97.09,65,cs),
(88.09,72,o),
(70.09,72,o),
(62.09,60,cs),
(54.09,49,o),
(56.09,34,o),
(67.09,25,cs),
(91.09,6,o),
(116.09,-3,o),
(139.09,-3,cs),
(192.09,-3,o),
(235.09,42,o),
(252.09,96,cs),
(276.09,172,ls),
(280.09,185,o),
(295.09,193,o),
(308.09,191,cs),
(332.09,186,o),
(356.09,186,o),
(377.09,188,cs),
(383.09,189,o),
(389.09,185,o),
(390.09,179,cs),
(397.09,151,o),
(408.09,123,o),
(427.09,96,cs),
(471.09,35,o),
(541.09,-4,o),
(627.09,-4,cs)
);
},
{
closed = 1;
nodes = (
(151.09,493,o),
(210.09,551,o),
(213.09,554,cs),
(263.09,604,o),
(345.09,625,o),
(420.09,625,cs),
(463.09,625,o),
(503.09,618,o),
(533.09,606,cs),
(536.09,605,o),
(538.09,603,o),
(535.09,600,cs),
(492.09,556,o),
(488.09,500,o),
(496.09,460,cs),
(497.09,454,o),
(495.09,448,o),
(490.09,445,cs),
(420.09,394,o),
(384.09,330,o),
(384.09,248,cs),
(384.09,243,o),
(380.09,238,o),
(375.09,238,cs),
(359.09,236,o),
(342.09,237,o),
(323.09,240,cs),
(309.09,242,o),
(304.09,256,o),
(307.09,266,cs),
(333.09,344,o),
(362.09,435,o),
(379.09,494,cs),
(384.09,509,o),
(386.09,524,o),
(386.09,536,cs),
(386.09,565,o),
(365.09,578,o),
(338.09,578,cs),
(308.09,578,o),
(280.09,566,o),
(253.09,551,cs),
(242.09,545,o),
(239.09,528,o),
(244.09,518,cs),
(250.09,505,o),
(266.09,502,o),
(277.09,508,cs),
(281.09,510,o),
(306.09,523,o),
(319.09,523,cs),
(330.09,523,o),
(335.09,518,o),
(331.09,507,cs),
(313.09,448,o),
(285.09,363,o),
(261.09,285,cs),
(257.09,273,o),
(245.09,269,o),
(234.09,275,cs),
(179.09,309,o),
(151.09,359,o),
(151.09,415,cs)
);
},
{
closed = 1;
nodes = (
(387.11,769.875,o),
(409.073,734.893,o),
(434,752,cs),
(460.073,769.894,o),
(515.902,812.106,o),
(544,838,cs),
(566.903,859.106,o),
(539.902,893.128,o),
(511,871,cs),
(475.902,844.128,o),
(423.111,801.876,o),
(403,784,cs)
);
},
{
closed = 1;
nodes = (
(558.451,428.278,o),
(561.459,431.148,o),
(571.09,435,cs),
(604.09,449,o),
(635.09,456,o),
(661.09,456,cs),
(684.09,456,o),
(708.09,452,o),
(723.09,442,cs),
(754.09,421,o),
(762.09,391,o),
(727.09,370,cs),
(704.09,356,o),
(671.09,354,o),
(644.09,360,cs),
(617.09,366,o),
(583.09,390,o),
(563.09,419,c)
);
}
);
width = 962.06;
}
);
note = AEacute;
unicode = 508;
},
{
glyphname = B;
lastChange = "2025-11-12 14:19:19 +0000";
layers = (
{
guides = (
{
angle = 90;
pos = (36.26,333);
},
{
angle = 90;
pos = (675.26,363);
}
);
layerId = "21C22D19-092A-479F-91CA-8C525B8909B6";
shapes = (
{
closed = 1;
nodes = (
(75.213,2.783,o),
(96.267,-6.199,o),
(132.26,1,cs),
(148.26,4,o),
(171.26,14,o),
(193.26,39,cs),
(204.26,52,o),
(222.26,59,o),
(234.26,49,cs),
(376.26,-66,o),
(647.26,12,o),
(668.26,211,cs),
(675.26,258,o),
(667.26,316,o),
(641.26,361,cs),
(639.26,364,o),
(639.26,367,o),
(641.26,369,c),
(702.152,458.547,o),
(685.023,558.977,o),
(592.26,619,cs),
(474.26,693,o),
(345.26,663,o),
(330.26,660,cs),
(245.26,638,o),
(185.26,602,o),
(145.26,551,cs),
(109.26,502,o),
(92.26,446,o),
(99.26,390,cs),
(102.26,368,o),
(107.26,346,o),
(117.26,325,cs),
(122.26,313,o),
(137.26,308,o),
(148.26,313,cs),
(160.26,319,o),
(165.26,333,o),
(160.26,345,cs),
(152.26,361,o),
(148.26,378,o),
(146.26,395,cs),
(142.26,438,o),
(155.26,482,o),
(185.26,521,cs),
(215.26,565,o),
(267.26,594,o),
(343.26,614,cs),
(387.26,624,o),
(485.26,630,o),
(567.26,579,cs),
(616.928,550.027,o),
(649.162,487.563,o),
(610.26,413,cs),
(608.26,408,o),
(603.26,408,o),
(600.26,411,cs),
(570.366,440.894,o),
(506.711,459.024,o),
(458.26,449,cs),
(368.731,428.856,o),
(355.247,354.845,o),
(393.26,320,cs),
(433.26,280,o),
(485.26,287,o),
(506.26,289,cs),
(546.26,293,o),
(575.26,310,o),
(596.26,325,cs),
(600.26,328,o),
(604.26,326,o),
(606.26,323,c),
(620.26,290,o),
(625.26,251,o),
(620.26,218,cs),
(600.26,91,o),
(506.26,59,o),
(422.26,47,cs),
(355.26,40,o),
(316.26,51,o),
(274.26,78,cs),
(265.26,83,o),
(252.26,95,o),
(241.26,107,cs),
(233.26,116,o),
(233.26,129,o),
(237.26,139,cs),
(263.26,220,o),
(314.281,379.604,o),
(343.26,471,cs),
(353.307,502.687,o),
(353.579,525.145,o),
(341.26,538,cs),
(318.26,562,o),
(280.26,553,o),
(246.26,537,c),
(228.143,530.961,o),
(217.069,515.259,o),
(224.26,498,c),
(230.26,488,o),
(244.179,481.14,o),
(256.26,488,cs),
(283.784,503.63,o),
(290.571,508.707,o),
(297.595,497,cs),
(300.447,492.247,o),
(296.303,481,o),
(293.26,471,cs),
(258.26,356,o),
(188.26,137,o),
(176.26,107,cs),
(164.26,73,o),
(146.26,51,o),
(122.26,47,cs),
(104.26,43,o),
(84.26,54,o),
(74.26,62,cs),
(63.26,69,o),
(48.26,67,o),
(41.26,58,cs),
(33.26,47,o),
(35.26,32,o),
(45.26,24,cs)
);
},
{
closed = 1;
nodes = (
(523.26,404,o),
(548.26,390,o),
(553.26,387,cs),
(562.26,382,o),
(565.26,380,o),
(569.26,376,cs),
(573.006,372.254,o),
(575.006,368.746,o),
(571.26,365,cs),
(556.26,352,o),
(531.26,339,o),
(499.26,335,c),
(392.2,328.702,o),
(405.615,404,o),
(490.26,404,cs)
);
}
);
userData = {
assembly = "PUSHW[ ]	/* 4 values pushed */
7 3 106 4 
CALL[ ]	/* CallFunction */
PUSHW[ ]	/* 4 values pushed */
132 4 95 4 
CALL[ ]	/* CallFunction */
PUSHW[ ]	/* 4 values pushed */
62 5 54 4 
CALL[ ]	/* CallFunction */
PUSHW[ ]	/* 4 values pushed */
119 4 127 4 
CALL[ ]	/* CallFunction */
NPUSHW[ ]	/* 5 values pushed */
218 106 234 106 2 
DELTAP1[ ]	/* DeltaExceptionP1 */
NPUSHW[ ]	/* 27 values pushed */
9 106 25 106 41 106 57 106 73 106 89 106 105 106 121 106 137 106 153 106 169 106 185 106 201 106 13 
DELTAP1[ ]	/* DeltaExceptionP1 */
PUSHW[ ]	/* 3 values pushed */
17 106 7 
SRP1[ ]	/* SetRefPoint1 */
SRP2[ ]	/* SetRefPoint2 */
IP[ ]	/* InterpolatePts */
PUSHW[ ]	/* 1 value pushed */
17 
MDAP[1]	/* MoveDirectAbsPt */
NPUSHW[ ]	/* 27 values pushed */
6 62 22 62 38 62 54 62 70 62 86 62 102 62 118 62 134 62 150 62 166 62 182 62 198 62 13 
DELTAP1[ ]	/* DeltaExceptionP1 */
NPUSHW[ ]	/* 5 values pushed */
213 62 229 62 2 
DELTAP1[ ]	/* DeltaExceptionP1 */
PUSHW[ ]	/* 2 values pushed */
82 3 
MIRP[10100]	/* MoveIndirectRelPt */
NPUSHW[ ]	/* 5 values pushed */
218 82 234 82 2 
DELTAP1[ ]	/* DeltaExceptionP1 */
NPUSHW[ ]	/* 27 values pushed */
9 82 25 82 41 82 57 82 73 82 89 82 105 82 121 82 137 82 153 82 169 82 185 82 201 82 13 
DELTAP1[ ]	/* DeltaExceptionP1 */
NPUSHW[ ]	/* 5 values pushed */
218 95 234 95 2 
DELTAP1[ ]	/* DeltaExceptionP1 */
NPUSHW[ ]	/* 27 values pushed */
9 95 25 95 41 95 57 95 73 95 89 95 105 95 121 95 137 95 153 95 169 95 185 95 201 95 13 
DELTAP1[ ]	/* DeltaExceptionP1 */
PUSHW[ ]	/* 1 value pushed */
127 
SRP0[ ]	/* SetRefPoint0 */
PUSHW[ ]	/* 2 values pushed */
116 3 
MIRP[10100]	/* MoveIndirectRelPt */
NPUSHW[ ]	/* 27 values pushed */
6 119 22 119 38 119 54 119 70 119 86 119 102 119 118 119 134 119 150 119 166 119 182 119 198 119 13 
DELTAP1[ ]	/* DeltaExceptionP1 */
NPUSHW[ ]	/* 5 values pushed */
213 119 229 119 2 
DELTAP1[ ]	/* DeltaExceptionP1 */
PUSHW[ ]	/* 1 value pushed */
7 
SRP0[ ]	/* SetRefPoint0 */
PUSHW[ ]	/* 1 value pushed */
153 
MDRP[11100]	/* MoveDirectRelPt */
SVTCA[0]	/* SetFreedomAndProjectionVectorToAxis */
PUSHW[ ]	/* 1 value pushed */
0 
RCVT[ ]	/* ReadCVT */
IF[ ]	/* If */
PUSHW[ ]	/* 1 value pushed */
27 
MDAP[1]	/* MoveDirectAbsPt */
ELSE[ ]	/* Else */
PUSHW[ ]	/* 2 values pushed */
27 6 
MIAP[0]	/* MoveIndirectAbsPt */
EIF[ ]	/* EndIf */
PUSHW[ ]	/* 1 value pushed */
0 
RCVT[ ]	/* ReadCVT */
IF[ ]	/* If */
PUSHW[ ]	/* 1 value pushed */
33 
MDAP[1]	/* MoveDirectAbsPt */
ELSE[ ]	/* Else */
PUSHW[ ]	/* 2 values pushed */
33 6 
MIAP[0]	/* MoveIndirectAbsPt */
EIF[ ]	/* EndIf */
PUSHW[ ]	/* 4 values pushed */
77 2 30 4 
CALL[ ]	/* CallFunction */
PUSHW[ ]	/* 4 values pushed */
0 1 111 4 
CALL[ ]	/* CallFunction */
PUSHW[ ]	/* 4 values pushed */
100 1 147 4 
CALL[ ]	/* CallFunction */
PUSHW[ ]	/* 4 values pushed */
137 1 90 4 
CALL[ ]	/* CallFunction */
IUP[0]	/* InterpolateUntPts */
IUP[1]	/* InterpolateUntPts */";
};
width = 725.82;
}
);
note = B;
unicode = 66;
},
{
glyphname = C;
lastChange = "2025-11-12 14:19:19 +0000";
layers = (
{
guides = (
{
angle = 90;
pos = (604.72,293);
},
{
angle = 90;
pos = (39.72,244);
}
);
layerId = "21C22D19-092A-479F-91CA-8C525B8909B6";
shapes = (
{
closed = 1;
nodes = (
(438.369,12.283,o),
(372.443,-7,o),
(285.72,-7,cs),
(272.72,-7,o),
(161.72,4,o),
(94.72,79,cs),
(34.72,147,o),
(19.72,259,o),
(54.72,381,cs),
(93.72,520,o),
(188.72,631,o),
(294.72,662,cs),
(320.72,670,o),
(411.72,692,o),
(497.72,642,cs),
(580.72,593,o),
(601.72,505,o),
(605.72,479,cs),
(622.72,374,o),
(565.72,243,o),
(452.72,212,cs),
(395.72,196,o),
(313.72,204,o),
(268.72,257,cs),
(251.72,278,o),
(241.72,304,o),
(238.72,333,cs),
(237.72,346,o),
(247.72,358,o),
(260.72,359,cs),
(273.72,360,o),
(285.72,351,o),
(287.72,338,cs),
(289.72,317,o),
(297.72,301,o),
(307.72,289,cs),
(340.72,249,o),
(404.72,250,o),
(439.72,259,cs),
(526.72,283,o),
(570.72,390,o),
(557.72,472,cs),
(554.72,491,o),
(538.72,561,o),
(472.72,599,cs),
(403.72,640,o),
(328.72,623,o),
(307.72,615,c),
(217.72,588,o),
(136.72,491,o),
(100.72,366,cs),
(71.72,263,o),
(81.72,167,o),
(130.72,112,cs),
(186.72,50,o),
(284.72,43,o),
(289.72,43,cs),
(378.72,43,o),
(444.72,79,o),
(469.72,99,cs),
(479.72,106,o),
(495.72,105,o),
(502.72,95,cs),
(511.72,84,o),
(509.72,68,o),
(499.72,60,cs)
);
}
);
userData = {
assembly = "PUSHW[ ]	/* 1 value pushed */
71 
MDAP[1]	/* MoveDirectAbsPt */
PUSHW[ ]	/* 1 value pushed */
28 
MDAP[1]	/* MoveDirectAbsPt */
NPUSHW[ ]	/* 5 values pushed */
218 28 234 28 2 
DELTAP1[ ]	/* DeltaExceptionP1 */
NPUSHW[ ]	/* 27 values pushed */
9 28 25 28 41 28 57 28 73 28 89 28 105 28 121 28 137 28 153 28 169 28 185 28 201 28 13 
DELTAP1[ ]	/* DeltaExceptionP1 */
PUSHW[ ]	/* 2 values pushed */
5 3 
MIRP[10100]	/* MoveIndirectRelPt */
PUSHW[ ]	/* 1 value pushed */
71 
SRP0[ ]	/* SetRefPoint0 */
PUSHW[ ]	/* 1 value pushed */
63 
MDRP[10000]	/* MoveDirectRelPt */
PUSHW[ ]	/* 1 value pushed */
63 
MDAP[1]	/* MoveDirectAbsPt */
PUSHW[ ]	/* 2 values pushed */
40 3 
MIRP[10100]	/* MoveIndirectRelPt */
NPUSHW[ ]	/* 27 values pushed */
6 40 22 40 38 40 54 40 70 40 86 40 102 40 118 40 134 40 150 40 166 40 182 40 198 40 13 
DELTAP1[ ]	/* DeltaExceptionP1 */
NPUSHW[ ]	/* 5 values pushed */
213 40 229 40 2 
DELTAP1[ ]	/* DeltaExceptionP1 */
PUSHW[ ]	/* 1 value pushed */
5 
SRP0[ ]	/* SetRefPoint0 */
PUSHW[ ]	/* 1 value pushed */
72 
MDRP[11100]	/* MoveDirectRelPt */
SVTCA[0]	/* SetFreedomAndProjectionVectorToAxis */
PUSHW[ ]	/* 1 value pushed */
0 
RCVT[ ]	/* ReadCVT */
IF[ ]	/* If */
PUSHW[ ]	/* 1 value pushed */
58 
MDAP[1]	/* MoveDirectAbsPt */
ELSE[ ]	/* Else */
PUSHW[ ]	/* 2 values pushed */
58 6 
MIAP[0]	/* MoveIndirectAbsPt */
EIF[ ]	/* EndIf */
PUSHW[ ]	/* 4 values pushed */
0 1 33 4 
CALL[ ]	/* CallFunction */
PUSHW[ ]	/* 4 values pushed */
18 1 10 4 
CALL[ ]	/* CallFunction */
PUSHW[ ]	/* 1 value pushed */
10 
SRP0[ ]	/* SetRefPoint0 */
PUSHW[ ]	/* 2 values pushed */
23 2 
MIRP[10100]	/* MoveIndirectRelPt */
PUSHW[ ]	/* 1 value pushed */
58 
SRP0[ ]	/* SetRefPoint0 */
PUSHW[ ]	/* 2 values pushed */
45 1 
MIRP[10100]	/* MoveIndirectRelPt */
NPUSHW[ ]	/* 27 values pushed */
7 45 23 45 39 45 55 45 71 45 87 45 103 45 119 45 135 45 151 45 167 45 183 45 199 45 13 
DELTAP1[ ]	/* DeltaExceptionP1 */
NPUSHW[ ]	/* 5 values pushed */
214 45 230 45 2 
DELTAP1[ ]	/* DeltaExceptionP1 */
IUP[0]	/* InterpolateUntPts */
IUP[1]	/* InterpolateUntPts */";
};
width = 622.17;
}
);
note = C;
unicode = 67;
},
{
glyphname = Cacute;
lastChange = "2025-11-12 14:19:19 +0000";
layers = (
{
layerId = "21C22D19-092A-479F-91CA-8C525B8909B6";
shapes = (
{
closed = 1;
nodes = (
(438.369,12.283,o),
(372.443,-7,o),
(285.72,-7,cs),
(272.72,-7,o),
(161.72,4,o),
(94.72,79,cs),
(34.72,147,o),
(19.72,259,o),
(54.72,381,cs),
(93.72,520,o),
(188.72,631,o),
(294.72,662,cs),
(320.72,670,o),
(411.72,692,o),
(497.72,642,cs),
(580.72,593,o),
(601.72,505,o),
(605.72,479,cs),
(622.72,374,o),
(565.72,243,o),
(452.72,212,cs),
(395.72,196,o),
(313.72,204,o),
(268.72,257,cs),
(251.72,278,o),
(241.72,304,o),
(238.72,333,cs),
(237.72,346,o),
(247.72,358,o),
(260.72,359,cs),
(273.72,360,o),
(285.72,351,o),
(287.72,338,cs),
(289.72,317,o),
(297.72,301,o),
(307.72,289,cs),
(340.72,249,o),
(404.72,250,o),
(439.72,259,cs),
(526.72,283,o),
(570.72,390,o),
(557.72,472,cs),
(554.72,491,o),
(538.72,561,o),
(472.72,599,cs),
(403.72,640,o),
(328.72,623,o),
(307.72,615,c),
(217.72,588,o),
(136.72,491,o),
(100.72,366,cs),
(71.72,263,o),
(81.72,167,o),
(130.72,112,cs),
(186.72,50,o),
(284.72,43,o),
(289.72,43,cs),
(378.72,43,o),
(444.72,79,o),
(469.72,99,cs),
(479.72,106,o),
(495.72,105,o),
(502.72,95,cs),
(511.72,84,o),
(509.72,68,o),
(499.72,60,cs)
);
},
{
closed = 1;
nodes = (
(427.11,740.875,o),
(449.073,705.893,o),
(474,723,cs),
(500.073,740.894,o),
(555.902,783.106,o),
(584,809,cs),
(606.903,830.106,o),
(579.902,864.128,o),
(551,842,cs),
(515.902,815.128,o),
(463.111,772.876,o),
(443,755,cs)
);
}
);
width = 643;
}
);
note = Cacute;
unicode = 262;
},
{
glyphname = Ccaron;
lastChange = "2025-11-12 14:19:19 +0000";
layers = (
{
layerId = "21C22D19-092A-479F-91CA-8C525B8909B6";
shapes = (
{
closed = 1;
nodes = (
(438.369,12.283,o),
(372.443,-7,o),
(285.72,-7,cs),
(272.72,-7,o),
(161.72,4,o),
(94.72,79,cs),
(34.72,147,o),
(19.72,259,o),
(54.72,381,cs),
(93.72,520,o),
(188.72,631,o),
(294.72,662,cs),
(320.72,670,o),
(411.72,692,o),
(497.72,642,cs),
(580.72,593,o),
(601.72,505,o),
(605.72,479,cs),
(622.72,374,o),
(565.72,243,o),
(452.72,212,cs),
(395.72,196,o),
(313.72,204,o),
(268.72,257,cs),
(251.72,278,o),
(241.72,304,o),
(238.72,333,cs),
(237.72,346,o),
(247.72,358,o),
(260.72,359,cs),
(273.72,360,o),
(285.72,351,o),
(287.72,338,cs),
(289.72,317,o),
(297.72,301,o),
(307.72,289,cs),
(340.72,249,o),
(404.72,250,o),
(439.72,259,cs),
(526.72,283,o),
(570.72,390,o),
(557.72,472,cs),
(554.72,491,o),
(538.72,561,o),
(472.72,599,cs),
(403.72,640,o),
(328.72,623,o),
(307.72,615,c),
(217.72,588,o),
(136.72,491,o),
(100.72,366,cs),
(71.72,263,o),
(81.72,167,o),
(130.72,112,cs),
(186.72,50,o),
(284.72,43,o),
(289.72,43,cs),
(378.72,43,o),
(444.72,79,o),
(469.72,99,cs),
(479.72,106,o),
(495.72,105,o),
(502.72,95,cs),
(511.72,84,o),
(509.72,68,o),
(499.72,60,cs)
);
},
{
closed = 1;
nodes = (
(430,740,ls),
(437.413,728.397,o),
(456.089,724.667,o),
(468,735,cs),
(551,807,ls),
(560.674,815.392,o),
(560.971,829.974,o),
(552,840,cs),
(543.971,848.974,o),
(528.26,850.93,o),
(518,842,cs),
(464,795,ls),
(459.733,791.286,o),
(453.178,792.111,o),
(450,797,cs),
(424,837,ls),
(416.987,847.789,o),
(401.339,850.085,o),
(390,844,cs),
(379.245,838.228,o),
(376.677,823.462,o),
(384,812,cs)
);
}
);
width = 643;
}
);
note = Ccaron;
unicode = 268;
},
{
glyphname = Ccedilla;
lastChange = "2025-11-12 14:19:19 +0000";
layers = (
{
layerId = "21C22D19-092A-479F-91CA-8C525B8909B6";
shapes = (
{
closed = 1;
nodes = (
(443.719,16.444,o),
(383.906,-3.421,o),
(307.944,-6.554,cs),
(300.687,-6.853,o),
(293.283,-7,o),
(285.72,-7,cs),
(282.952,-7,o),
(275.742,-6.501,o),
(265.461,-4.993,c),
(268.501,3.862,ls),
(272.203,14.646,o),
(284.27,24.364,o),
(295.208,20.197,cs),
(305.273,16.363,o),
(311.988,4.954,o),
(308.208,-5.803,cs),
(295.208,-42.803,ls),
(294.545,-44.69,o),
(295.98,-45.989,o),
(298.208,-45.803,cs),
(310.208,-44.803,o),
(327.55,-42.787,o),
(339.55,-46.787,cs),
(370.813,-57.208,o),
(395.208,-109.803,o),
(326.208,-145.803,cs),
(290.118,-164.632,o),
(265.462,-176.149,o),
(264.208,-176.803,cs),
(259.84,-179.083,o),
(243.553,-180.08,o),
(237.208,-165.803,cs),
(232.667,-155.586,o),
(237.208,-143.803,o),
(247.208,-138.803,c),
(247.208,-138.803,o),
(272.17,-127.729,o),
(307.208,-109.803,cs),
(320.204,-103.154,o),
(329.337,-95.803,o),
(323.208,-87.803,cs),
(316.204,-78.66,o),
(271.208,-95.803,o),
(271.208,-95.803,c),
(243.208,-69.803,l),
(265.461,-4.993,l),
(227.45,0.585,o),
(147.455,19.968,o),
(94.72,79,cs),
(34.72,147,o),
(19.72,259,o),
(54.72,381,cs),
(93.72,520,o),
(188.72,631,o),
(294.72,662,cs),
(320.72,670,o),
(411.72,692,o),
(497.72,642,cs),
(580.72,593,o),
(601.72,505,o),
(605.72,479,cs),
(622.72,374,o),
(565.72,243,o),
(452.72,212,cs),
(395.72,196,o),
(313.72,204,o),
(268.72,257,cs),
(251.72,278,o),
(241.72,304,o),
(238.72,333,cs),
(237.72,346,o),
(247.72,358,o),
(260.72,359,cs),
(273.72,360,o),
(285.72,351,o),
(287.72,338,cs),
(289.72,317,o),
(297.72,301,o),
(307.72,289,cs),
(340.72,249,o),
(404.72,250,o),
(439.72,259,cs),
(526.72,283,o),
(570.72,390,o),
(557.72,472,cs),
(554.72,491,o),
(538.72,561,o),
(472.72,599,cs),
(403.72,640,o),
(328.72,623,o),
(307.72,615,c),
(217.72,588,o),
(136.72,491,o),
(100.72,366,cs),
(71.72,263,o),
(81.72,167,o),
(130.72,112,cs),
(186.72,50,o),
(284.72,43,o),
(289.72,43,cs),
(378.72,43,o),
(444.72,79,o),
(469.72,99,cs),
(479.72,106,o),
(495.72,105,o),
(502.72,95,cs),
(511.72,84,o),
(509.72,68,o),
(499.72,60,cs)
);
}
);
width = 605.45;
}
);
note = Ccedilla;
unicode = 199;
},
{
glyphname = Ccircumflex;
lastChange = "2025-11-12 14:19:19 +0000";
layers = (
{
layerId = "21C22D19-092A-479F-91CA-8C525B8909B6";
shapes = (
{
closed = 1;
nodes = (
(438.369,12.283,o),
(372.443,-7,o),
(285.72,-7,cs),
(272.72,-7,o),
(161.72,4,o),
(94.72,79,cs),
(34.72,147,o),
(19.72,259,o),
(54.72,381,cs),
(93.72,520,o),
(188.72,631,o),
(294.72,662,cs),
(320.72,670,o),
(411.72,692,o),
(497.72,642,cs),
(580.72,593,o),
(601.72,505,o),
(605.72,479,cs),
(622.72,374,o),
(565.72,243,o),
(452.72,212,cs),
(395.72,196,o),
(313.72,204,o),
(268.72,257,cs),
(251.72,278,o),
(241.72,304,o),
(238.72,333,cs),
(237.72,346,o),
(247.72,358,o),
(260.72,359,cs),
(273.72,360,o),
(285.72,351,o),
(287.72,338,cs),
(289.72,317,o),
(297.72,301,o),
(307.72,289,cs),
(340.72,249,o),
(404.72,250,o),
(439.72,259,cs),
(526.72,283,o),
(570.72,390,o),
(557.72,472,cs),
(554.72,491,o),
(538.72,561,o),
(472.72,599,cs),
(403.72,640,o),
(328.72,623,o),
(307.72,615,c),
(217.72,588,o),
(136.72,491,o),
(100.72,366,cs),
(71.72,263,o),
(81.72,167,o),
(130.72,112,cs),
(186.72,50,o),
(284.72,43,o),
(289.72,43,cs),
(378.72,43,o),
(444.72,79,o),
(469.72,99,cs),
(479.72,106,o),
(495.72,105,o),
(502.72,95,cs),
(511.72,84,o),
(509.72,68,o),
(499.72,60,cs)
);
},
{
closed = 1;
nodes = (
(354.756,741.785,o),
(371.408,740.523,o),
(382,750,cs),
(439,801,ls),
(443.216,804.772,o),
(449.87,803.919,o),
(453,799,cs),
(481,755,ls),
(487.408,744.93,o),
(503.117,740.055,o),
(516,748,cs),
(527.098,754.844,o),
(530.672,770.788,o),
(523,783,cs),
(474,861,ls),
(465.801,874.051,o),
(446.476,876.289,o),
(435,866,cs),
(348,788,ls),
(337.418,778.512,o),
(336.751,762.791,o),
(346,752,cs)
);
}
);
width = 643;
}
);
note = Ccircumflex;
unicode = 264;
},
{
glyphname = Cdotaccent;
lastChange = "2025-11-12 14:19:19 +0000";
layers = (
{
layerId = "21C22D19-092A-479F-91CA-8C525B8909B6";
shapes = (
{
closed = 1;
nodes = (
(438.369,12.283,o),
(372.443,-7,o),
(285.72,-7,cs),
(272.72,-7,o),
(161.72,4,o),
(94.72,79,cs),
(34.72,147,o),
(19.72,259,o),
(54.72,381,cs),
(93.72,520,o),
(188.72,631,o),
(294.72,662,cs),
(320.72,670,o),
(411.72,692,o),
(497.72,642,cs),
(580.72,593,o),
(601.72,505,o),
(605.72,479,cs),
(622.72,374,o),
(565.72,243,o),
(452.72,212,cs),
(395.72,196,o),
(313.72,204,o),
(268.72,257,cs),
(251.72,278,o),
(241.72,304,o),
(238.72,333,cs),
(237.72,346,o),
(247.72,358,o),
(260.72,359,cs),
(273.72,360,o),
(285.72,351,o),
(287.72,338,cs),
(289.72,317,o),
(297.72,301,o),
(307.72,289,cs),
(340.72,249,o),
(404.72,250,o),
(439.72,259,cs),
(526.72,283,o),
(570.72,390,o),
(557.72,472,cs),
(554.72,491,o),
(538.72,561,o),
(472.72,599,cs),
(403.72,640,o),
(328.72,623,o),
(307.72,615,c),
(217.72,588,o),
(136.72,491,o),
(100.72,366,cs),
(71.72,263,o),
(81.72,167,o),
(130.72,112,cs),
(186.72,50,o),
(284.72,43,o),
(289.72,43,cs),
(378.72,43,o),
(444.72,79,o),
(469.72,99,cs),
(479.72,106,o),
(495.72,105,o),
(502.72,95,cs),
(511.72,84,o),
(509.72,68,o),
(499.72,60,cs)
);
},
{
closed = 1;
nodes = (
(393,753,o),
(400,727,o),
(421,727,cs),
(442,727,o),
(468,753,o),
(479,786,cs),
(490,819,o),
(481,845,o),
(460,845,cs),
(439,845,o),
(415,819,o),
(404,786,cs)
);
}
);
width = 643;
}
);
note = Cdotaccent;
unicode = 266;
},
{
glyphname = D;
lastChange = "2025-11-12 14:19:19 +0000";
layers = (
{
guides = (
{
angle = 90;
pos = (734.86,525);
},
{
angle = 90;
pos = (82.86,685);
}
);
layerId = "21C22D19-092A-479F-91CA-8C525B8909B6";
shapes = (
{
closed = 1;
nodes = (
(259.677,-4.749,o),
(385.668,-11.827,o),
(479.86,18,cs),
(510.86,28,o),
(588.86,58,o),
(653.86,137,cs),
(690.86,181,o),
(750.86,273,o),
(736.86,397,cs),
(721.86,522,o),
(657.86,590,o),
(608.86,623,cs),
(529.86,677,o),
(428.86,688,o),
(321.86,657,cs),
(292.86,648,o),
(202.86,620,o),
(142.86,531,cs),
(95.86,460,o),
(82.86,383,o),
(103.86,315,cs),
(114.86,284,o),
(129.86,257,o),
(151.86,231,cs),
(160.86,221,o),
(177.86,220,o),
(186.86,229,cs),
(196.86,239,o),
(196.86,255,o),
(188.86,264,cs),
(170.86,284,o),
(157.86,306,o),
(149.86,330,cs),
(132.86,384,o),
(145.86,446,o),
(183.86,504,cs),
(232.86,578,o),
(310.86,603,o),
(336.86,610,cs),
(427.86,637,o),
(515.86,627,o),
(580.86,584,cs),
(622.86,555,o),
(674.86,498,o),
(686.86,391,cs),
(697.86,286,o),
(647.86,206,o),
(616.86,168,cs),
(558.86,97,o),
(485.86,70,o),
(464.86,64,cs),
(410.86,48,o),
(341.86,45,o),
(278.86,45,cs),
(261.86,45,o),
(252.86,61,o),
(257.86,75,cs),
(278.684,130.531,o),
(373.681,431.548,o),
(391.86,488,cs),
(402.86,521,o),
(402.86,544,o),
(389.86,557,cs),
(360.049,589.196,o),
(309.797,567.281,o),
(279.86,551,cs),
(266.988,544,o),
(260.86,530,o),
(266.86,517,cs),
(272.86,505,o),
(288.86,500,o),
(300.86,506,c),
(312.077,509.739,o),
(338.783,529.153,o),
(345.86,515,c),
(347.86,508,o),
(342.86,494,o),
(340.86,489,cs),
(301.86,369,o),
(229.86,143,o),
(218.86,110,cs),
(206.86,74,o),
(187.86,54,o),
(161.86,48,cs),
(143.86,44,o),
(123.86,57,o),
(112.86,64,cs),
(100.86,72,o),
(85.86,69,o),
(77.86,59,cs),
(68.86,48,o),
(71.86,33,o),
(82.86,25,cs),
(105.86,6,o),
(152.865,-2.52,o),
(175.86,-3,cs)
);
}
);
userData = {
assembly = "PUSHW[ ]	/* 4 values pushed */
84 3 95 4 
CALL[ ]	/* CallFunction */
PUSHW[ ]	/* 4 values pushed */
5 3 71 4 
CALL[ ]	/* CallFunction */
PUSHW[ ]	/* 4 values pushed */
48 4 36 4 
CALL[ ]	/* CallFunction */
NPUSHW[ ]	/* 27 values pushed */
6 48 22 48 38 48 54 48 70 48 86 48 102 48 118 48 134 48 150 48 166 48 182 48 198 48 13 
DELTAP1[ ]	/* DeltaExceptionP1 */
NPUSHW[ ]	/* 5 values pushed */
213 48 229 48 2 
DELTAP1[ ]	/* DeltaExceptionP1 */
NPUSHW[ ]	/* 5 values pushed */
218 71 234 71 2 
DELTAP1[ ]	/* DeltaExceptionP1 */
NPUSHW[ ]	/* 27 values pushed */
9 71 25 71 41 71 57 71 73 71 89 71 105 71 121 71 137 71 153 71 169 71 185 71 201 71 13 
DELTAP1[ ]	/* DeltaExceptionP1 */
NPUSHW[ ]	/* 27 values pushed */
6 84 22 84 38 84 54 84 70 84 86 84 102 84 118 84 134 84 150 84 166 84 182 84 198 84 13 
DELTAP1[ ]	/* DeltaExceptionP1 */
NPUSHW[ ]	/* 5 values pushed */
213 84 229 84 2 
DELTAP1[ ]	/* DeltaExceptionP1 */
PUSHW[ ]	/* 1 value pushed */
95 
SRP0[ ]	/* SetRefPoint0 */
PUSHW[ ]	/* 2 values pushed */
87 4 
MIRP[10100]	/* MoveIndirectRelPt */
PUSHW[ ]	/* 1 value pushed */
5 
SRP0[ ]	/* SetRefPoint0 */
PUSHW[ ]	/* 1 value pushed */
104 
MDRP[11100]	/* MoveDirectRelPt */
SVTCA[0]	/* SetFreedomAndProjectionVectorToAxis */
PUSHW[ ]	/* 1 value pushed */
0 
RCVT[ ]	/* ReadCVT */
IF[ ]	/* If */
PUSHW[ ]	/* 1 value pushed */
0 
MDAP[1]	/* MoveDirectAbsPt */
ELSE[ ]	/* Else */
PUSHW[ ]	/* 2 values pushed */
0 12 
MIAP[0]	/* MoveIndirectAbsPt */
EIF[ ]	/* EndIf */
PUSHW[ ]	/* 1 value pushed */
0 
RCVT[ ]	/* ReadCVT */
IF[ ]	/* If */
PUSHW[ ]	/* 1 value pushed */
13 
MDAP[1]	/* MoveDirectAbsPt */
ELSE[ ]	/* Else */
PUSHW[ ]	/* 2 values pushed */
13 6 
MIAP[0]	/* MoveIndirectAbsPt */
EIF[ ]	/* EndIf */
PUSHW[ ]	/* 2 values pushed */
23 2 
MIRP[10100]	/* MoveIndirectRelPt */
NPUSHW[ ]	/* 33 values pushed */
7 23 23 23 39 23 55 23 71 23 87 23 103 23 119 23 135 23 151 23 167 23 183 23 199 23 215 23 231 23 247 23 16 
DELTAP1[ ]	/* DeltaExceptionP1 */
NPUSHW[ ]	/* 9 values pushed */
7 23 23 23 39 23 55 23 4 
DELTAP2[ ]	/* DeltaExceptionP2 */
NPUSHW[ ]	/* 5 values pushed */
70 23 86 23 2 
DELTAP2[ ]	/* DeltaExceptionP2 */
PUSHW[ ]	/* 1 value pushed */
61 
MDRP[10000]	/* MoveDirectRelPt */
PUSHW[ ]	/* 1 value pushed */
0 
SRP0[ ]	/* SetRefPoint0 */
PUSHW[ ]	/* 2 values pushed */
76 2 
MIRP[10100]	/* MoveIndirectRelPt */
NPUSHW[ ]	/* 5 values pushed */
73 76 89 76 2 
DELTAP2[ ]	/* DeltaExceptionP2 */
NPUSHW[ ]	/* 33 values pushed */
8 76 24 76 40 76 56 76 72 76 88 76 104 76 120 76 136 76 152 76 168 76 184 76 200 76 216 76 232 76 248 76 16 
DELTAP1[ ]	/* DeltaExceptionP1 */
NPUSHW[ ]	/* 9 values pushed */
8 76 24 76 40 76 56 76 4 
DELTAP2[ ]	/* DeltaExceptionP2 */
IUP[0]	/* InterpolateUntPts */
IUP[1]	/* InterpolateUntPts */";
};
width = 763.09;
}
);
note = D;
unicode = 68;
},
{
glyphname = Eth;
lastChange = "2025-11-12 14:19:19 +0000";
layers = (
{
layerId = "21C22D19-092A-479F-91CA-8C525B8909B6";
shapes = (
{
closed = 1;
nodes = (
(338,0,o),
(411.035,2.89,o),
(471,22,cs),
(502.035,31.89,o),
(579.696,62.251,o),
(645,141,cs),
(681.697,185.253,o),
(742.436,277.05,o),
(728,401,cs),
(713.436,526.052,o),
(648.859,593.791,o),
(600,627,cs),
(520.858,680.792,o),
(419.873,692.433,o),
(313,661,cs),
(283.869,652.432,o),
(193.668,624.223,o),
(134,535,cs),
(86.667,464.222,o),
(73.111,386.719,o),
(95,319,cs),
(105.117,287.701,o),
(120.776,260.809,o),
(143,235,cs),
(151.779,224.805,o),
(169,224,o),
(178,233,cs),
(188,243,o),
(188.038,259.034,o),
(180,268,cs),
(162.038,288.034,o),
(148.721,309.909,o),
(141,334,cs),
(123.721,387.911,o),
(136.841,450.104,o),
(175,508,cs),
(223.842,582.105,o),
(302.144,606.486,o),
(328,614,cs),
(419.15,640.488,o),
(507.34,631.51,o),
(572,588,cs),
(614.345,559.506,o),
(666.387,502.043,o),
(678,395,cs),
(689.387,290.041,o),
(639.017,209.987,o),
(608,172,cs),
(550.017,100.987,o),
(476.957,74.147,o),
(456,68,cs),
(401.957,52.147,o),
(333,49,o),
(270,49,cs),
(253,49,o),
(243.92,65.029,o),
(249,79,cs),
(251.92,87.03,o),
(253.494,93.165,o),
(256,100,cs),
(264.502,123.189,o),
(308,259,o),
(346,376,cs),
(347.663,381.122,o),
(352,384,o),
(356,384,cs),
(425,384,ls),
(435,384,o),
(443,395,o),
(443,406,cs),
(443,418,o),
(435,428,o),
(425,428,cs),
(377,428,ls),
(370,428,o),
(364.781,435.066,o),
(367,442,cs),
(372.783,460.071,o),
(378,477,o),
(383,492,cs),
(394,525,o),
(393.491,547.51,o),
(381,561,cs),
(351.053,593.343,o),
(302.975,571.71,o),
(271,555,cs),
(256,547.161,o),
(251.804,533.908,o),
(258,521,cs),
(263.806,508.905,o),
(279.842,504.326,o),
(292,510,cs),
(294.866,511.337,o),
(305.973,516.581,o),
(316,522,cs),
(326.206,527.516,o),
(334.472,523.981,o),
(336,519.778,cs),
(338.488,512.936,o),
(333.84,498.061,o),
(332,493,cs),
(325.839,476.058,o),
(320,456,o),
(313,435,cs),
(311.696,431.088,o),
(308,428,o),
(303,428,cs),
(196,428,ls),
(185,428,o),
(177,418,o),
(177,406,cs),
(177,394,o),
(187,384,o),
(199,384,cs),
(282,384,ls),
(289,384,o),
(294.29,377.263,o),
(292,370,cs),
(257,259,o),
(217.818,137.063,o),
(210,114,cs),
(197.817,78.061,o),
(179.02,57.914,o),
(153,52,cs),
(135.019,47.914,o),
(114.921,60.878,o),
(104,68,cs),
(91.92,75.878,o),
(77.058,72.954,o),
(69,63,cs),
(60.057,51.953,o),
(63.349,37.459,o),
(74,29,cs),
(97.362,10.447,o),
(122,1,o),
(145,1,cs),
(222.4,1,o),
(224.4,0,o),
(273,0,cs)
);
}
);
userData = {
assembly = "PUSHW[ ]	/* 4 values pushed */
119 3 130 4 
CALL[ ]	/* CallFunction */
PUSHW[ ]	/* 4 values pushed */
5 3 106 4 
CALL[ ]	/* CallFunction */
PUSHW[ ]	/* 3 values pushed */
37 130 5 
SRP1[ ]	/* SetRefPoint1 */
SRP2[ ]	/* SetRefPoint2 */
IP[ ]	/* InterpolatePts */
PUSHW[ ]	/* 3 values pushed */
68 130 5 
SRP1[ ]	/* SetRefPoint1 */
SRP2[ ]	/* SetRefPoint2 */
IP[ ]	/* InterpolatePts */
NPUSHW[ ]	/* 5 values pushed */
218 106 234 106 2 
DELTAP1[ ]	/* DeltaExceptionP1 */
NPUSHW[ ]	/* 27 values pushed */
9 106 25 106 41 106 57 106 73 106 89 106 105 106 121 106 137 106 153 106 169 106 185 106 201 106 13 
DELTAP1[ ]	/* DeltaExceptionP1 */
NPUSHW[ ]	/* 27 values pushed */
6 119 22 119 38 119 54 119 70 119 86 119 102 119 118 119 134 119 150 119 166 119 182 119 198 119 13 
DELTAP1[ ]	/* DeltaExceptionP1 */
NPUSHW[ ]	/* 5 values pushed */
213 119 229 119 2 
DELTAP1[ ]	/* DeltaExceptionP1 */
PUSHW[ ]	/* 1 value pushed */
130 
SRP0[ ]	/* SetRefPoint0 */
PUSHW[ ]	/* 2 values pushed */
122 4 
MIRP[10100]	/* MoveIndirectRelPt */
PUSHW[ ]	/* 1 value pushed */
5 
SRP0[ ]	/* SetRefPoint0 */
PUSHW[ ]	/* 1 value pushed */
142 
MDRP[11100]	/* MoveDirectRelPt */
SVTCA[0]	/* SetFreedomAndProjectionVectorToAxis */
PUSHW[ ]	/* 1 value pushed */
0 
RCVT[ ]	/* ReadCVT */
IF[ ]	/* If */
PUSHW[ ]	/* 1 value pushed */
0 
MDAP[1]	/* MoveDirectAbsPt */
ELSE[ ]	/* Else */
PUSHW[ ]	/* 2 values pushed */
0 12 
MIAP[0]	/* MoveIndirectAbsPt */
EIF[ ]	/* EndIf */
PUSHW[ ]	/* 1 value pushed */
0 
RCVT[ ]	/* ReadCVT */
IF[ ]	/* If */
PUSHW[ ]	/* 1 value pushed */
16 
MDAP[1]	/* MoveDirectAbsPt */
ELSE[ ]	/* Else */
PUSHW[ ]	/* 2 values pushed */
16 6 
MIAP[0]	/* MoveIndirectAbsPt */
EIF[ ]	/* EndIf */
PUSHW[ ]	/* 4 values pushed */
71 2 82 4 
CALL[ ]	/* CallFunction */
PUSHW[ ]	/* 1 value pushed */
16 
SRP0[ ]	/* SetRefPoint0 */
PUSHW[ ]	/* 2 values pushed */
26 2 
MIRP[10100]	/* MoveIndirectRelPt */
NPUSHW[ ]	/* 33 values pushed */
7 26 23 26 39 26 55 26 71 26 87 26 103 26 119 26 135 26 151 26 167 26 183 26 199 26 215 26 231 26 247 26 16 
DELTAP1[ ]	/* DeltaExceptionP1 */
NPUSHW[ ]	/* 9 values pushed */
7 26 23 26 39 26 55 26 4 
DELTAP2[ ]	/* DeltaExceptionP2 */
NPUSHW[ ]	/* 5 values pushed */
70 26 86 26 2 
DELTAP2[ ]	/* DeltaExceptionP2 */
PUSHW[ ]	/* 1 value pushed */
82 
SRP0[ ]	/* SetRefPoint0 */
PUSHW[ ]	/* 1 value pushed */
37 
MDRP[10000]	/* MoveDirectRelPt */
PUSHW[ ]	/* 1 value pushed */
37 
MDAP[1]	/* MoveDirectAbsPt */
PUSHW[ ]	/* 1 value pushed */
71 
SRP0[ ]	/* SetRefPoint0 */
PUSHW[ ]	/* 1 value pushed */
48 
MDRP[10000]	/* MoveDirectRelPt */
PUSHW[ ]	/* 1 value pushed */
48 
MDAP[1]	/* MoveDirectAbsPt */
PUSHW[ ]	/* 1 value pushed */
82 
SRP0[ ]	/* SetRefPoint0 */
PUSHW[ ]	/* 1 value pushed */
60 
MDRP[11100]	/* MoveDirectRelPt */
PUSHW[ ]	/* 1 value pushed */
71 
SRP0[ ]	/* SetRefPoint0 */
PUSHW[ ]	/* 1 value pushed */
68 
MDRP[10000]	/* MoveDirectRelPt */
PUSHW[ ]	/* 1 value pushed */
68 
MDAP[1]	/* MoveDirectAbsPt */
PUSHW[ ]	/* 1 value pushed */
82 
SRP0[ ]	/* SetRefPoint0 */
PUSHW[ ]	/* 1 value pushed */
85 
MDRP[10000]	/* MoveDirectRelPt */
PUSHW[ ]	/* 1 value pushed */
85 
MDAP[1]	/* MoveDirectAbsPt */
PUSHW[ ]	/* 1 value pushed */
26 
SRP0[ ]	/* SetRefPoint0 */
PUSHW[ ]	/* 1 value pushed */
96 
MDRP[10000]	/* MoveDirectRelPt */
PUSHW[ ]	/* 1 value pushed */
0 
SRP0[ ]	/* SetRefPoint0 */
PUSHW[ ]	/* 2 values pushed */
111 2 
MIRP[10100]	/* MoveIndirectRelPt */
NPUSHW[ ]	/* 5 values pushed */
73 111 89 111 2 
DELTAP2[ ]	/* DeltaExceptionP2 */
NPUSHW[ ]	/* 33 values pushed */
8 111 24 111 40 111 56 111 72 111 88 111 104 111 120 111 136 111 152 111 168 111 184 111 200 111 216 111 232 111 248 111 16 
DELTAP1[ ]	/* DeltaExceptionP1 */
NPUSHW[ ]	/* 9 values pushed */
8 111 24 111 40 111 56 111 4 
DELTAP2[ ]	/* DeltaExceptionP2 */
IUP[0]	/* InterpolateUntPts */
IUP[1]	/* InterpolateUntPts */";
};
width = 782;
}
);
note = Eth;
unicode = 208;
},
{
glyphname = Dcaron;
lastChange = "2025-11-12 14:19:19 +0000";
layers = (
{
layerId = "21C22D19-092A-479F-91CA-8C525B8909B6";
shapes = (
{
closed = 1;
nodes = (
(259.677,-4.749,o),
(385.668,-11.827,o),
(479.86,18,cs),
(510.86,28,o),
(588.86,58,o),
(653.86,137,cs),
(690.86,181,o),
(750.86,273,o),
(736.86,397,cs),
(721.86,522,o),
(657.86,590,o),
(608.86,623,cs),
(529.86,677,o),
(428.86,688,o),
(321.86,657,cs),
(292.86,648,o),
(202.86,620,o),
(142.86,531,cs),
(95.86,460,o),
(82.86,383,o),
(103.86,315,cs),
(114.86,284,o),
(129.86,257,o),
(151.86,231,cs),
(160.86,221,o),
(177.86,220,o),
(186.86,229,cs),
(196.86,239,o),
(196.86,255,o),
(188.86,264,cs),
(170.86,284,o),
(157.86,306,o),
(149.86,330,cs),
(132.86,384,o),
(145.86,446,o),
(183.86,504,cs),
(232.86,578,o),
(310.86,603,o),
(336.86,610,cs),
(427.86,637,o),
(515.86,627,o),
(580.86,584,cs),
(622.86,555,o),
(674.86,498,o),
(686.86,391,cs),
(697.86,286,o),
(647.86,206,o),
(616.86,168,cs),
(558.86,97,o),
(485.86,70,o),
(464.86,64,cs),
(410.86,48,o),
(341.86,45,o),
(278.86,45,cs),
(261.86,45,o),
(252.86,61,o),
(257.86,75,cs),
(278.684,130.531,o),
(373.681,431.548,o),
(391.86,488,cs),
(402.86,521,o),
(402.86,544,o),
(389.86,557,cs),
(360.049,589.196,o),
(309.797,567.281,o),
(279.86,551,cs),
(266.988,544,o),
(260.86,530,o),
(266.86,517,cs),
(272.86,505,o),
(288.86,500,o),
(300.86,506,c),
(312.077,509.739,o),
(338.783,529.153,o),
(345.86,515,c),
(347.86,508,o),
(342.86,494,o),
(340.86,489,cs),
(301.86,369,o),
(229.86,143,o),
(218.86,110,cs),
(206.86,74,o),
(187.86,54,o),
(161.86,48,cs),
(143.86,44,o),
(123.86,57,o),
(112.86,64,cs),
(100.86,72,o),
(85.86,69,o),
(77.86,59,cs),
(68.86,48,o),
(71.86,33,o),
(82.86,25,cs),
(105.86,6,o),
(152.865,-2.52,o),
(175.86,-3,cs)
);
},
{
closed = 1;
nodes = (
(482,724,ls),
(489.413,712.397,o),
(508.089,708.667,o),
(520,719,cs),
(603,791,ls),
(612.674,799.392,o),
(612.971,813.974,o),
(604,824,cs),
(595.971,832.974,o),
(580.26,834.93,o),
(570,826,cs),
(516,779,ls),
(511.733,775.286,o),
(505.178,776.111,o),
(502,781,cs),
(476,821,ls),
(468.987,831.789,o),
(453.339,834.085,o),
(442,828,cs),
(431.245,822.228,o),
(428.677,807.462,o),
(436,796,cs)
);
}
);
width = 782;
}
);
note = Dcaron;
unicode = 270;
},
{
glyphname = Dcroat;
lastChange = "2025-11-12 14:19:19 +0000";
layers = (
{
layerId = "21C22D19-092A-479F-91CA-8C525B8909B6";
shapes = (
{
closed = 1;
nodes = (
(338,0,o),
(411.035,2.89,o),
(471,22,cs),
(502.035,31.89,o),
(579.696,62.251,o),
(645,141,cs),
(681.697,185.253,o),
(742.436,277.05,o),
(728,401,cs),
(713.436,526.052,o),
(648.859,593.791,o),
(600,627,cs),
(520.858,680.792,o),
(419.873,692.433,o),
(313,661,cs),
(283.869,652.432,o),
(193.668,624.223,o),
(134,535,cs),
(86.667,464.222,o),
(73.111,386.719,o),
(95,319,cs),
(105.117,287.701,o),
(120.776,260.809,o),
(143,235,cs),
(151.779,224.805,o),
(169,224,o),
(178,233,cs),
(188,243,o),
(188.038,259.034,o),
(180,268,cs),
(162.038,288.034,o),
(148.721,309.909,o),
(141,334,cs),
(123.721,387.911,o),
(136.841,450.104,o),
(175,508,cs),
(223.842,582.105,o),
(302.144,606.486,o),
(328,614,cs),
(419.15,640.488,o),
(507.34,631.51,o),
(572,588,cs),
(614.345,559.506,o),
(666.387,502.043,o),
(678,395,cs),
(689.387,290.041,o),
(639.017,209.987,o),
(608,172,cs),
(550.017,100.987,o),
(476.957,74.147,o),
(456,68,cs),
(401.957,52.147,o),
(333,49,o),
(270,49,cs),
(253,49,o),
(243.92,65.029,o),
(249,79,cs),
(251.92,87.03,o),
(253.494,93.165,o),
(256,100,cs),
(264.502,123.189,o),
(308,259,o),
(346,376,cs),
(347.663,381.122,o),
(352,384,o),
(356,384,cs),
(425,384,ls),
(435,384,o),
(443,395,o),
(443,406,cs),
(443,418,o),
(435,428,o),
(425,428,cs),
(377,428,ls),
(370,428,o),
(364.781,435.066,o),
(367,442,cs),
(372.783,460.071,o),
(378,477,o),
(383,492,cs),
(394,525,o),
(393.491,547.51,o),
(381,561,cs),
(351.053,593.343,o),
(302.975,571.71,o),
(271,555,cs),
(256,547.161,o),
(251.804,533.908,o),
(258,521,cs),
(263.806,508.905,o),
(279.842,504.326,o),
(292,510,cs),
(294.866,511.337,o),
(305.973,516.581,o),
(316,522,cs),
(326.206,527.516,o),
(334.472,523.981,o),
(336,519.778,cs),
(338.488,512.936,o),
(333.84,498.061,o),
(332,493,cs),
(325.839,476.058,o),
(320,456,o),
(313,435,cs),
(311.696,431.088,o),
(308,428,o),
(303,428,cs),
(196,428,ls),
(185,428,o),
(177,418,o),
(177,406,cs),
(177,394,o),
(187,384,o),
(199,384,cs),
(282,384,ls),
(289,384,o),
(294.29,377.263,o),
(292,370,cs),
(257,259,o),
(217.818,137.063,o),
(210,114,cs),
(197.817,78.061,o),
(179.02,57.914,o),
(153,52,cs),
(135.019,47.914,o),
(114.921,60.878,o),
(104,68,cs),
(91.92,75.878,o),
(77.058,72.954,o),
(69,63,cs),
(60.057,51.953,o),
(63.349,37.459,o),
(74,29,cs),
(97.362,10.447,o),
(122,1,o),
(145,1,cs),
(222.4,1,o),
(224.4,0,o),
(273,0,cs)
);
}
);
userData = {
assembly = "PUSHW[ ]	/* 4 values pushed */
111 3 122 4 
CALL[ ]	/* CallFunction */
PUSHW[ ]	/* 4 values pushed */
5 3 98 4 
CALL[ ]	/* CallFunction */
PUSHW[ ]	/* 3 values pushed */
34 122 5 
SRP1[ ]	/* SetRefPoint1 */
SRP2[ ]	/* SetRefPoint2 */
IP[ ]	/* InterpolatePts */
PUSHW[ ]	/* 3 values pushed */
65 122 5 
SRP1[ ]	/* SetRefPoint1 */
SRP2[ ]	/* SetRefPoint2 */
IP[ ]	/* InterpolatePts */
NPUSHW[ ]	/* 5 values pushed */
218 98 234 98 2 
DELTAP1[ ]	/* DeltaExceptionP1 */
NPUSHW[ ]	/* 27 values pushed */
9 98 25 98 41 98 57 98 73 98 89 98 105 98 121 98 137 98 153 98 169 98 185 98 201 98 13 
DELTAP1[ ]	/* DeltaExceptionP1 */
NPUSHW[ ]	/* 27 values pushed */
6 111 22 111 38 111 54 111 70 111 86 111 102 111 118 111 134 111 150 111 166 111 182 111 198 111 13 
DELTAP1[ ]	/* DeltaExceptionP1 */
NPUSHW[ ]	/* 5 values pushed */
213 111 229 111 2 
DELTAP1[ ]	/* DeltaExceptionP1 */
PUSHW[ ]	/* 1 value pushed */
122 
SRP0[ ]	/* SetRefPoint0 */
PUSHW[ ]	/* 2 values pushed */
114 4 
MIRP[10100]	/* MoveIndirectRelPt */
PUSHW[ ]	/* 1 value pushed */
5 
SRP0[ ]	/* SetRefPoint0 */
PUSHW[ ]	/* 1 value pushed */
131 
MDRP[11100]	/* MoveDirectRelPt */
SVTCA[0]	/* SetFreedomAndProjectionVectorToAxis */
PUSHW[ ]	/* 1 value pushed */
0 
RCVT[ ]	/* ReadCVT */
IF[ ]	/* If */
PUSHW[ ]	/* 1 value pushed */
0 
MDAP[1]	/* MoveDirectAbsPt */
ELSE[ ]	/* Else */
PUSHW[ ]	/* 2 values pushed */
0 12 
MIAP[0]	/* MoveIndirectAbsPt */
EIF[ ]	/* EndIf */
PUSHW[ ]	/* 1 value pushed */
0 
RCVT[ ]	/* ReadCVT */
IF[ ]	/* If */
PUSHW[ ]	/* 1 value pushed */
13 
MDAP[1]	/* MoveDirectAbsPt */
ELSE[ ]	/* Else */
PUSHW[ ]	/* 2 values pushed */
13 6 
MIAP[0]	/* MoveIndirectAbsPt */
EIF[ ]	/* EndIf */
PUSHW[ ]	/* 4 values pushed */
70 1 81 4 
CALL[ ]	/* CallFunction */
PUSHW[ ]	/* 1 value pushed */
13 
SRP0[ ]	/* SetRefPoint0 */
PUSHW[ ]	/* 2 values pushed */
23 2 
MIRP[10100]	/* MoveIndirectRelPt */
NPUSHW[ ]	/* 33 values pushed */
7 23 23 23 39 23 55 23 71 23 87 23 103 23 119 23 135 23 151 23 167 23 183 23 199 23 215 23 231 23 247 23 16 
DELTAP1[ ]	/* DeltaExceptionP1 */
NPUSHW[ ]	/* 9 values pushed */
7 23 23 23 39 23 55 23 4 
DELTAP2[ ]	/* DeltaExceptionP2 */
NPUSHW[ ]	/* 5 values pushed */
70 23 86 23 2 
DELTAP2[ ]	/* DeltaExceptionP2 */
PUSHW[ ]	/* 1 value pushed */
81 
SRP0[ ]	/* SetRefPoint0 */
PUSHW[ ]	/* 1 value pushed */
37 
MDRP[10000]	/* MoveDirectRelPt */
PUSHW[ ]	/* 1 value pushed */
37 
MDAP[1]	/* MoveDirectAbsPt */
PUSHW[ ]	/* 3 values pushed */
34 81 37 
SRP1[ ]	/* SetRefPoint1 */
SRP2[ ]	/* SetRefPoint2 */
IP[ ]	/* InterpolatePts */
PUSHW[ ]	/* 1 value pushed */
70 
SRP0[ ]	/* SetRefPoint0 */
PUSHW[ ]	/* 1 value pushed */
45 
MDRP[10000]	/* MoveDirectRelPt */
PUSHW[ ]	/* 1 value pushed */
45 
MDAP[1]	/* MoveDirectAbsPt */
PUSHW[ ]	/* 1 value pushed */
81 
SRP0[ ]	/* SetRefPoint0 */
PUSHW[ ]	/* 1 value pushed */
56 
MDRP[11100]	/* MoveDirectRelPt */
PUSHW[ ]	/* 1 value pushed */
70 
SRP0[ ]	/* SetRefPoint0 */
PUSHW[ ]	/* 1 value pushed */
65 
MDRP[10000]	/* MoveDirectRelPt */
PUSHW[ ]	/* 1 value pushed */
65 
MDAP[1]	/* MoveDirectAbsPt */
PUSHW[ ]	/* 1 value pushed */
81 
SRP0[ ]	/* SetRefPoint0 */
PUSHW[ ]	/* 1 value pushed */
78 
MDRP[10000]	/* MoveDirectRelPt */
PUSHW[ ]	/* 1 value pushed */
78 
MDAP[1]	/* MoveDirectAbsPt */
PUSHW[ ]	/* 1 value pushed */
23 
SRP0[ ]	/* SetRefPoint0 */
PUSHW[ ]	/* 1 value pushed */
88 
MDRP[10000]	/* MoveDirectRelPt */
PUSHW[ ]	/* 1 value pushed */
0 
SRP0[ ]	/* SetRefPoint0 */
PUSHW[ ]	/* 2 values pushed */
103 2 
MIRP[10100]	/* MoveIndirectRelPt */
NPUSHW[ ]	/* 5 values pushed */
73 103 89 103 2 
DELTAP2[ ]	/* DeltaExceptionP2 */
NPUSHW[ ]	/* 33 values pushed */
8 103 24 103 40 103 56 103 72 103 88 103 104 103 120 103 136 103 152 103 168 103 184 103 200 103 216 103 232 103 248 103 16 
DELTAP1[ ]	/* DeltaExceptionP1 */
NPUSHW[ ]	/* 9 values pushed */
8 103 24 103 40 103 56 103 4 
DELTAP2[ ]	/* DeltaExceptionP2 */
IUP[0]	/* InterpolateUntPts */
IUP[1]	/* InterpolateUntPts */";
};
width = 782;
}
);
note = Dcroat;
unicode = 272;
},
{
glyphname = E;
lastChange = "2025-11-12 14:19:19 +0000";
layers = (
{
guides = (
{
angle = 90;
pos = (51.29,347);
},
{
angle = 90;
pos = (616.29,307);
}
);
layerId = "21C22D19-092A-479F-91CA-8C525B8909B6";
shapes = (
{
closed = 1;
nodes = (
(357.29,-6,o),
(447.29,5,o),
(510.29,80,cs),
(559.29,135,o),
(569.29,198,o),
(570.29,233,cs),
(571.29,246,o),
(560.29,258,o),
(546.29,258,cs),
(532.29,258,o),
(521.29,248,o),
(520.29,235,cs),
(518.29,207,o),
(511.29,157,o),
(473.29,112,cs),
(416.29,44,o),
(331.29,41,o),
(297.29,43,cs),
(227.29,47,o),
(170.29,76,o),
(135.29,123,cs),
(76.309,203.758,o),
(97.683,323.068,o),
(174.29,394,cs),
(179.29,398,o),
(185.923,397.446,o),
(189.29,392,cs),
(223.29,337,o),
(279.29,320,o),
(302.29,314,cs),
(319.29,311,o),
(370.29,301,o),
(417.29,329,c),
(492.159,380.226,o),
(473.9,443.234,o),
(414.29,479,cs),
(366.29,511,o),
(297.29,510,o),
(220.29,478,cs),
(211.849,475.186,o),
(210.29,475.103,o),
(210.29,484,cs),
(210.29,495,o),
(211.29,506,o),
(214.29,517,cs),
(229.29,575,o),
(282.29,599,o),
(301.29,608,cs),
(382.29,648,o),
(467.29,611,o),
(483.29,603,cs),
(527.29,582,o),
(557.29,551,o),
(572.29,527,cs),
(579.29,516,o),
(595.29,513,o),
(606.29,521,cs),
(618.29,528,o),
(620.29,545,o),
(613.29,556,cs),
(584.29,596,o),
(547.29,627,o),
(504.29,648,cs),
(477.29,661,o),
(378.29,701,o),
(279.29,652,cs),
(257.29,642,o),
(187.29,608,o),
(167.29,532,cs),
(160.29,504,o),
(160.29,479,o),
(164.29,458,cs),
(165.29,452,o),
(162.8,446.414,o),
(158.29,443,cs),
(51.29,362,o),
(14.958,203.452,o),
(95.29,94,cs),
(148.515,18.495,o),
(234.911,-6,o),
(311.29,-6,cs)
);
},
{
closed = 1;
nodes = (
(227.031,422.964,o),
(229.515,429.09,o),
(239.29,433,cs),
(301.29,459,o),
(354.29,460,o),
(387.29,439,cs),
(423.925,415.862,o),
(427.849,392.262,o),
(391.294,369,cs),
(363.294,351,o),
(327.085,358.885,o),
(313.29,362,cs),
(296.005,365.903,o),
(254.124,385.023,o),
(231.29,417,cs)
);
}
);
userData = {
assembly = "PUSHW[ ]	/* 1 value pushed */
101 
MDAP[1]	/* MoveDirectAbsPt */
PUSHW[ ]	/* 1 value pushed */
91 
MDAP[1]	/* MoveDirectAbsPt */
PUSHW[ ]	/* 1 value pushed */
101 
SRP0[ ]	/* SetRefPoint0 */
PUSHW[ ]	/* 1 value pushed */
30 
MDRP[10000]	/* MoveDirectRelPt */
PUSHW[ ]	/* 1 value pushed */
30 
MDAP[1]	/* MoveDirectAbsPt */
PUSHW[ ]	/* 2 values pushed */
5 3 
MIRP[10100]	/* MoveIndirectRelPt */
NPUSHW[ ]	/* 27 values pushed */
6 5 22 5 38 5 54 5 70 5 86 5 102 5 118 5 134 5 150 5 166 5 182 5 198 5 13 
DELTAP1[ ]	/* DeltaExceptionP1 */
NPUSHW[ ]	/* 5 values pushed */
213 5 229 5 2 
DELTAP1[ ]	/* DeltaExceptionP1 */
NPUSHW[ ]	/* 5 values pushed */
218 91 234 91 2 
DELTAP1[ ]	/* DeltaExceptionP1 */
NPUSHW[ ]	/* 27 values pushed */
9 91 25 91 41 91 57 91 73 91 89 91 105 91 121 91 137 91 153 91 169 91 185 91 201 91 13 
DELTAP1[ ]	/* DeltaExceptionP1 */
PUSHW[ ]	/* 1 value pushed */
91 
SRP0[ ]	/* SetRefPoint0 */
PUSHW[ ]	/* 2 values pushed */
73 3 
MIRP[10100]	/* MoveIndirectRelPt */
PUSHW[ ]	/* 3 values pushed */
63 30 73 
SRP1[ ]	/* SetRefPoint1 */
SRP2[ ]	/* SetRefPoint2 */
IP[ ]	/* InterpolatePts */
PUSHW[ ]	/* 1 value pushed */
102 
MDRP[11100]	/* MoveDirectRelPt */
SVTCA[0]	/* SetFreedomAndProjectionVectorToAxis */
PUSHW[ ]	/* 1 value pushed */
0 
RCVT[ ]	/* ReadCVT */
IF[ ]	/* If */
PUSHW[ ]	/* 1 value pushed */
45 
MDAP[1]	/* MoveDirectAbsPt */
ELSE[ ]	/* Else */
PUSHW[ ]	/* 2 values pushed */
45 12 
MIAP[0]	/* MoveIndirectAbsPt */
EIF[ ]	/* EndIf */
PUSHW[ ]	/* 1 value pushed */
0 
RCVT[ ]	/* ReadCVT */
IF[ ]	/* If */
PUSHW[ ]	/* 1 value pushed */
68 
MDAP[1]	/* MoveDirectAbsPt */
ELSE[ ]	/* Else */
PUSHW[ ]	/* 2 values pushed */
68 10 
MIAP[0]	/* MoveIndirectAbsPt */
EIF[ ]	/* EndIf */
PUSHW[ ]	/* 1 value pushed */
0 
RCVT[ ]	/* ReadCVT */
IF[ ]	/* If */
PUSHW[ ]	/* 1 value pushed */
25 
MDAP[1]	/* MoveDirectAbsPt */
ELSE[ ]	/* Else */
PUSHW[ ]	/* 2 values pushed */
25 6 
MIAP[0]	/* MoveIndirectAbsPt */
EIF[ ]	/* EndIf */
PUSHW[ ]	/* 2 values pushed */
10 2 
MIRP[10100]	/* MoveIndirectRelPt */
NPUSHW[ ]	/* 33 values pushed */
7 10 23 10 39 10 55 10 71 10 87 10 103 10 119 10 135 10 151 10 167 10 183 10 199 10 215 10 231 10 247 10 16 
DELTAP1[ ]	/* DeltaExceptionP1 */
NPUSHW[ ]	/* 9 values pushed */
7 10 23 10 39 10 55 10 4 
DELTAP2[ ]	/* DeltaExceptionP2 */
NPUSHW[ ]	/* 5 values pushed */
70 10 86 10 2 
DELTAP2[ ]	/* DeltaExceptionP2 */
PUSHW[ ]	/* 1 value pushed */
45 
SRP0[ ]	/* SetRefPoint0 */
PUSHW[ ]	/* 1 value pushed */
53 
MDRP[11100]	/* MoveDirectRelPt */
NPUSHW[ ]	/* 5 values pushed */
217 53 233 53 2 
DELTAP1[ ]	/* DeltaExceptionP1 */
NPUSHW[ ]	/* 27 values pushed */
8 53 24 53 40 53 56 53 72 53 88 53 104 53 120 53 136 53 152 53 168 53 184 53 200 53 13 
DELTAP1[ ]	/* DeltaExceptionP1 */
PUSHW[ ]	/* 1 value pushed */
45 
SRP0[ ]	/* SetRefPoint0 */
PUSHW[ ]	/* 2 values pushed */
58 2 
MIRP[10100]	/* MoveIndirectRelPt */
NPUSHW[ ]	/* 5 values pushed */
73 58 89 58 2 
DELTAP2[ ]	/* DeltaExceptionP2 */
NPUSHW[ ]	/* 33 values pushed */
8 58 24 58 40 58 56 58 72 58 88 58 104 58 120 58 136 58 152 58 168 58 184 58 200 58 216 58 232 58 248 58 16 
DELTAP1[ ]	/* DeltaExceptionP1 */
NPUSHW[ ]	/* 9 values pushed */
8 58 24 58 40 58 56 58 4 
DELTAP2[ ]	/* DeltaExceptionP2 */
PUSHW[ ]	/* 1 value pushed */
68 
SRP0[ ]	/* SetRefPoint0 */
PUSHW[ ]	/* 1 value pushed */
78 
MDRP[11100]	/* MoveDirectRelPt */
NPUSHW[ ]	/* 5 values pushed */
217 78 233 78 2 
DELTAP1[ ]	/* DeltaExceptionP1 */
NPUSHW[ ]	/* 27 values pushed */
8 78 24 78 40 78 56 78 72 78 88 78 104 78 120 78 136 78 152 78 168 78 184 78 200 78 13 
DELTAP1[ ]	/* DeltaExceptionP1 */
PUSHW[ ]	/* 3 values pushed */
63 68 78 
SRP1[ ]	/* SetRefPoint1 */
SRP2[ ]	/* SetRefPoint2 */
IP[ ]	/* InterpolatePts */
PUSHW[ ]	/* 2 values pushed */
88 2 
MIRP[10100]	/* MoveIndirectRelPt */
IUP[0]	/* InterpolateUntPts */
IUP[1]	/* InterpolateUntPts */";
};
width = 610.95;
}
);
note = E;
unicode = 69;
},
{
glyphname = Eacute;
lastChange = "2025-11-12 14:19:19 +0000";
layers = (
{
layerId = "21C22D19-092A-479F-91CA-8C525B8909B6";
shapes = (
{
closed = 1;
nodes = (
(357.29,-6,o),
(447.29,5,o),
(510.29,80,cs),
(559.29,135,o),
(569.29,198,o),
(570.29,233,cs),
(571.29,246,o),
(560.29,258,o),
(546.29,258,cs),
(532.29,258,o),
(521.29,248,o),
(520.29,235,cs),
(518.29,207,o),
(511.29,157,o),
(473.29,112,cs),
(416.29,44,o),
(331.29,41,o),
(297.29,43,cs),
(227.29,47,o),
(170.29,76,o),
(135.29,123,cs),
(76.309,203.758,o),
(97.683,323.068,o),
(174.29,394,cs),
(179.29,398,o),
(185.923,397.446,o),
(189.29,392,cs),
(223.29,337,o),
(279.29,320,o),
(302.29,314,cs),
(319.29,311,o),
(370.29,301,o),
(417.29,329,c),
(492.159,380.226,o),
(473.9,443.234,o),
(414.29,479,cs),
(366.29,511,o),
(297.29,510,o),
(220.29,478,cs),
(211.849,475.186,o),
(210.29,475.103,o),
(210.29,484,cs),
(210.29,495,o),
(211.29,506,o),
(214.29,517,cs),
(229.29,575,o),
(282.29,599,o),
(301.29,608,cs),
(382.29,648,o),
(467.29,611,o),
(483.29,603,cs),
(527.29,582,o),
(557.29,551,o),
(572.29,527,cs),
(579.29,516,o),
(595.29,513,o),
(606.29,521,cs),
(618.29,528,o),
(620.29,545,o),
(613.29,556,cs),
(584.29,596,o),
(547.29,627,o),
(504.29,648,cs),
(477.29,661,o),
(378.29,701,o),
(279.29,652,cs),
(257.29,642,o),
(187.29,608,o),
(167.29,532,cs),
(160.29,504,o),
(160.29,479,o),
(164.29,458,cs),
(165.29,452,o),
(162.8,446.414,o),
(158.29,443,cs),
(51.29,362,o),
(14.958,203.452,o),
(95.29,94,cs),
(148.515,18.495,o),
(234.911,-6,o),
(311.29,-6,cs)
);
},
{
closed = 1;
nodes = (
(227.031,422.964,o),
(229.515,429.09,o),
(239.29,433,cs),
(301.29,459,o),
(354.29,460,o),
(387.29,439,cs),
(423.925,415.862,o),
(427.849,392.262,o),
(391.294,369,cs),
(363.294,351,o),
(327.085,358.885,o),
(313.29,362,cs),
(296.005,365.903,o),
(254.124,385.023,o),
(231.29,417,cs)
);
},
{
closed = 1;
nodes = (
(425.11,760.875,o),
(447.073,725.893,o),
(472,743,cs),
(498.073,760.894,o),
(553.902,803.106,o),
(582,829,cs),
(604.903,850.106,o),
(577.902,884.128,o),
(549,862,cs),
(513.902,835.128,o),
(461.111,792.876,o),
(441,775,cs)
);
}
);
width = 605.95;
}
);
note = Eacute;
unicode = 201;
},
{
glyphname = Ebreve;
lastChange = "2025-11-12 14:19:19 +0000";
layers = (
{
layerId = "21C22D19-092A-479F-91CA-8C525B8909B6";
shapes = (
{
closed = 1;
nodes = (
(357.29,-6,o),
(447.29,5,o),
(510.29,80,cs),
(559.29,135,o),
(569.29,198,o),
(570.29,233,cs),
(571.29,246,o),
(560.29,258,o),
(546.29,258,cs),
(532.29,258,o),
(521.29,248,o),
(520.29,235,cs),
(518.29,207,o),
(511.29,157,o),
(473.29,112,cs),
(416.29,44,o),
(331.29,41,o),
(297.29,43,cs),
(227.29,47,o),
(170.29,76,o),
(135.29,123,cs),
(76.309,203.758,o),
(97.683,323.068,o),
(174.29,394,cs),
(179.29,398,o),
(185.923,397.446,o),
(189.29,392,cs),
(223.29,337,o),
(279.29,320,o),
(302.29,314,cs),
(319.29,311,o),
(370.29,301,o),
(417.29,329,c),
(492.159,380.226,o),
(473.9,443.234,o),
(414.29,479,cs),
(366.29,511,o),
(297.29,510,o),
(220.29,478,cs),
(211.849,475.186,o),
(210.29,475.103,o),
(210.29,484,cs),
(210.29,495,o),
(211.29,506,o),
(214.29,517,cs),
(229.29,575,o),
(282.29,599,o),
(301.29,608,cs),
(382.29,648,o),
(467.29,611,o),
(483.29,603,cs),
(527.29,582,o),
(557.29,551,o),
(572.29,527,cs),
(579.29,516,o),
(595.29,513,o),
(606.29,521,cs),
(618.29,528,o),
(620.29,545,o),
(613.29,556,cs),
(584.29,596,o),
(547.29,627,o),
(504.29,648,cs),
(477.29,661,o),
(378.29,701,o),
(279.29,652,cs),
(257.29,642,o),
(187.29,608,o),
(167.29,532,cs),
(160.29,504,o),
(160.29,479,o),
(164.29,458,cs),
(165.29,452,o),
(162.8,446.414,o),
(158.29,443,cs),
(51.29,362,o),
(14.958,203.452,o),
(95.29,94,cs),
(148.515,18.495,o),
(234.911,-6,o),
(311.29,-6,cs)
);
},
{
closed = 1;
nodes = (
(227.031,422.964,o),
(229.515,429.09,o),
(239.29,433,cs),
(301.29,459,o),
(354.29,460,o),
(387.29,439,cs),
(423.925,415.862,o),
(427.849,392.262,o),
(391.294,369,cs),
(363.294,351,o),
(327.085,358.885,o),
(313.29,362,cs),
(296.005,365.903,o),
(254.124,385.023,o),
(231.29,417,cs)
);
},
{
closed = 1;
nodes = (
(386.674,758.017,o),
(419.799,715,o),
(473.63,715,cs),
(524.53,715,o),
(573.514,755.19,o),
(579,807,cs),
(580.268,818.975,o),
(570.952,830.505,o),
(558,832,cs),
(544.934,833.508,o),
(533.622,825.053,o),
(532,812,cs),
(528.38,782.872,o),
(503.024,763,o),
(475.63,763,cs),
(450.43,763,o),
(436,786.8,o),
(436,812,cs),
(436,825.038,o),
(426.003,835.04,o),
(414,836,cs),
(401.003,837.04,o),
(389.541,827.027,o),
(389,814,cs)
);
}
);
width = 642.25;
}
);
note = Ebreve;
unicode = 276;
},
{
glyphname = Ecaron;
lastChange = "2025-11-12 14:19:19 +0000";
layers = (
{
layerId = "21C22D19-092A-479F-91CA-8C525B8909B6";
shapes = (
{
closed = 1;
nodes = (
(357.29,-6,o),
(447.29,5,o),
(510.29,80,cs),
(559.29,135,o),
(569.29,198,o),
(570.29,233,cs),
(571.29,246,o),
(560.29,258,o),
(546.29,258,cs),
(532.29,258,o),
(521.29,248,o),
(520.29,235,cs),
(518.29,207,o),
(511.29,157,o),
(473.29,112,cs),
(416.29,44,o),
(331.29,41,o),
(297.29,43,cs),
(227.29,47,o),
(170.29,76,o),
(135.29,123,cs),
(76.309,203.758,o),
(97.683,323.068,o),
(174.29,394,cs),
(179.29,398,o),
(185.923,397.446,o),
(189.29,392,cs),
(223.29,337,o),
(279.29,320,o),
(302.29,314,cs),
(319.29,311,o),
(370.29,301,o),
(417.29,329,c),
(492.159,380.226,o),
(473.9,443.234,o),
(414.29,479,cs),
(366.29,511,o),
(297.29,510,o),
(220.29,478,cs),
(211.849,475.186,o),
(210.29,475.103,o),
(210.29,484,cs),
(210.29,495,o),
(211.29,506,o),
(214.29,517,cs),
(229.29,575,o),
(282.29,599,o),
(301.29,608,cs),
(382.29,648,o),
(467.29,611,o),
(483.29,603,cs),
(527.29,582,o),
(557.29,551,o),
(572.29,527,cs),
(579.29,516,o),
(595.29,513,o),
(606.29,521,cs),
(618.29,528,o),
(620.29,545,o),
(613.29,556,cs),
(584.29,596,o),
(547.29,627,o),
(504.29,648,cs),
(477.29,661,o),
(378.29,701,o),
(279.29,652,cs),
(257.29,642,o),
(187.29,608,o),
(167.29,532,cs),
(160.29,504,o),
(160.29,479,o),
(164.29,458,cs),
(165.29,452,o),
(162.8,446.414,o),
(158.29,443,cs),
(51.29,362,o),
(14.958,203.452,o),
(95.29,94,cs),
(148.515,18.495,o),
(234.911,-6,o),
(311.29,-6,cs)
);
},
{
closed = 1;
nodes = (
(227.031,422.964,o),
(229.515,429.09,o),
(239.29,433,cs),
(301.29,459,o),
(354.29,460,o),
(387.29,439,cs),
(423.925,415.862,o),
(427.849,392.262,o),
(391.294,369,cs),
(363.294,351,o),
(327.085,358.885,o),
(313.29,362,cs),
(296.005,365.903,o),
(254.124,385.023,o),
(231.29,417,cs)
);
},
{
closed = 1;
nodes = (
(455,730,ls),
(462.413,718.397,o),
(481.089,714.667,o),
(493,725,cs),
(576,797,ls),
(585.674,805.392,o),
(585.971,819.974,o),
(577,830,cs),
(568.971,838.974,o),
(553.26,840.93,o),
(543,832,cs),
(489,785,ls),
(484.733,781.286,o),
(478.178,782.111,o),
(475,787,cs),
(449,827,ls),
(441.987,837.789,o),
(426.339,840.085,o),
(415,834,cs),
(404.245,828.228,o),
(401.677,813.462,o),
(409,802,cs)
);
}
);
width = 642.25;
}
);
note = Ecaron;
unicode = 282;
},
{
glyphname = Ecircumflex;
lastChange = "2025-11-12 14:19:19 +0000";
layers = (
{
layerId = "21C22D19-092A-479F-91CA-8C525B8909B6";
shapes = (
{
closed = 1;
nodes = (
(357.29,-6,o),
(447.29,5,o),
(510.29,80,cs),
(559.29,135,o),
(569.29,198,o),
(570.29,233,cs),
(571.29,246,o),
(560.29,258,o),
(546.29,258,cs),
(532.29,258,o),
(521.29,248,o),
(520.29,235,cs),
(518.29,207,o),
(511.29,157,o),
(473.29,112,cs),
(416.29,44,o),
(331.29,41,o),
(297.29,43,cs),
(227.29,47,o),
(170.29,76,o),
(135.29,123,cs),
(76.309,203.758,o),
(97.683,323.068,o),
(174.29,394,cs),
(179.29,398,o),
(185.923,397.446,o),
(189.29,392,cs),
(223.29,337,o),
(279.29,320,o),
(302.29,314,cs),
(319.29,311,o),
(370.29,301,o),
(417.29,329,c),
(492.159,380.226,o),
(473.9,443.234,o),
(414.29,479,cs),
(366.29,511,o),
(297.29,510,o),
(220.29,478,cs),
(211.849,475.186,o),
(210.29,475.103,o),
(210.29,484,cs),
(210.29,495,o),
(211.29,506,o),
(214.29,517,cs),
(229.29,575,o),
(282.29,599,o),
(301.29,608,cs),
(382.29,648,o),
(467.29,611,o),
(483.29,603,cs),
(527.29,582,o),
(557.29,551,o),
(572.29,527,cs),
(579.29,516,o),
(595.29,513,o),
(606.29,521,cs),
(618.29,528,o),
(620.29,545,o),
(613.29,556,cs),
(584.29,596,o),
(547.29,627,o),
(504.29,648,cs),
(477.29,661,o),
(378.29,701,o),
(279.29,652,cs),
(257.29,642,o),
(187.29,608,o),
(167.29,532,cs),
(160.29,504,o),
(160.29,479,o),
(164.29,458,cs),
(165.29,452,o),
(162.8,446.414,o),
(158.29,443,cs),
(51.29,362,o),
(14.958,203.452,o),
(95.29,94,cs),
(148.515,18.495,o),
(234.911,-6,o),
(311.29,-6,cs)
);
},
{
closed = 1;
nodes = (
(227.031,422.964,o),
(229.515,429.09,o),
(239.29,433,cs),
(301.29,459,o),
(354.29,460,o),
(387.29,439,cs),
(423.925,415.862,o),
(427.849,392.262,o),
(391.294,369,cs),
(363.294,351,o),
(327.085,358.885,o),
(313.29,362,cs),
(296.005,365.903,o),
(254.124,385.023,o),
(231.29,417,cs)
);
},
{
closed = 1;
nodes = (
(383.756,742.785,o),
(400.408,741.523,o),
(411,751,cs),
(468,802,ls),
(472.216,805.772,o),
(478.87,804.919,o),
(482,800,cs),
(510,756,ls),
(516.408,745.93,o),
(532.117,741.055,o),
(545,749,cs),
(556.098,755.844,o),
(559.672,771.788,o),
(552,784,cs),
(503,862,ls),
(494.801,875.051,o),
(475.476,877.289,o),
(464,867,cs),
(377,789,ls),
(366.418,779.512,o),
(365.751,763.791,o),
(375,753,cs)
);
}
);
width = 642.25;
}
);
note = Ecircumflex;
unicode = 202;
},
{
glyphname = Edieresis;
lastChange = "2025-11-12 14:19:19 +0000";
layers = (
{
layerId = "21C22D19-092A-479F-91CA-8C525B8909B6";
shapes = (
{
closed = 1;
nodes = (
(357.29,-6,o),
(447.29,5,o),
(510.29,80,cs),
(559.29,135,o),
(569.29,198,o),
(570.29,233,cs),
(571.29,246,o),
(560.29,258,o),
(546.29,258,cs),
(532.29,258,o),
(521.29,248,o),
(520.29,235,cs),
(518.29,207,o),
(511.29,157,o),
(473.29,112,cs),
(416.29,44,o),
(331.29,41,o),
(297.29,43,cs),
(227.29,47,o),
(170.29,76,o),
(135.29,123,cs),
(76.309,203.758,o),
(97.683,323.068,o),
(174.29,394,cs),
(179.29,398,o),
(185.923,397.446,o),
(189.29,392,cs),
(223.29,337,o),
(279.29,320,o),
(302.29,314,cs),
(319.29,311,o),
(370.29,301,o),
(417.29,329,c),
(492.159,380.226,o),
(473.9,443.234,o),
(414.29,479,cs),
(366.29,511,o),
(297.29,510,o),
(220.29,478,cs),
(211.849,475.186,o),
(210.29,475.103,o),
(210.29,484,cs),
(210.29,495,o),
(211.29,506,o),
(214.29,517,cs),
(229.29,575,o),
(282.29,599,o),
(301.29,608,cs),
(382.29,648,o),
(467.29,611,o),
(483.29,603,cs),
(527.29,582,o),
(557.29,551,o),
(572.29,527,cs),
(579.29,516,o),
(595.29,513,o),
(606.29,521,cs),
(618.29,528,o),
(620.29,545,o),
(613.29,556,cs),
(584.29,596,o),
(547.29,627,o),
(504.29,648,cs),
(477.29,661,o),
(378.29,701,o),
(279.29,652,cs),
(257.29,642,o),
(187.29,608,o),
(167.29,532,cs),
(160.29,504,o),
(160.29,479,o),
(164.29,458,cs),
(165.29,452,o),
(162.8,446.414,o),
(158.29,443,cs),
(51.29,362,o),
(14.958,203.452,o),
(95.29,94,cs),
(148.515,18.495,o),
(234.911,-6,o),
(311.29,-6,cs)
);
},
{
closed = 1;
nodes = (
(227.031,422.964,o),
(229.515,429.09,o),
(239.29,433,cs),
(301.29,459,o),
(354.29,460,o),
(387.29,439,cs),
(423.925,415.862,o),
(427.849,392.262,o),
(391.294,369,cs),
(363.294,351,o),
(327.085,358.885,o),
(313.29,362,cs),
(296.005,365.903,o),
(254.124,385.023,o),
(231.29,417,cs)
);
},
{
closed = 1;
nodes = (
(356,743,o),
(366,735,o),
(381,735,cs),
(407,735,o),
(450,775,o),
(450,798,cs),
(450,809,o),
(436,817,o),
(427,817,cs),
(401,817,o),
(356,781,o),
(356,758,cs)
);
},
{
closed = 1;
nodes = (
(519,741,o),
(531,734,o),
(542,734,cs),
(566,734,o),
(618.208,773.091,o),
(618,799,cs),
(617.904,811,o),
(604.289,819.006,o),
(591.404,817,cs),
(560.238,812.149,o),
(519,776,o),
(519,753,cs)
);
}
);
width = 642.25;
}
);
note = Edieresis;
unicode = 203;
},
{
glyphname = Edotaccent;
lastChange = "2025-11-12 14:19:19 +0000";
layers = (
{
layerId = "21C22D19-092A-479F-91CA-8C525B8909B6";
shapes = (
{
closed = 1;
nodes = (
(357.29,-6,o),
(447.29,5,o),
(510.29,80,cs),
(559.29,135,o),
(569.29,198,o),
(570.29,233,cs),
(571.29,246,o),
(560.29,258,o),
(546.29,258,cs),
(532.29,258,o),
(521.29,248,o),
(520.29,235,cs),
(518.29,207,o),
(511.29,157,o),
(473.29,112,cs),
(416.29,44,o),
(331.29,41,o),
(297.29,43,cs),
(227.29,47,o),
(170.29,76,o),
(135.29,123,cs),
(76.309,203.758,o),
(97.683,323.068,o),
(174.29,394,cs),
(179.29,398,o),
(185.923,397.446,o),
(189.29,392,cs),
(223.29,337,o),
(279.29,320,o),
(302.29,314,cs),
(319.29,311,o),
(370.29,301,o),
(417.29,329,c),
(492.159,380.226,o),
(473.9,443.234,o),
(414.29,479,cs),
(366.29,511,o),
(297.29,510,o),
(220.29,478,cs),
(211.849,475.186,o),
(210.29,475.103,o),
(210.29,484,cs),
(210.29,495,o),
(211.29,506,o),
(214.29,517,cs),
(229.29,575,o),
(282.29,599,o),
(301.29,608,cs),
(382.29,648,o),
(467.29,611,o),
(483.29,603,cs),
(527.29,582,o),
(557.29,551,o),
(572.29,527,cs),
(579.29,516,o),
(595.29,513,o),
(606.29,521,cs),
(618.29,528,o),
(620.29,545,o),
(613.29,556,cs),
(584.29,596,o),
(547.29,627,o),
(504.29,648,cs),
(477.29,661,o),
(378.29,701,o),
(279.29,652,cs),
(257.29,642,o),
(187.29,608,o),
(167.29,532,cs),
(160.29,504,o),
(160.29,479,o),
(164.29,458,cs),
(165.29,452,o),
(162.8,446.414,o),
(158.29,443,cs),
(51.29,362,o),
(14.958,203.452,o),
(95.29,94,cs),
(148.515,18.495,o),
(234.911,-6,o),
(311.29,-6,cs)
);
},
{
closed = 1;
nodes = (
(227.031,422.964,o),
(229.515,429.09,o),
(239.29,433,cs),
(301.29,459,o),
(354.29,460,o),
(387.29,439,cs),
(423.925,415.862,o),
(427.849,392.262,o),
(391.294,369,cs),
(363.294,351,o),
(327.085,358.885,o),
(313.29,362,cs),
(296.005,365.903,o),
(254.124,385.023,o),
(231.29,417,cs)
);
},
{
closed = 1;
nodes = (
(392,735,o),
(399,709,o),
(420,709,cs),
(441,709,o),
(467,735,o),
(478,768,cs),
(489,801,o),
(480,827,o),
(459,827,cs),
(438,827,o),
(414,801,o),
(403,768,cs)
);
}
);
width = 642.25;
}
);
note = Edotaccent;
unicode = 278;
},
{
glyphname = Egrave;
lastChange = "2025-11-12 14:19:19 +0000";
layers = (
{
layerId = "21C22D19-092A-479F-91CA-8C525B8909B6";
shapes = (
{
closed = 1;
nodes = (
(357.29,-6,o),
(447.29,5,o),
(510.29,80,cs),
(559.29,135,o),
(569.29,198,o),
(570.29,233,cs),
(571.29,246,o),
(560.29,258,o),
(546.29,258,cs),
(532.29,258,o),
(521.29,248,o),
(520.29,235,cs),
(518.29,207,o),
(511.29,157,o),
(473.29,112,cs),
(416.29,44,o),
(331.29,41,o),
(297.29,43,cs),
(227.29,47,o),
(170.29,76,o),
(135.29,123,cs),
(76.309,203.758,o),
(97.683,323.068,o),
(174.29,394,cs),
(179.29,398,o),
(185.923,397.446,o),
(189.29,392,cs),
(223.29,337,o),
(279.29,320,o),
(302.29,314,cs),
(319.29,311,o),
(370.29,301,o),
(417.29,329,c),
(492.159,380.226,o),
(473.9,443.234,o),
(414.29,479,cs),
(366.29,511,o),
(297.29,510,o),
(220.29,478,cs),
(211.849,475.186,o),
(210.29,475.103,o),
(210.29,484,cs),
(210.29,495,o),
(211.29,506,o),
(214.29,517,cs),
(229.29,575,o),
(282.29,599,o),
(301.29,608,cs),
(382.29,648,o),
(467.29,611,o),
(483.29,603,cs),
(527.29,582,o),
(557.29,551,o),
(572.29,527,cs),
(579.29,516,o),
(595.29,513,o),
(606.29,521,cs),
(618.29,528,o),
(620.29,545,o),
(613.29,556,cs),
(584.29,596,o),
(547.29,627,o),
(504.29,648,cs),
(477.29,661,o),
(378.29,701,o),
(279.29,652,cs),
(257.29,642,o),
(187.29,608,o),
(167.29,532,cs),
(160.29,504,o),
(160.29,479,o),
(164.29,458,cs),
(165.29,452,o),
(162.8,446.414,o),
(158.29,443,cs),
(51.29,362,o),
(14.958,203.452,o),
(95.29,94,cs),
(148.515,18.495,o),
(234.911,-6,o),
(311.29,-6,cs)
);
},
{
closed = 1;
nodes = (
(227.031,422.964,o),
(229.515,429.09,o),
(239.29,433,cs),
(301.29,459,o),
(354.29,460,o),
(387.29,439,cs),
(423.925,415.862,o),
(427.849,392.262,o),
(391.294,369,cs),
(363.294,351,o),
(327.085,358.885,o),
(313.29,362,cs),
(296.005,365.903,o),
(254.124,385.023,o),
(231.29,417,cs)
);
},
{
closed = 1;
nodes = (
(415.975,820.976,o),
(464.077,779.09,o),
(492,755,cs),
(515.078,735.09,o),
(548,767,o),
(524,788,cs),
(492,816,o),
(444.187,858.211,o),
(425,875,cs),
(404.185,893.213,o),
(375,864,o),
(395,843,cs)
);
}
);
width = 642.25;
}
);
note = Egrave;
unicode = 200;
},
{
glyphname = "ElSoft-cy";
lastChange = "2025-11-12 14:19:19 +0000";
layers = (
{
layerId = "21C22D19-092A-479F-91CA-8C525B8909B6";
shapes = (
{
closed = 1;
nodes = (
(423.205,-4.858,o),
(544.982,15.032,o),
(597,109,cs),
(613,137,o),
(622,171,o),
(623,205,cs),
(628.614,311.671,o),
(553.146,368.4,o),
(441,376,cs),
(395.827,379.061,o),
(351,376,o),
(307,362,cs),
(294,358,o),
(287,344,o),
(291,331,cs),
(295,317,o),
(309,310,o),
(322,314,cs),
(360,326,o),
(398,330,o),
(435,326,cs),
(520.233,316.786,o),
(574,291.729,o),
(574,206,cs),
(573,181,o),
(566,154,o),
(554,133,cs),
(482.492,11.016,o),
(234.48,25.465,o),
(154,87,cs),
(138.013,99.224,o),
(127,117,o),
(131,137,cs),
(144,199,ls),
(164.563,297.703,o),
(198.646,427.004,o),
(243,496,cs),
(300,588,o),
(371,618,o),
(420,627,cs),
(513,643,o),
(573.53,597.353,o),
(594,583,cs),
(606.125,574.498,o),
(623.466,572.891,o),
(633,586,cs),
(641.727,598,o),
(638.475,612.841,o),
(624,623,cs),
(611.399,631.844,o),
(588,650,o),
(552,664,cs),
(507,680,o),
(460,685,o),
(411,676,cs),
(352,665,o),
(267,630,o),
(201,523,cs),
(152.974,450.961,o),
(114.719,306.608,o),
(95,209,cs),
(92.317,195.583,o),
(80.104,122.523,o),
(71,110,cs),
(64.749,101.402,o),
(45,98,o),
(17,100,cs),
(4,102,o),
(-9,91,o),
(-10,77,cs),
(-11,64,o),
(0,52,o),
(14,51,cs),
(23.905,49.349,o),
(60.498,48.561,o),
(85,60,cs),
(90.731,62.676,o),
(98,62,o),
(104,58,cs),
(175.782,11.553,o),
(256.302,-4.858,o),
(340,-4.858,cs)
);
}
);
userData = {
assembly = "PUSHW[ ]	/* 4 values pushed */
23 5 69 4 
CALL[ ]	/* CallFunction */
PUSHW[ ]	/* 4 values pushed */
54 3 33 4 
CALL[ ]	/* CallFunction */
NPUSHW[ ]	/* 27 values pushed */
6 23 22 23 38 23 54 23 70 23 86 23 102 23 118 23 134 23 150 23 166 23 182 23 198 23 13 
DELTAP1[ ]	/* DeltaExceptionP1 */
NPUSHW[ ]	/* 5 values pushed */
213 23 229 23 2 
DELTAP1[ ]	/* DeltaExceptionP1 */
NPUSHW[ ]	/* 5 values pushed */
218 33 234 33 2 
DELTAP1[ ]	/* DeltaExceptionP1 */
NPUSHW[ ]	/* 27 values pushed */
9 33 25 33 41 33 57 33 73 33 89 33 105 33 121 33 137 33 153 33 169 33 185 33 201 33 13 
DELTAP1[ ]	/* DeltaExceptionP1 */
PUSHW[ ]	/* 1 value pushed */
54 
SRP0[ ]	/* SetRefPoint0 */
PUSHW[ ]	/* 1 value pushed */
89 
MDRP[11100]	/* MoveDirectRelPt */
SVTCA[0]	/* SetFreedomAndProjectionVectorToAxis */
PUSHW[ ]	/* 1 value pushed */
0 
RCVT[ ]	/* ReadCVT */
IF[ ]	/* If */
PUSHW[ ]	/* 1 value pushed */
59 
MDAP[1]	/* MoveDirectAbsPt */
ELSE[ ]	/* Else */
PUSHW[ ]	/* 2 values pushed */
59 6 
MIAP[0]	/* MoveIndirectAbsPt */
EIF[ ]	/* EndIf */
PUSHW[ ]	/* 4 values pushed */
0 2 13 4 
CALL[ ]	/* CallFunction */
PUSHW[ ]	/* 4 values pushed */
49 1 41 4 
CALL[ ]	/* CallFunction */
PUSHW[ ]	/* 1 value pushed */
59 
SRP0[ ]	/* SetRefPoint0 */
PUSHW[ ]	/* 2 values pushed */
28 1 
MIRP[10100]	/* MoveIndirectRelPt */
NPUSHW[ ]	/* 27 values pushed */
7 28 23 28 39 28 55 28 71 28 87 28 103 28 119 28 135 28 151 28 167 28 183 28 199 28 13 
DELTAP1[ ]	/* DeltaExceptionP1 */
NPUSHW[ ]	/* 5 values pushed */
214 28 230 28 2 
DELTAP1[ ]	/* DeltaExceptionP1 */
PUSHW[ ]	/* 1 value pushed */
49 
SRP0[ ]	/* SetRefPoint0 */
PUSHW[ ]	/* 2 values pushed */
38 1 
MIRP[10100]	/* MoveIndirectRelPt */
PUSHW[ ]	/* 1 value pushed */
59 
SRP0[ ]	/* SetRefPoint0 */
PUSHW[ ]	/* 2 values pushed */
74 1 
MIRP[10100]	/* MoveIndirectRelPt */
NPUSHW[ ]	/* 27 values pushed */
7 74 23 74 39 74 55 74 71 74 87 74 103 74 119 74 135 74 151 74 167 74 183 74 199 74 13 
DELTAP1[ ]	/* DeltaExceptionP1 */
NPUSHW[ ]	/* 5 values pushed */
214 74 230 74 2 
DELTAP1[ ]	/* DeltaExceptionP1 */
IUP[0]	/* InterpolateUntPts */
IUP[1]	/* InterpolateUntPts */";
};
width = 701;
}
);
note = Elsoft;
script = latin;
unicode = 42596;
},
{
glyphname = Emacron;
lastChange = "2025-11-12 14:19:19 +0000";
layers = (
{
layerId = "21C22D19-092A-479F-91CA-8C525B8909B6";
shapes = (
{
closed = 1;
nodes = (
(357.29,-6,o),
(447.29,5,o),
(510.29,80,cs),
(559.29,135,o),
(569.29,198,o),
(570.29,233,cs),
(571.29,246,o),
(560.29,258,o),
(546.29,258,cs),
(532.29,258,o),
(521.29,248,o),
(520.29,235,cs),
(518.29,207,o),
(511.29,157,o),
(473.29,112,cs),
(416.29,44,o),
(331.29,41,o),
(297.29,43,cs),
(227.29,47,o),
(170.29,76,o),
(135.29,123,cs),
(76.309,203.758,o),
(97.683,323.068,o),
(174.29,394,cs),
(179.29,398,o),
(185.923,397.446,o),
(189.29,392,cs),
(223.29,337,o),
(279.29,320,o),
(302.29,314,cs),
(319.29,311,o),
(370.29,301,o),
(417.29,329,c),
(492.159,380.226,o),
(473.9,443.234,o),
(414.29,479,cs),
(366.29,511,o),
(297.29,510,o),
(220.29,478,cs),
(211.849,475.186,o),
(210.29,475.103,o),
(210.29,484,cs),
(210.29,495,o),
(211.29,506,o),
(214.29,517,cs),
(229.29,575,o),
(282.29,599,o),
(301.29,608,cs),
(382.29,648,o),
(467.29,611,o),
(483.29,603,cs),
(527.29,582,o),
(557.29,551,o),
(572.29,527,cs),
(579.29,516,o),
(595.29,513,o),
(606.29,521,cs),
(618.29,528,o),
(620.29,545,o),
(613.29,556,cs),
(584.29,596,o),
(547.29,627,o),
(504.29,648,cs),
(477.29,661,o),
(378.29,701,o),
(279.29,652,cs),
(257.29,642,o),
(187.29,608,o),
(167.29,532,cs),
(160.29,504,o),
(160.29,479,o),
(164.29,458,cs),
(165.29,452,o),
(162.8,446.414,o),
(158.29,443,cs),
(51.29,362,o),
(14.958,203.452,o),
(95.29,94,cs),
(148.515,18.495,o),
(234.911,-6,o),
(311.29,-6,cs)
);
},
{
closed = 1;
nodes = (
(227.031,422.964,o),
(229.515,429.09,o),
(239.29,433,cs),
(301.29,459,o),
(354.29,460,o),
(387.29,439,cs),
(423.925,415.862,o),
(427.849,392.262,o),
(391.294,369,cs),
(363.294,351,o),
(327.085,358.885,o),
(313.29,362,cs),
(296.005,365.903,o),
(254.124,385.023,o),
(231.29,417,cs)
);
},
{
closed = 1;
nodes = (
(326,758,o),
(334,747,o),
(345,747,cs),
(574,747,ls),
(584,747,o),
(592,758,o),
(592,769,cs),
(592,781,o),
(584,791,o),
(574,791,cs),
(345,791,ls),
(334,791,o),
(326,781,o),
(326,769,cs)
);
}
);
width = 655;
}
);
note = Emacron;
unicode = 274;
},
{
glyphname = Eogonek;
lastChange = "2025-11-12 14:19:19 +0000";
layers = (
{
layerId = "21C22D19-092A-479F-91CA-8C525B8909B6";
shapes = (
{
closed = 1;
nodes = (
(462.504,-150.907,o),
(533,-163,o),
(545,-138,cs),
(550,-125,o),
(546,-115,o),
(535,-108,cs),
(517,-99,o),
(485.214,-108.631,o),
(463,-96,cs),
(434.208,-79.628,o),
(421.554,-45.226,o),
(434,-14,cs),
(443.465,9.746,o),
(449.34,10.802,o),
(477.438,28.941,cs),
(524.878,57.157,o),
(595.013,127.446,o),
(598,232,cs),
(599,245,o),
(588,257,o),
(574,257,cs),
(560,257,o),
(549,247,o),
(548,234,cs),
(538.747,104.452,o),
(441.477,35.148,o),
(325,42,cs),
(255,46,o),
(198,75,o),
(163,122,cs),
(112.984,190.484,o),
(114.533,312.012,o),
(202,393,cs),
(207,397,o),
(213.633,396.446,o),
(217,391,cs),
(251,336,o),
(307,319,o),
(330,313,cs),
(347,310,o),
(398,298,o),
(445,326,c),
(515.907,374.515,o),
(505.383,439.97,o),
(442,478,cs),
(394,510,o),
(325,509,o),
(248,477,cs),
(239.559,474.186,o),
(238,474.103,o),
(238,483,cs),
(238,494,o),
(239,505,o),
(242,516,cs),
(257,574,o),
(310,598,o),
(329,607,cs),
(410,647,o),
(495,610,o),
(511,602,cs),
(555,581,o),
(585,550,o),
(600,526,cs),
(607,515,o),
(623,512,o),
(634,520,cs),
(646,527,o),
(648,544,o),
(641,555,cs),
(612,595,o),
(575,626,o),
(532,647,cs),
(505,660,o),
(406,700,o),
(307,651,cs),
(285,641,o),
(215,607,o),
(195,531,cs),
(188,503,o),
(188,478,o),
(192,457,cs),
(193,451,o),
(190.749,445.074,o),
(186,442,cs),
(71.7,368,o),
(43.233,201.682,o),
(123,93,cs),
(166,32,o),
(237,-2,o),
(323,-7,cs),
(351,-7,o),
(365,-6,o),
(382,-4,c),
(367,-56,o),
(394.477,-111.891,o),
(440,-138,cs)
);
},
{
closed = 1;
nodes = (
(254.762,421.978,o),
(257.225,428.09,o),
(267,432,cs),
(329,458,o),
(382,459,o),
(415,438,cs),
(453.156,413.901,o),
(455.074,392.229,o),
(417,368,cs),
(372.294,339.261,o),
(293.09,367.911,o),
(259,416,cs)
);
}
);
userData = {
assembly = "PUSHW[ ]	/* 1 value pushed */
127 
MDAP[1]	/* MoveDirectAbsPt */
PUSHW[ ]	/* 1 value pushed */
117 
MDAP[1]	/* MoveDirectAbsPt */
PUSHW[ ]	/* 1 value pushed */
127 
SRP0[ ]	/* SetRefPoint0 */
PUSHW[ ]	/* 1 value pushed */
56 
MDRP[10000]	/* MoveDirectRelPt */
PUSHW[ ]	/* 1 value pushed */
56 
MDAP[1]	/* MoveDirectAbsPt */
PUSHW[ ]	/* 2 values pushed */
5 3 
MIRP[10100]	/* MoveIndirectRelPt */
NPUSHW[ ]	/* 27 values pushed */
6 5 22 5 38 5 54 5 70 5 86 5 102 5 118 5 134 5 150 5 166 5 182 5 198 5 13 
DELTAP1[ ]	/* DeltaExceptionP1 */
NPUSHW[ ]	/* 5 values pushed */
213 5 229 5 2 
DELTAP1[ ]	/* DeltaExceptionP1 */
NPUSHW[ ]	/* 5 values pushed */
218 117 234 117 2 
DELTAP1[ ]	/* DeltaExceptionP1 */
NPUSHW[ ]	/* 27 values pushed */
9 117 25 117 41 117 57 117 73 117 89 117 105 117 121 117 137 117 153 117 169 117 185 117 201 117 13 
DELTAP1[ ]	/* DeltaExceptionP1 */
PUSHW[ ]	/* 1 value pushed */
117 
SRP0[ ]	/* SetRefPoint0 */
PUSHW[ ]	/* 2 values pushed */
99 3 
MIRP[10100]	/* MoveIndirectRelPt */
PUSHW[ ]	/* 1 value pushed */
23 
MDRP[10000]	/* MoveDirectRelPt */
PUSHW[ ]	/* 1 value pushed */
23 
MDAP[1]	/* MoveDirectAbsPt */
PUSHW[ ]	/* 1 value pushed */
117 
SRP0[ ]	/* SetRefPoint0 */
PUSHW[ ]	/* 1 value pushed */
27 
MDRP[10000]	/* MoveDirectRelPt */
PUSHW[ ]	/* 1 value pushed */
27 
MDAP[1]	/* MoveDirectAbsPt */
PUSHW[ ]	/* 1 value pushed */
117 
SRP0[ ]	/* SetRefPoint0 */
PUSHW[ ]	/* 1 value pushed */
43 
MDRP[10000]	/* MoveDirectRelPt */
PUSHW[ ]	/* 1 value pushed */
43 
MDAP[1]	/* MoveDirectAbsPt */
PUSHW[ ]	/* 3 values pushed */
48 56 99 
SRP1[ ]	/* SetRefPoint1 */
SRP2[ ]	/* SetRefPoint2 */
IP[ ]	/* InterpolatePts */
PUSHW[ ]	/* 3 values pushed */
89 56 99 
SRP1[ ]	/* SetRefPoint1 */
SRP2[ ]	/* SetRefPoint2 */
IP[ ]	/* InterpolatePts */
PUSHW[ ]	/* 1 value pushed */
99 
SRP0[ ]	/* SetRefPoint0 */
PUSHW[ ]	/* 1 value pushed */
128 
MDRP[11100]	/* MoveDirectRelPt */
SVTCA[0]	/* SetFreedomAndProjectionVectorToAxis */
PUSHW[ ]	/* 1 value pushed */
0 
RCVT[ ]	/* ReadCVT */
IF[ ]	/* If */
PUSHW[ ]	/* 1 value pushed */
71 
MDAP[1]	/* MoveDirectAbsPt */
ELSE[ ]	/* Else */
PUSHW[ ]	/* 2 values pushed */
71 12 
MIAP[0]	/* MoveIndirectAbsPt */
EIF[ ]	/* EndIf */
PUSHW[ ]	/* 1 value pushed */
0 
RCVT[ ]	/* ReadCVT */
IF[ ]	/* If */
PUSHW[ ]	/* 1 value pushed */
94 
MDAP[1]	/* MoveDirectAbsPt */
ELSE[ ]	/* Else */
PUSHW[ ]	/* 2 values pushed */
94 10 
MIAP[0]	/* MoveIndirectAbsPt */
EIF[ ]	/* EndIf */
PUSHW[ ]	/* 1 value pushed */
0 
RCVT[ ]	/* ReadCVT */
IF[ ]	/* If */
PUSHW[ ]	/* 1 value pushed */
48 
MDAP[1]	/* MoveDirectAbsPt */
ELSE[ ]	/* Else */
PUSHW[ ]	/* 2 values pushed */
48 6 
MIAP[0]	/* MoveIndirectAbsPt */
EIF[ ]	/* EndIf */
PUSHW[ ]	/* 1 value pushed */
0 
RCVT[ ]	/* ReadCVT */
IF[ ]	/* If */
PUSHW[ ]	/* 1 value pushed */
51 
MDAP[1]	/* MoveDirectAbsPt */
ELSE[ ]	/* Else */
PUSHW[ ]	/* 2 values pushed */
51 6 
MIAP[0]	/* MoveIndirectAbsPt */
EIF[ ]	/* EndIf */
PUSHW[ ]	/* 2 values pushed */
10 2 
MIRP[10100]	/* MoveIndirectRelPt */
NPUSHW[ ]	/* 33 values pushed */
7 10 23 10 39 10 55 10 71 10 87 10 103 10 119 10 135 10 151 10 167 10 183 10 199 10 215 10 231 10 247 10 16 
DELTAP1[ ]	/* DeltaExceptionP1 */
NPUSHW[ ]	/* 9 values pushed */
7 10 23 10 39 10 55 10 4 
DELTAP2[ ]	/* DeltaExceptionP2 */
NPUSHW[ ]	/* 5 values pushed */
70 10 86 10 2 
DELTAP2[ ]	/* DeltaExceptionP2 */
PUSHW[ ]	/* 1 value pushed */
71 
SRP0[ ]	/* SetRefPoint0 */
PUSHW[ ]	/* 1 value pushed */
79 
MDRP[11100]	/* MoveDirectRelPt */
NPUSHW[ ]	/* 5 values pushed */
217 79 233 79 2 
DELTAP1[ ]	/* DeltaExceptionP1 */
NPUSHW[ ]	/* 27 values pushed */
8 79 24 79 40 79 56 79 72 79 88 79 104 79 120 79 136 79 152 79 168 79 184 79 200 79 13 
DELTAP1[ ]	/* DeltaExceptionP1 */
PUSHW[ ]	/* 1 value pushed */
71 
SRP0[ ]	/* SetRefPoint0 */
PUSHW[ ]	/* 2 values pushed */
84 2 
MIRP[10100]	/* MoveIndirectRelPt */
NPUSHW[ ]	/* 5 values pushed */
73 84 89 84 2 
DELTAP2[ ]	/* DeltaExceptionP2 */
NPUSHW[ ]	/* 33 values pushed */
8 84 24 84 40 84 56 84 72 84 88 84 104 84 120 84 136 84 152 84 168 84 184 84 200 84 216 84 232 84 248 84 16 
DELTAP1[ ]	/* DeltaExceptionP1 */
NPUSHW[ ]	/* 9 values pushed */
8 84 24 84 40 84 56 84 4 
DELTAP2[ ]	/* DeltaExceptionP2 */
PUSHW[ ]	/* 1 value pushed */
94 
SRP0[ ]	/* SetRefPoint0 */
PUSHW[ ]	/* 1 value pushed */
104 
MDRP[11100]	/* MoveDirectRelPt */
NPUSHW[ ]	/* 5 values pushed */
217 104 233 104 2 
DELTAP1[ ]	/* DeltaExceptionP1 */
NPUSHW[ ]	/* 27 values pushed */
8 104 24 104 40 104 56 104 72 104 88 104 104 104 120 104 136 104 152 104 168 104 184 104 200 104 13 
DELTAP1[ ]	/* DeltaExceptionP1 */
PUSHW[ ]	/* 3 values pushed */
89 94 104 
SRP1[ ]	/* SetRefPoint1 */
SRP2[ ]	/* SetRefPoint2 */
IP[ ]	/* InterpolatePts */
PUSHW[ ]	/* 2 values pushed */
114 2 
MIRP[10100]	/* MoveIndirectRelPt */
IUP[0]	/* InterpolateUntPts */
IUP[1]	/* InterpolateUntPts */";
};
width = 691;
}
);
note = Eogonek;
unicode = 280;
},
{
glyphname = F;
lastChange = "2025-11-12 14:19:19 +0000";
layers = (
{
guides = (
{
angle = 90;
pos = (744.47,396);
},
{
angle = 90;
pos = (59.47,320);
}
);
layerId = "21C22D19-092A-479F-91CA-8C525B8909B6";
shapes = (
{
closed = 1;
nodes = (
(566.47,395,ls),
(558.47,395,o),
(551.47,404,o),
(553.47,412,cs),
(563.47,452,o),
(574.629,493.958,o),
(585.47,535,cs),
(588.629,546.959,o),
(581.385,560.652,o),
(568.47,564,cs),
(554.376,567.654,o),
(541.606,560.96,o),
(537.47,547,cs),
(525.606,506.959,o),
(514.372,466.024,o),
(504.47,425,cs),
(500.372,408.023,o),
(484.47,396,o),
(465.47,396,cs),
(388.47,396,ls),
(374.47,396,o),
(363.47,384,o),
(363.47,370,cs),
(363.47,357,o),
(374.47,346,o),
(388.47,346,cs),
(459.47,346,ls),
(478.713,346,o),
(484.625,336.237,o),
(478.47,312,cs),
(462.47,249,o),
(449.425,212.631,o),
(430.47,165,cs),
(410.418,114.612,o),
(377.816,84.048,o),
(364.47,75,cs),
(318.766,44.014,o),
(270.47,44,o),
(255.47,44,cs),
(193.47,44,o),
(146.907,72.253,o),
(125.47,89,cs),
(114.868,97.283,o),
(99.47,95,o),
(90.47,86,cs),
(81.415,76.945,o),
(83.065,59.481,o),
(94.47,51,cs),
(122.082,30.468,o),
(178.47,-5,o),
(255.47,-6,cs),
(300.548,-6.585,o),
(349.911,2.947,o),
(393.47,35,cs),
(398.627,38.795,o),
(445.815,72.861,o),
(475.47,147,cs),
(497.815,202.863,o),
(513.47,247,o),
(532.47,329,cs),
(534.611,338.242,o),
(544.47,346,o),
(554.47,346,cs),
(612.47,346,ls),
(625.47,346,o),
(636.47,357,o),
(636.47,370,cs),
(636.47,384,o),
(625.47,395,o),
(612.47,395,cs)
);
},
{
closed = 1;
nodes = (
(74.541,243.01,o),
(110.499,188.061,o),
(167.47,161,cs),
(228.95,131.797,o),
(301.824,146.236,o),
(349.47,178,cs),
(360.125,185.104,o),
(363.91,200.246,o),
(356.47,213,cs),
(349.9,224.262,o),
(334.383,227.148,o),
(322.47,220,cs),
(314.38,215.146,o),
(249.275,175.594,o),
(188.47,205,cs),
(127.273,234.595,o),
(115.591,306.834,o),
(111.47,331,cs),
(93.588,435.853,o),
(165.47,535,o),
(235.47,580,cs),
(239.676,582.704,o),
(329.418,639.646,o),
(436.47,624,cs),
(459.421,620.646,o),
(476.119,614.06,o),
(496.47,607,cs),
(525.157,597.047,o),
(558.439,587.93,o),
(604.47,589,cs),
(647.47,590,o),
(691.375,602.182,o),
(731.47,623,cs),
(743.377,629.182,o),
(748.47,644,o),
(742.47,656,cs),
(736.47,668,o),
(721.365,673.206,o),
(709.47,667,cs),
(675.362,649.205,o),
(638.47,639,o),
(602.47,638,cs),
(565.47,636.972,o),
(541.335,644.575,o),
(512.47,654,cs),
(492.327,660.577,o),
(470.476,668.039,o),
(443.47,672,cs),
(320.476,690.039,o),
(218.973,628.833,o),
(208.47,622,cs),
(125.47,568,o),
(43.541,451.011,o),
(62.47,324,cs)
);
}
);
userData = {
assembly = "PUSHW[ ]	/* 4 values pushed */
28 3 52 4 
CALL[ ]	/* CallFunction */
PUSHW[ ]	/* 3 values pushed */
60 117 3 
CALL[ ]	/* CallFunction */
NPUSHW[ ]	/* 27 values pushed */
6 28 22 28 38 28 54 28 70 28 86 28 102 28 118 28 134 28 150 28 166 28 182 28 198 28 13 
DELTAP1[ ]	/* DeltaExceptionP1 */
NPUSHW[ ]	/* 5 values pushed */
213 28 229 28 2 
DELTAP1[ ]	/* DeltaExceptionP1 */
NPUSHW[ ]	/* 5 values pushed */
218 117 234 117 2 
DELTAP1[ ]	/* DeltaExceptionP1 */
NPUSHW[ ]	/* 27 values pushed */
9 117 25 117 41 117 57 117 73 117 89 117 105 117 121 117 137 117 153 117 169 117 185 117 201 117 13 
DELTAP1[ ]	/* DeltaExceptionP1 */
PUSHW[ ]	/* 1 value pushed */
117 
SRP0[ ]	/* SetRefPoint0 */
PUSHW[ ]	/* 1 value pushed */
42 
MDRP[10000]	/* MoveDirectRelPt */
PUSHW[ ]	/* 1 value pushed */
42 
MDAP[1]	/* MoveDirectAbsPt */
PUSHW[ ]	/* 1 value pushed */
117 
SRP0[ ]	/* SetRefPoint0 */
PUSHW[ ]	/* 1 value pushed */
65 
MDRP[11100]	/* MoveDirectRelPt */
PUSHW[ ]	/* 1 value pushed */
60 
SRP0[ ]	/* SetRefPoint0 */
PUSHW[ ]	/* 1 value pushed */
128 
MDRP[11100]	/* MoveDirectRelPt */
SVTCA[0]	/* SetFreedomAndProjectionVectorToAxis */
PUSHW[ ]	/* 1 value pushed */
0 
RCVT[ ]	/* ReadCVT */
IF[ ]	/* If */
PUSHW[ ]	/* 1 value pushed */
0 
MDAP[1]	/* MoveDirectAbsPt */
ELSE[ ]	/* Else */
PUSHW[ ]	/* 2 values pushed */
0 12 
MIAP[0]	/* MoveIndirectAbsPt */
EIF[ ]	/* EndIf */
PUSHW[ ]	/* 1 value pushed */
0 
RCVT[ ]	/* ReadCVT */
IF[ ]	/* If */
PUSHW[ ]	/* 1 value pushed */
10 
MDAP[1]	/* MoveDirectAbsPt */
ELSE[ ]	/* Else */
PUSHW[ ]	/* 2 values pushed */
10 12 
MIAP[0]	/* MoveIndirectAbsPt */
EIF[ ]	/* EndIf */
PUSHW[ ]	/* 1 value pushed */
0 
RCVT[ ]	/* ReadCVT */
IF[ ]	/* If */
PUSHW[ ]	/* 1 value pushed */
83 
MDAP[1]	/* MoveDirectAbsPt */
ELSE[ ]	/* Else */
PUSHW[ ]	/* 2 values pushed */
83 6 
MIAP[0]	/* MoveIndirectAbsPt */
EIF[ ]	/* EndIf */
PUSHW[ ]	/* 4 values pushed */
38 1 47 4 
CALL[ ]	/* CallFunction */
PUSHW[ ]	/* 1 value pushed */
0 
SRP0[ ]	/* SetRefPoint0 */
PUSHW[ ]	/* 2 values pushed */
23 1 
MIRP[10100]	/* MoveIndirectRelPt */
NPUSHW[ ]	/* 5 values pushed */
217 23 233 23 2 
DELTAP1[ ]	/* DeltaExceptionP1 */
NPUSHW[ ]	/* 27 values pushed */
8 23 24 23 40 23 56 23 72 23 88 23 104 23 120 23 136 23 152 23 168 23 184 23 200 23 13 
DELTAP1[ ]	/* DeltaExceptionP1 */
PUSHW[ ]	/* 1 value pushed */
5 
MDRP[11100]	/* MoveDirectRelPt */
PUSHW[ ]	/* 2 values pushed */
18 1 
MIRP[10100]	/* MoveIndirectRelPt */
PUSHW[ ]	/* 1 value pushed */
47 
SRP0[ ]	/* SetRefPoint0 */
PUSHW[ ]	/* 2 values pushed */
33 1 
MIRP[10100]	/* MoveIndirectRelPt */
PUSHW[ ]	/* 1 value pushed */
83 
SRP0[ ]	/* SetRefPoint0 */
PUSHW[ ]	/* 2 values pushed */
91 1 
MIRP[10100]	/* MoveIndirectRelPt */
NPUSHW[ ]	/* 27 values pushed */
7 91 23 91 39 91 55 91 71 91 87 91 103 91 119 91 135 91 151 91 167 91 183 91 199 91 13 
DELTAP1[ ]	/* DeltaExceptionP1 */
NPUSHW[ ]	/* 5 values pushed */
214 91 230 91 2 
DELTAP1[ ]	/* DeltaExceptionP1 */
PUSHW[ ]	/* 1 value pushed */
83 
SRP0[ ]	/* SetRefPoint0 */
PUSHW[ ]	/* 2 values pushed */
96 1 
MIRP[10100]	/* MoveIndirectRelPt */
NPUSHW[ ]	/* 27 values pushed */
7 96 23 96 39 96 55 96 71 96 87 96 103 96 119 96 135 96 151 96 167 96 183 96 199 96 13 
DELTAP1[ ]	/* DeltaExceptionP1 */
NPUSHW[ ]	/* 5 values pushed */
214 96 230 96 2 
DELTAP1[ ]	/* DeltaExceptionP1 */
IUP[0]	/* InterpolateUntPts */
IUP[1]	/* InterpolateUntPts */";
};
width = 655.5;
}
);
note = F;
unicode = 70;
},
{
glyphname = G;
lastChange = "2025-11-12 14:19:19 +0000";
layers = (
{
guides = (
{
angle = 90;
pos = (-2.82,270);
},
{
angle = 90;
pos = (738.18,281);
}
);
layerId = "21C22D19-092A-479F-91CA-8C525B8909B6";
shapes = (
{
closed = 1;
nodes = (
(191.08,-6,o),
(86.906,1.171,o),
(33.18,58.573,cs),
(13.18,82.415,o),
(0.18,122.152,o),
(18.18,162.883,cs),
(32.18,195.666,o),
(68.18,225.469,o),
(114.18,216.528,cs),
(127.18,214.541,o),
(136.18,200.633,o),
(134.18,187.719,cs),
(131.18,173.811,o),
(118.18,165.863,o),
(104.18,167.85,cs),
(83.18,171.824,o),
(68.18,154.935,o),
(63.18,144.008,cs),
(54.18,122.152,o),
(62.18,101.29,o),
(71.18,91.356,cs),
(104.18,54.599,o),
(190.18,41.685,o),
(259.18,43.671,cs),
(381.18,45.658,o),
(481.18,90.363,o),
(539.18,166.857,cs),
(551.18,183.745,o),
(561.18,208.581,o),
(568.18,228.449,cs),
(575.199,245.882,o),
(570.847,249.973,o),
(552.18,239.377,cs),
(448.18,188.712,o),
(261.18,160.896,o),
(170.18,259.245,cs),
(142.18,290.042,o),
(126.18,329.779,o),
(122.18,378.457,cs),
(113.18,527.471,o),
(249.18,608.932,o),
(265.18,616.88,cs),
(376.18,679.466,o),
(484.18,676.485,o),
(537.18,671.518,cs),
(616.18,660.59,o),
(684.18,627.807,o),
(722.18,582.11,cs),
(731.18,572.175,o),
(729.18,556.28,o),
(719.18,547.34,cs),
(708.18,539.392,o),
(692.18,541.379,o),
(684.18,550.32,cs),
(670.18,568.202,o),
(625.18,609.926,o),
(531.18,621.847,cs),
(484.18,627.807,o),
(389.18,629.794,o),
(290.18,574.162,cs),
(285.18,571.182,o),
(164.18,501.642,o),
(172.18,382.43,cs),
(173.18,368.522,o),
(176.18,325.805,o),
(207.18,292.029,cs),
(279.18,214.541,o),
(442.18,240.37,o),
(530.18,284.081,cs),
(543.18,290.042,o),
(562.18,303.95,o),
(580.18,317.858,cs),
(589.18,324.812,o),
(602.18,337.726,o),
(613.18,347.661,cs),
(623.18,356.601,o),
(640.18,356.601,o),
(651.18,347.661,c),
(659.18,338.72,o),
(661.18,324.812,o),
(656.18,313.884,cs),
(654.18,309.91,o),
(645.18,296.002,o),
(640.18,283.088,cs),
(636.18,274.147,o),
(631.18,262.226,o),
(627.18,249.311,cs),
(626.18,247.324,o),
(609.18,178.778,o),
(578.18,138.047,cs),
(511.18,48.639,o),
(398.18,-3.02,o),
(260.18,-6,cs)
);
}
);
userData = {
assembly = "PUSHW[ ]	/* 4 values pushed */
71 3 58 4 
CALL[ ]	/* CallFunction */
PUSHW[ ]	/* 4 values pushed */
25 3 94 4 
CALL[ ]	/* CallFunction */
NPUSHW[ ]	/* 27 values pushed */
6 25 22 25 38 25 54 25 70 25 86 25 102 25 118 25 134 25 150 25 166 25 182 25 198 25 13 
DELTAP1[ ]	/* DeltaExceptionP1 */
NPUSHW[ ]	/* 5 values pushed */
213 25 229 25 2 
DELTAP1[ ]	/* DeltaExceptionP1 */
PUSHW[ ]	/* 1 value pushed */
94 
SRP0[ ]	/* SetRefPoint0 */
PUSHW[ ]	/* 1 value pushed */
66 
MDRP[10000]	/* MoveDirectRelPt */
PUSHW[ ]	/* 1 value pushed */
66 
MDAP[1]	/* MoveDirectAbsPt */
NPUSHW[ ]	/* 27 values pushed */
6 71 22 71 38 71 54 71 70 71 86 71 102 71 118 71 134 71 150 71 166 71 182 71 198 71 13 
DELTAP1[ ]	/* DeltaExceptionP1 */
NPUSHW[ ]	/* 5 values pushed */
213 71 229 71 2 
DELTAP1[ ]	/* DeltaExceptionP1 */
SVTCA[0]	/* SetFreedomAndProjectionVectorToAxis */
PUSHW[ ]	/* 3 values pushed */
63 53 3 
CALL[ ]	/* CallFunction */
PUSHW[ ]	/* 4 values pushed */
0 2 15 4 
CALL[ ]	/* CallFunction */
PUSHW[ ]	/* 3 values pushed */
37 89 3 
CALL[ ]	/* CallFunction */
PUSHW[ ]	/* 1 value pushed */
89 
SRP0[ ]	/* SetRefPoint0 */
PUSHW[ ]	/* 2 values pushed */
30 2 
MIRP[10100]	/* MoveIndirectRelPt */
PUSHW[ ]	/* 1 value pushed */
53 
SRP0[ ]	/* SetRefPoint0 */
PUSHW[ ]	/* 2 values pushed */
79 2 
MIRP[10100]	/* MoveIndirectRelPt */
PUSHW[ ]	/* 3 values pushed */
84 89 37 
SRP1[ ]	/* SetRefPoint1 */
SRP2[ ]	/* SetRefPoint2 */
IP[ ]	/* InterpolatePts */
IUP[0]	/* InterpolateUntPts */
IUP[1]	/* InterpolateUntPts */";
};
width = 706.05;
}
);
note = G;
unicode = 71;
},
{
glyphname = Gbreve;
lastChange = "2025-11-12 14:19:19 +0000";
layers = (
{
layerId = "21C22D19-092A-479F-91CA-8C525B8909B6";
shapes = (
{
closed = 1;
nodes = (
(191.08,-6,o),
(86.906,1.171,o),
(33.18,58.573,cs),
(13.18,82.415,o),
(0.18,122.152,o),
(18.18,162.883,cs),
(32.18,195.666,o),
(68.18,225.469,o),
(114.18,216.528,cs),
(127.18,214.541,o),
(136.18,200.633,o),
(134.18,187.719,cs),
(131.18,173.811,o),
(118.18,165.863,o),
(104.18,167.85,cs),
(83.18,171.824,o),
(68.18,154.935,o),
(63.18,144.008,cs),
(54.18,122.152,o),
(62.18,101.29,o),
(71.18,91.356,cs),
(104.18,54.599,o),
(190.18,41.685,o),
(259.18,43.671,cs),
(381.18,45.658,o),
(481.18,90.363,o),
(539.18,166.857,cs),
(551.18,183.745,o),
(561.18,208.581,o),
(568.18,228.449,cs),
(575.199,245.882,o),
(570.847,249.973,o),
(552.18,239.377,cs),
(448.18,188.712,o),
(261.18,160.896,o),
(170.18,259.245,cs),
(142.18,290.042,o),
(126.18,329.779,o),
(122.18,378.457,cs),
(113.18,527.471,o),
(249.18,608.932,o),
(265.18,616.88,cs),
(376.18,679.466,o),
(484.18,676.485,o),
(537.18,671.518,cs),
(616.18,660.59,o),
(684.18,627.807,o),
(722.18,582.11,cs),
(731.18,572.175,o),
(729.18,556.28,o),
(719.18,547.34,cs),
(708.18,539.392,o),
(692.18,541.379,o),
(684.18,550.32,cs),
(670.18,568.202,o),
(625.18,609.926,o),
(531.18,621.847,cs),
(484.18,627.807,o),
(389.18,629.794,o),
(290.18,574.162,cs),
(285.18,571.182,o),
(164.18,501.642,o),
(172.18,382.43,cs),
(173.18,368.522,o),
(176.18,325.805,o),
(207.18,292.029,cs),
(279.18,214.541,o),
(442.18,240.37,o),
(530.18,284.081,cs),
(543.18,290.042,o),
(562.18,303.95,o),
(580.18,317.858,cs),
(589.18,324.812,o),
(602.18,337.726,o),
(613.18,347.661,cs),
(623.18,356.601,o),
(640.18,356.601,o),
(651.18,347.661,c),
(659.18,338.72,o),
(661.18,324.812,o),
(656.18,313.884,cs),
(654.18,309.91,o),
(645.18,296.002,o),
(640.18,283.088,cs),
(636.18,274.147,o),
(631.18,262.226,o),
(627.18,249.311,cs),
(626.18,247.324,o),
(609.18,178.778,o),
(578.18,138.047,cs),
(511.18,48.639,o),
(398.18,-3.02,o),
(260.18,-6,cs)
);
},
{
closed = 1;
nodes = (
(451.674,760.017,o),
(484.799,717,o),
(538.63,717,cs),
(589.53,717,o),
(638.514,757.19,o),
(644,809,cs),
(645.268,820.975,o),
(635.952,832.505,o),
(623,834,cs),
(609.934,835.508,o),
(598.622,827.053,o),
(597,814,cs),
(593.38,784.872,o),
(568.024,765,o),
(540.63,765,cs),
(515.43,765,o),
(501,788.8,o),
(501,814,cs),
(501,827.038,o),
(491.003,837.04,o),
(479,838,cs),
(466.003,839.04,o),
(454.541,829.027,o),
(454,816,cs)
);
}
);
width = 719;
}
);
note = Gbreve;
unicode = 286;
},
{
glyphname = Gcircumflex;
lastChange = "2025-11-12 14:19:19 +0000";
layers = (
{
layerId = "21C22D19-092A-479F-91CA-8C525B8909B6";
shapes = (
{
closed = 1;
nodes = (
(191.08,-6,o),
(86.906,1.171,o),
(33.18,58.573,cs),
(13.18,82.415,o),
(0.18,122.152,o),
(18.18,162.883,cs),
(32.18,195.666,o),
(68.18,225.469,o),
(114.18,216.528,cs),
(127.18,214.541,o),
(136.18,200.633,o),
(134.18,187.719,cs),
(131.18,173.811,o),
(118.18,165.863,o),
(104.18,167.85,cs),
(83.18,171.824,o),
(68.18,154.935,o),
(63.18,144.008,cs),
(54.18,122.152,o),
(62.18,101.29,o),
(71.18,91.356,cs),
(104.18,54.599,o),
(190.18,41.685,o),
(259.18,43.671,cs),
(381.18,45.658,o),
(481.18,90.363,o),
(539.18,166.857,cs),
(551.18,183.745,o),
(561.18,208.581,o),
(568.18,228.449,cs),
(575.199,245.882,o),
(570.847,249.973,o),
(552.18,239.377,cs),
(448.18,188.712,o),
(261.18,160.896,o),
(170.18,259.245,cs),
(142.18,290.042,o),
(126.18,329.779,o),
(122.18,378.457,cs),
(113.18,527.471,o),
(249.18,608.932,o),
(265.18,616.88,cs),
(376.18,679.466,o),
(484.18,676.485,o),
(537.18,671.518,cs),
(616.18,660.59,o),
(684.18,627.807,o),
(722.18,582.11,cs),
(731.18,572.175,o),
(729.18,556.28,o),
(719.18,547.34,cs),
(708.18,539.392,o),
(692.18,541.379,o),
(684.18,550.32,cs),
(670.18,568.202,o),
(625.18,609.926,o),
(531.18,621.847,cs),
(484.18,627.807,o),
(389.18,629.794,o),
(290.18,574.162,cs),
(285.18,571.182,o),
(164.18,501.642,o),
(172.18,382.43,cs),
(173.18,368.522,o),
(176.18,325.805,o),
(207.18,292.029,cs),
(279.18,214.541,o),
(442.18,240.37,o),
(530.18,284.081,cs),
(543.18,290.042,o),
(562.18,303.95,o),
(580.18,317.858,cs),
(589.18,324.812,o),
(602.18,337.726,o),
(613.18,347.661,cs),
(623.18,356.601,o),
(640.18,356.601,o),
(651.18,347.661,c),
(659.18,338.72,o),
(661.18,324.812,o),
(656.18,313.884,cs),
(654.18,309.91,o),
(645.18,296.002,o),
(640.18,283.088,cs),
(636.18,274.147,o),
(631.18,262.226,o),
(627.18,249.311,cs),
(626.18,247.324,o),
(609.18,178.778,o),
(578.18,138.047,cs),
(511.18,48.639,o),
(398.18,-3.02,o),
(260.18,-6,cs)
);
},
{
closed = 1;
nodes = (
(453.756,725.785,o),
(470.408,724.523,o),
(481,734,cs),
(538,785,ls),
(542.216,788.772,o),
(548.87,787.919,o),
(552,783,cs),
(580,739,ls),
(586.408,728.93,o),
(602.117,724.055,o),
(615,732,cs),
(626.098,738.844,o),
(629.672,754.788,o),
(622,767,cs),
(573,845,ls),
(564.801,858.051,o),
(545.476,860.289,o),
(534,850,cs),
(447,772,ls),
(436.418,762.512,o),
(435.751,746.791,o),
(445,736,cs)
);
}
);
width = 719;
}
);
note = Gcircumflex;
unicode = 284;
},
{
glyphname = Gcommaaccent;
lastChange = "2025-11-12 14:19:19 +0000";
layers = (
{
layerId = "21C22D19-092A-479F-91CA-8C525B8909B6";
shapes = (
{
closed = 1;
nodes = (
(191.08,-6,o),
(86.906,1.171,o),
(33.18,58.573,cs),
(13.18,82.415,o),
(0.18,122.152,o),
(18.18,162.883,cs),
(32.18,195.666,o),
(68.18,225.469,o),
(114.18,216.528,cs),
(127.18,214.541,o),
(136.18,200.633,o),
(134.18,187.719,cs),
(131.18,173.811,o),
(118.18,165.863,o),
(104.18,167.85,cs),
(83.18,171.824,o),
(68.18,154.935,o),
(63.18,144.008,cs),
(54.18,122.152,o),
(62.18,101.29,o),
(71.18,91.356,cs),
(104.18,54.599,o),
(190.18,41.685,o),
(259.18,43.671,cs),
(381.18,45.658,o),
(481.18,90.363,o),
(539.18,166.857,cs),
(551.18,183.745,o),
(561.18,208.581,o),
(568.18,228.449,cs),
(575.199,245.882,o),
(570.847,249.973,o),
(552.18,239.377,cs),
(448.18,188.712,o),
(261.18,160.896,o),
(170.18,259.245,cs),
(142.18,290.042,o),
(126.18,329.779,o),
(122.18,378.457,cs),
(113.18,527.471,o),
(249.18,608.932,o),
(265.18,616.88,cs),
(376.18,679.466,o),
(484.18,676.485,o),
(537.18,671.518,cs),
(616.18,660.59,o),
(684.18,627.807,o),
(722.18,582.11,cs),
(731.18,572.175,o),
(729.18,556.28,o),
(719.18,547.34,cs),
(708.18,539.392,o),
(692.18,541.379,o),
(684.18,550.32,cs),
(670.18,568.202,o),
(625.18,609.926,o),
(531.18,621.847,cs),
(484.18,627.807,o),
(389.18,629.794,o),
(290.18,574.162,cs),
(285.18,571.182,o),
(164.18,501.642,o),
(172.18,382.43,cs),
(173.18,368.522,o),
(176.18,325.805,o),
(207.18,292.029,cs),
(279.18,214.541,o),
(442.18,240.37,o),
(530.18,284.081,cs),
(543.18,290.042,o),
(562.18,303.95,o),
(580.18,317.858,cs),
(589.18,324.812,o),
(602.18,337.726,o),
(613.18,347.661,cs),
(623.18,356.601,o),
(640.18,356.601,o),
(651.18,347.661,c),
(659.18,338.72,o),
(661.18,324.812,o),
(656.18,313.884,cs),
(654.18,309.91,o),
(645.18,296.002,o),
(640.18,283.088,cs),
(636.18,274.147,o),
(631.18,262.226,o),
(627.18,249.311,cs),
(626.18,247.324,o),
(609.18,178.778,o),
(578.18,138.047,cs),
(511.18,48.639,o),
(398.18,-3.02,o),
(260.18,-6,cs)
);
},
{
closed = 1;
nodes = (
(259.394,-169.127,o),
(275.673,-179.009,o),
(299.513,-169.127,cs),
(318.44,-161.282,o),
(361,-126.719,o),
(361,-85,cs),
(361,-63.729,o),
(356.86,-51.941,o),
(337,-52,cs),
(302.496,-52.103,o),
(309.791,-80.974,o),
(307,-104,cs),
(305.791,-113.977,o),
(294.052,-131.134,o),
(284,-135,cs),
(268.051,-141.134,o),
(263.849,-147.965,o),
(263,-152,cs)
);
}
);
width = 719;
}
);
note = Gcommaaccent;
unicode = 290;
},
{
glyphname = Gdotaccent;
lastChange = "2025-11-12 14:19:19 +0000";
layers = (
{
layerId = "21C22D19-092A-479F-91CA-8C525B8909B6";
shapes = (
{
closed = 1;
nodes = (
(191.08,-6,o),
(86.906,1.171,o),
(33.18,58.573,cs),
(13.18,82.415,o),
(0.18,122.152,o),
(18.18,162.883,cs),
(32.18,195.666,o),
(68.18,225.469,o),
(114.18,216.528,cs),
(127.18,214.541,o),
(136.18,200.633,o),
(134.18,187.719,cs),
(131.18,173.811,o),
(118.18,165.863,o),
(104.18,167.85,cs),
(83.18,171.824,o),
(68.18,154.935,o),
(63.18,144.008,cs),
(54.18,122.152,o),
(62.18,101.29,o),
(71.18,91.356,cs),
(104.18,54.599,o),
(190.18,41.685,o),
(259.18,43.671,cs),
(381.18,45.658,o),
(481.18,90.363,o),
(539.18,166.857,cs),
(551.18,183.745,o),
(561.18,208.581,o),
(568.18,228.449,cs),
(575.199,245.882,o),
(570.847,249.973,o),
(552.18,239.377,cs),
(448.18,188.712,o),
(261.18,160.896,o),
(170.18,259.245,cs),
(142.18,290.042,o),
(126.18,329.779,o),
(122.18,378.457,cs),
(113.18,527.471,o),
(249.18,608.932,o),
(265.18,616.88,cs),
(376.18,679.466,o),
(484.18,676.485,o),
(537.18,671.518,cs),
(616.18,660.59,o),
(684.18,627.807,o),
(722.18,582.11,cs),
(731.18,572.175,o),
(729.18,556.28,o),
(719.18,547.34,cs),
(708.18,539.392,o),
(692.18,541.379,o),
(684.18,550.32,cs),
(670.18,568.202,o),
(625.18,609.926,o),
(531.18,621.847,cs),
(484.18,627.807,o),
(389.18,629.794,o),
(290.18,574.162,cs),
(285.18,571.182,o),
(164.18,501.642,o),
(172.18,382.43,cs),
(173.18,368.522,o),
(176.18,325.805,o),
(207.18,292.029,cs),
(279.18,214.541,o),
(442.18,240.37,o),
(530.18,284.081,cs),
(543.18,290.042,o),
(562.18,303.95,o),
(580.18,317.858,cs),
(589.18,324.812,o),
(602.18,337.726,o),
(613.18,347.661,cs),
(623.18,356.601,o),
(640.18,356.601,o),
(651.18,347.661,c),
(659.18,338.72,o),
(661.18,324.812,o),
(656.18,313.884,cs),
(654.18,309.91,o),
(645.18,296.002,o),
(640.18,283.088,cs),
(636.18,274.147,o),
(631.18,262.226,o),
(627.18,249.311,cs),
(626.18,247.324,o),
(609.18,178.778,o),
(578.18,138.047,cs),
(511.18,48.639,o),
(398.18,-3.02,o),
(260.18,-6,cs)
);
},
{
closed = 1;
nodes = (
(464,751,o),
(471,725,o),
(492,725,cs),
(513,725,o),
(539,751,o),
(550,784,cs),
(561,817,o),
(552,843,o),
(531,843,cs),
(510,843,o),
(486,817,o),
(475,784,cs)
);
}
);
width = 719;
}
);
note = Gdotaccent;
unicode = 288;
},
{
glyphname = H;
lastChange = "2025-11-12 14:19:19 +0000";
layers = (
{
guides = (
{
angle = 90;
pos = (73.13,222);
},
{
angle = 90;
pos = (1004.13,268);
}
);
layerId = "21C22D19-092A-479F-91CA-8C525B8909B6";
shapes = (
{
closed = 1;
nodes = (
(215.13,-6,ls),
(234.13,-6,o),
(292.13,-3,o),
(326.13,45,cs),
(355.13,86,o),
(377.13,161,o),
(398.13,234,cs),
(415.13,286,ls),
(419.13,300,o),
(433.13,309,o),
(449.13,309,cs),
(682.13,309,ls),
(694.13,309,o),
(701.13,300,o),
(698.13,289,cs),
(643.13,108,ls),
(633.13,79,o),
(623.13,47,o),
(637.13,20,cs),
(667.13,-32,o),
(745.13,5,o),
(785.13,29,cs),
(812.13,46,o),
(787.13,82,o),
(759.13,69,cs),
(739.13,59,o),
(715.13,48,o),
(700.13,43,cs),
(689.13,39,o),
(682.13,50,o),
(682.13,56,cs),
(682.941,71.807,o),
(811.29,529.346,o),
(848.13,579,cs),
(872.367,615.994,o),
(937.491,616.767,o),
(972.13,588,cs),
(983.225,578.786,o),
(999.13,581,o),
(1007.13,593,cs),
(1015.13,604,o),
(1013.13,619,o),
(1002.13,628,c),
(940.194,669.291,o),
(851.639,669.107,o),
(809.13,608,cs),
(782.13,568,o),
(761.13,496,o),
(741.13,427,cs),
(727.13,385,ls),
(722.13,369,o),
(708.13,360,o),
(694.13,360,cs),
(459.13,360,ls),
(449.13,360,o),
(442.13,370,o),
(445.13,381,cs),
(497.13,548,ls),
(503.881,568.252,o),
(505.167,599.483,o),
(475.13,623,cs),
(436.863,652.96,o),
(398.13,669,o),
(358.13,673,cs),
(271.13,683,o),
(179.13,646,o),
(124.13,577,cs),
(79.13,523,o),
(45.13,435,o),
(80.13,359,cs),
(93.13,331,o),
(128.13,296,o),
(178.13,285,cs),
(206.617,278.67,o),
(243.029,282.95,o),
(269.13,296,c),
(283.13,301,o),
(288.13,317,o),
(282.13,328,cs),
(276.13,342,o),
(261.13,346,o),
(248.13,341,cs),
(238.13,336,o),
(215.13,327,o),
(187.13,332,cs),
(153.13,341,o),
(132.069,365.445,o),
(125.13,380,cs),
(91.046,451.493,o),
(152.13,532,o),
(164.13,547,cs),
(207.13,602,o),
(282.13,632,o),
(351.13,623,cs),
(377.13,620,o),
(402.13,612,o),
(427.13,596,cs),
(444.13,587,o),
(450.13,565,o),
(445.13,547,cs),
(351.13,247,ls),
(332.13,181,o),
(310.13,107,o),
(287.13,74,cs),
(265.13,44,o),
(222.192,43,o),
(214.13,43,cs),
(183.13,43,o),
(161.776,56.774,o),
(151.13,65,cs),
(139.718,73.818,o),
(124.13,70,o),
(116.13,59,cs),
(108.13,48,o),
(111.13,33,o),
(121.13,25,cs),
(137.13,14,o),
(170.13,-6,o),
(214.13,-6,cs)
);
}
);
userData = {
assembly = "PUSHW[ ]	/* 4 values pushed */
84 3 105 4 
CALL[ ]	/* CallFunction */
PUSHW[ ]	/* 3 values pushed */
14 24 3 
CALL[ ]	/* CallFunction */
NPUSHW[ ]	/* 5 values pushed */
218 24 234 24 2 
DELTAP1[ ]	/* DeltaExceptionP1 */
NPUSHW[ ]	/* 27 values pushed */
9 24 25 24 41 24 57 24 73 24 89 24 105 24 121 24 137 24 153 24 169 24 185 24 201 24 13 
DELTAP1[ ]	/* DeltaExceptionP1 */
NPUSHW[ ]	/* 27 values pushed */
6 84 22 84 38 84 54 84 70 84 86 84 102 84 118 84 134 84 150 84 166 84 182 84 198 84 13 
DELTAP1[ ]	/* DeltaExceptionP1 */
NPUSHW[ ]	/* 5 values pushed */
213 84 229 84 2 
DELTAP1[ ]	/* DeltaExceptionP1 */
PUSHW[ ]	/* 1 value pushed */
105 
SRP0[ ]	/* SetRefPoint0 */
PUSHW[ ]	/* 1 value pushed */
97 
MDRP[11100]	/* MoveDirectRelPt */
PUSHW[ ]	/* 1 value pushed */
14 
SRP0[ ]	/* SetRefPoint0 */
PUSHW[ ]	/* 1 value pushed */
155 
MDRP[11100]	/* MoveDirectRelPt */
SVTCA[0]	/* SetFreedomAndProjectionVectorToAxis */
PUSHW[ ]	/* 1 value pushed */
110 
MDAP[1]	/* MoveDirectAbsPt */
PUSHW[ ]	/* 1 value pushed */
137 
MDAP[1]	/* MoveDirectAbsPt */
PUSHW[ ]	/* 4 values pushed */
6 1 49 4 
CALL[ ]	/* CallFunction */
PUSHW[ ]	/* 4 values pushed */
92 1 102 4 
CALL[ ]	/* CallFunction */
PUSHW[ ]	/* 4 values pushed */
125 2 36 4 
CALL[ ]	/* CallFunction */
PUSHW[ ]	/* 1 value pushed */
49 
SRP0[ ]	/* SetRefPoint0 */
PUSHW[ ]	/* 2 values pushed */
11 1 
MIRP[10100]	/* MoveIndirectRelPt */
PUSHW[ ]	/* 1 value pushed */
49 
SRP0[ ]	/* SetRefPoint0 */
PUSHW[ ]	/* 1 value pushed */
19 
MDRP[10000]	/* MoveDirectRelPt */
PUSHW[ ]	/* 1 value pushed */
19 
MDAP[1]	/* MoveDirectAbsPt */
PUSHW[ ]	/* 1 value pushed */
49 
SRP0[ ]	/* SetRefPoint0 */
PUSHW[ ]	/* 2 values pushed */
57 1 
MIRP[10100]	/* MoveIndirectRelPt */
PUSHW[ ]	/* 1 value pushed */
49 
SRP0[ ]	/* SetRefPoint0 */
PUSHW[ ]	/* 2 values pushed */
62 2 
MIRP[10100]	/* MoveIndirectRelPt */
PUSHW[ ]	/* 1 value pushed */
137 
SRP0[ ]	/* SetRefPoint0 */
PUSHW[ ]	/* 2 values pushed */
79 2 
MIRP[10100]	/* MoveIndirectRelPt */
PUSHW[ ]	/* 1 value pushed */
36 
SRP0[ ]	/* SetRefPoint0 */
PUSHW[ ]	/* 1 value pushed */
89 
MDRP[10000]	/* MoveDirectRelPt */
PUSHW[ ]	/* 1 value pushed */
89 
MDAP[1]	/* MoveDirectAbsPt */
PUSHW[ ]	/* 1 value pushed */
92 
SRP0[ ]	/* SetRefPoint0 */
PUSHW[ ]	/* 1 value pushed */
94 
MDRP[10000]	/* MoveDirectRelPt */
PUSHW[ ]	/* 1 value pushed */
94 
MDAP[1]	/* MoveDirectAbsPt */
PUSHW[ ]	/* 1 value pushed */
79 
SRP0[ ]	/* SetRefPoint0 */
PUSHW[ ]	/* 1 value pushed */
148 
MDRP[10000]	/* MoveDirectRelPt */
PUSHW[ ]	/* 1 value pushed */
148 
MDAP[1]	/* MoveDirectAbsPt */
IUP[0]	/* InterpolateUntPts */
IUP[1]	/* InterpolateUntPts */";
};
width = 938.25;
}
);
note = H;
unicode = 72;
},
{
glyphname = Hbar;
lastChange = "2025-11-12 14:19:19 +0000";
layers = (
{
layerId = "21C22D19-092A-479F-91CA-8C525B8909B6";
shapes = (
{
closed = 1;
nodes = (
(222,-5,ls),
(241,-5,o),
(299.015,-2.011,o),
(333,46,cs),
(362.015,86.989,o),
(381.396,162.8,o),
(405,235,cs),
(422,287,ls),
(426.524,300.839,o),
(440,310,o),
(456,310,cs),
(689,310,ls),
(701,310,o),
(708.315,300.909,o),
(705,290,cs),
(650,109,ls),
(641.081,79.649,o),
(629.201,47.571,o),
(644,21,cs),
(673.211,-31.447,o),
(752.211,5.652,o),
(792,30,cs),
(819.215,46.654,o),
(793.84,83.34,o),
(766,70,cs),
(745.835,60.337,o),
(727.311,52.004,o),
(712.684,46,cs),
(702.477,41.81,o),
(689.53,45.337,o),
(689,57,cs),
(688.492,68.164,o),
(706.879,128.036,o),
(727,196,cs),
(751.879,280.036,o),
(782,376,o),
(791,406,cs),
(791.909,409.029,o),
(795,411,o),
(798,411,cs),
(848,411,ls),
(861,411,o),
(872,422,o),
(872,436,cs),
(872,449,o),
(861,460,o),
(848,460,cs),
(817,460,ls),
(812,460,o),
(808.485,465.131,o),
(810,470,cs),
(824,515,o),
(839.607,557.571,o),
(855,580,cs),
(874.618,608.586,o),
(915,610,o),
(921,610,cs),
(950,610,o),
(969.422,596.298,o),
(979,589,cs),
(990.472,580.26,o),
(1005.764,582.161,o),
(1014,594,cs),
(1021.767,605.166,o),
(1020.475,620.614,o),
(1009,629,cs),
(994.445,639.637,o),
(963,658,o),
(921,658,cs),
(903,658,o),
(847.771,655.158,o),
(816,609,cs),
(794.77,578.157,o),
(777,525,o),
(760,471,cs),
(758.173,465.198,o),
(753,460,o),
(746,460,cs),
(490,460,ls),
(483,460,o),
(478.095,466.969,o),
(480,473,cs),
(504,549,ls),
(512.768,576.765,o),
(505.09,602.617,o),
(485,622,cs),
(447.686,658,o),
(407.615,666.779,o),
(365,674,cs),
(278.658,688.631,o),
(186.663,646.466,o),
(131,578,cs),
(86.658,523.459,o),
(51.937,435.971,o),
(87,360,cs),
(120.643,287.106,o),
(209.429,268.836,o),
(276,297,cs),
(289.691,302.792,o),
(294.422,317.704,o),
(289,329,cs),
(282.409,342.732,o),
(267.773,347.554,o),
(255,342,cs),
(244.747,337.542,o),
(221.744,326.735,o),
(194,333,cs),
(159.693,340.747,o),
(138.939,366.445,o),
(132,381,cs),
(97.916,452.493,o),
(159.132,532.895,o),
(171,548,cs),
(214.133,602.896,o),
(288.964,632.72,o),
(358,624,cs),
(402.162,618.422,o),
(467.071,594.953,o),
(452,548,cs),
(426,467,ls),
(424.74,463.074,o),
(422,460,o),
(418,460,cs),
(350,460,ls),
(336,460,o),
(326,449,o),
(326,436,cs),
(326,422,o),
(336,411,o),
(350,411,cs),
(396,411,ls),
(403,411,o),
(406.88,405.039,o),
(405,399,cs),
(358,248,ls),
(337.589,182.423,o),
(317.38,107.732,o),
(294,75,cs),
(272.377,44.727,o),
(229.062,44,o),
(221,44,cs),
(190,44,o),
(168.646,57.774,o),
(158,66,cs),
(146.588,74.818,o),
(131,71,o),
(123,60,cs),
(115,49,o),
(117.66,33.556,o),
(128,26,cs),
(143.677,14.544,o),
(177,-5,o),
(221,-5,cs)
);
},
{
closed = 1;
nodes = (
(458,401,ls),
(459.905,407.031,o),
(465,411,o),
(472,411,cs),
(730,411,ls),
(736,411,o),
(741.046,405.728,o),
(739,400,cs),
(734,386,ls),
(728.362,370.214,o),
(715,361,o),
(701,361,cs),
(466,361,ls),
(456,361,o),
(448.567,371.127,o),
(452,382,cs)
);
}
);
userData = {
assembly = "PUSHW[ ]	/* 4 values pushed */
130 3 151 4 
CALL[ ]	/* CallFunction */
PUSHW[ ]	/* 3 values pushed */
50 60 3 
CALL[ ]	/* CallFunction */
NPUSHW[ ]	/* 5 values pushed */
218 60 234 60 2 
DELTAP1[ ]	/* DeltaExceptionP1 */
NPUSHW[ ]	/* 27 values pushed */
9 60 25 60 41 60 57 60 73 60 89 60 105 60 121 60 137 60 153 60 169 60 185 60 201 60 13 
DELTAP1[ ]	/* DeltaExceptionP1 */
PUSHW[ ]	/* 3 values pushed */
21 60 50 
SRP1[ ]	/* SetRefPoint1 */
SRP2[ ]	/* SetRefPoint2 */
IP[ ]	/* InterpolatePts */
PUSHW[ ]	/* 3 values pushed */
108 151 50 
SRP1[ ]	/* SetRefPoint1 */
SRP2[ ]	/* SetRefPoint2 */
IP[ ]	/* InterpolatePts */
NPUSHW[ ]	/* 27 values pushed */
6 130 22 130 38 130 54 130 70 130 86 130 102 130 118 130 134 130 150 130 166 130 182 130 198 130 13 
DELTAP1[ ]	/* DeltaExceptionP1 */
NPUSHW[ ]	/* 5 values pushed */
213 130 229 130 2 
DELTAP1[ ]	/* DeltaExceptionP1 */
PUSHW[ ]	/* 1 value pushed */
151 
SRP0[ ]	/* SetRefPoint0 */
PUSHW[ ]	/* 1 value pushed */
143 
MDRP[11100]	/* MoveDirectRelPt */
PUSHW[ ]	/* 3 values pushed */
164 151 50 
SRP1[ ]	/* SetRefPoint1 */
SRP2[ ]	/* SetRefPoint2 */
IP[ ]	/* InterpolatePts */
PUSHW[ ]	/* 3 values pushed */
179 60 50 
SRP1[ ]	/* SetRefPoint1 */
SRP2[ ]	/* SetRefPoint2 */
IP[ ]	/* InterpolatePts */
PUSHW[ ]	/* 1 value pushed */
50 
SRP0[ ]	/* SetRefPoint0 */
PUSHW[ ]	/* 1 value pushed */
188 
MDRP[11100]	/* MoveDirectRelPt */
SVTCA[0]	/* SetFreedomAndProjectionVectorToAxis */
PUSHW[ ]	/* 4 values pushed */
93 1 85 4 
CALL[ ]	/* CallFunction */
PUSHW[ ]	/* 4 values pushed */
156 2 125 4 
CALL[ ]	/* CallFunction */
PUSHW[ ]	/* 4 values pushed */
21 2 33 4 
CALL[ ]	/* CallFunction */
PUSHW[ ]	/* 4 values pushed */
138 1 148 4 
CALL[ ]	/* CallFunction */
PUSHW[ ]	/* 4 values pushed */
172 2 72 4 
CALL[ ]	/* CallFunction */
PUSHW[ ]	/* 1 value pushed */
21 
SRP0[ ]	/* SetRefPoint0 */
PUSHW[ ]	/* 1 value pushed */
0 
MDRP[10000]	/* MoveDirectRelPt */
PUSHW[ ]	/* 1 value pushed */
156 
SRP0[ ]	/* SetRefPoint0 */
PUSHW[ ]	/* 1 value pushed */
6 
MDRP[10000]	/* MoveDirectRelPt */
PUSHW[ ]	/* 1 value pushed */
6 
MDAP[1]	/* MoveDirectAbsPt */
PUSHW[ ]	/* 1 value pushed */
125 
SRP0[ ]	/* SetRefPoint0 */
PUSHW[ ]	/* 1 value pushed */
17 
MDRP[10000]	/* MoveDirectRelPt */
PUSHW[ ]	/* 1 value pushed */
17 
MDAP[1]	/* MoveDirectAbsPt */
PUSHW[ ]	/* 1 value pushed */
85 
SRP0[ ]	/* SetRefPoint0 */
PUSHW[ ]	/* 2 values pushed */
42 1 
MIRP[10100]	/* MoveIndirectRelPt */
PUSHW[ ]	/* 1 value pushed */
85 
SRP0[ ]	/* SetRefPoint0 */
PUSHW[ ]	/* 2 values pushed */
47 1 
MIRP[10100]	/* MoveIndirectRelPt */
PUSHW[ ]	/* 1 value pushed */
85 
SRP0[ ]	/* SetRefPoint0 */
PUSHW[ ]	/* 1 value pushed */
55 
MDRP[10000]	/* MoveDirectRelPt */
PUSHW[ ]	/* 1 value pushed */
55 
MDAP[1]	/* MoveDirectAbsPt */
PUSHW[ ]	/* 1 value pushed */
85 
SRP0[ ]	/* SetRefPoint0 */
PUSHW[ ]	/* 2 values pushed */
98 2 
MIRP[10100]	/* MoveIndirectRelPt */
PUSHW[ ]	/* 1 value pushed */
33 
SRP0[ ]	/* SetRefPoint0 */
PUSHW[ ]	/* 1 value pushed */
111 
MDRP[10000]	/* MoveDirectRelPt */
PUSHW[ ]	/* 1 value pushed */
111 
MDAP[1]	/* MoveDirectAbsPt */
PUSHW[ ]	/* 3 values pushed */
108 33 111 
SRP1[ ]	/* SetRefPoint1 */
SRP2[ ]	/* SetRefPoint2 */
IP[ ]	/* InterpolatePts */
PUSHW[ ]	/* 1 value pushed */
21 
SRP0[ ]	/* SetRefPoint0 */
PUSHW[ ]	/* 1 value pushed */
119 
MDRP[10000]	/* MoveDirectRelPt */
PUSHW[ ]	/* 1 value pushed */
119 
MDAP[1]	/* MoveDirectAbsPt */
PUSHW[ ]	/* 1 value pushed */
72 
SRP0[ ]	/* SetRefPoint0 */
PUSHW[ ]	/* 1 value pushed */
135 
MDRP[10000]	/* MoveDirectRelPt */
PUSHW[ ]	/* 1 value pushed */
135 
MDAP[1]	/* MoveDirectAbsPt */
PUSHW[ ]	/* 1 value pushed */
138 
SRP0[ ]	/* SetRefPoint0 */
PUSHW[ ]	/* 1 value pushed */
140 
MDRP[10000]	/* MoveDirectRelPt */
PUSHW[ ]	/* 1 value pushed */
140 
MDAP[1]	/* MoveDirectAbsPt */
PUSHW[ ]	/* 3 values pushed */
164 21 119 
SRP1[ ]	/* SetRefPoint1 */
SRP2[ ]	/* SetRefPoint2 */
IP[ ]	/* InterpolatePts */
PUSHW[ ]	/* 1 value pushed */
33 
SRP0[ ]	/* SetRefPoint0 */
PUSHW[ ]	/* 1 value pushed */
179 
MDRP[10000]	/* MoveDirectRelPt */
PUSHW[ ]	/* 1 value pushed */
33 
SRP0[ ]	/* SetRefPoint0 */
PUSHW[ ]	/* 1 value pushed */
184 
MDRP[10000]	/* MoveDirectRelPt */
PUSHW[ ]	/* 1 value pushed */
184 
MDAP[1]	/* MoveDirectAbsPt */
IUP[0]	/* InterpolateUntPts */
IUP[1]	/* InterpolateUntPts */";
};
width = 946;
}
);
note = Hbar;
unicode = 294;
},
{
glyphname = Hcircumflex;
lastChange = "2025-11-12 14:19:19 +0000";
layers = (
{
layerId = "21C22D19-092A-479F-91CA-8C525B8909B6";
shapes = (
{
closed = 1;
nodes = (
(215.13,-6,ls),
(234.13,-6,o),
(292.13,-3,o),
(326.13,45,cs),
(355.13,86,o),
(377.13,161,o),
(398.13,234,cs),
(415.13,286,ls),
(419.13,300,o),
(433.13,309,o),
(449.13,309,cs),
(682.13,309,ls),
(694.13,309,o),
(701.13,300,o),
(698.13,289,cs),
(643.13,108,ls),
(633.13,79,o),
(623.13,47,o),
(637.13,20,cs),
(667.13,-32,o),
(745.13,5,o),
(785.13,29,cs),
(812.13,46,o),
(787.13,82,o),
(759.13,69,cs),
(739.13,59,o),
(715.13,48,o),
(700.13,43,cs),
(689.13,39,o),
(682.13,50,o),
(682.13,56,cs),
(682.941,71.807,o),
(811.29,529.346,o),
(848.13,579,cs),
(872.367,615.994,o),
(937.491,616.767,o),
(972.13,588,cs),
(983.225,578.786,o),
(999.13,581,o),
(1007.13,593,cs),
(1015.13,604,o),
(1013.13,619,o),
(1002.13,628,c),
(940.194,669.291,o),
(851.639,669.107,o),
(809.13,608,cs),
(782.13,568,o),
(761.13,496,o),
(741.13,427,cs),
(727.13,385,ls),
(722.13,369,o),
(708.13,360,o),
(694.13,360,cs),
(459.13,360,ls),
(449.13,360,o),
(442.13,370,o),
(445.13,381,cs),
(497.13,548,ls),
(503.881,568.252,o),
(505.167,599.483,o),
(475.13,623,cs),
(436.863,652.96,o),
(398.13,669,o),
(358.13,673,cs),
(271.13,683,o),
(179.13,646,o),
(124.13,577,cs),
(79.13,523,o),
(45.13,435,o),
(80.13,359,cs),
(93.13,331,o),
(128.13,296,o),
(178.13,285,cs),
(206.617,278.67,o),
(243.029,282.95,o),
(269.13,296,c),
(283.13,301,o),
(288.13,317,o),
(282.13,328,cs),
(276.13,342,o),
(261.13,346,o),
(248.13,341,cs),
(238.13,336,o),
(215.13,327,o),
(187.13,332,cs),
(153.13,341,o),
(132.069,365.445,o),
(125.13,380,cs),
(91.046,451.493,o),
(152.13,532,o),
(164.13,547,cs),
(207.13,602,o),
(282.13,632,o),
(351.13,623,cs),
(377.13,620,o),
(402.13,612,o),
(427.13,596,cs),
(444.13,587,o),
(450.13,565,o),
(445.13,547,cs),
(351.13,247,ls),
(332.13,181,o),
(310.13,107,o),
(287.13,74,cs),
(265.13,44,o),
(222.192,43,o),
(214.13,43,cs),
(183.13,43,o),
(161.776,56.774,o),
(151.13,65,cs),
(139.718,73.818,o),
(124.13,70,o),
(116.13,59,cs),
(108.13,48,o),
(111.13,33,o),
(121.13,25,cs),
(137.13,14,o),
(170.13,-6,o),
(214.13,-6,cs)
);
},
{
closed = 1;
nodes = (
(597.756,665.785,o),
(614.408,664.523,o),
(625,674,cs),
(682,725,ls),
(686.216,728.772,o),
(692.87,727.919,o),
(696,723,cs),
(724,679,ls),
(730.408,668.93,o),
(746.117,664.055,o),
(759,672,cs),
(770.098,678.844,o),
(773.672,694.788,o),
(766,707,cs),
(717,785,ls),
(708.801,798.051,o),
(689.476,800.289,o),
(678,790,cs),
(591,712,ls),
(580.418,702.512,o),
(579.751,686.791,o),
(589,676,cs)
);
}
);
width = 946;
}
);
note = Hcircumflex;
unicode = 292;
},
{
glyphname = I;
lastChange = "2025-11-12 14:19:19 +0000";
layers = (
{
guides = (
{
angle = 90;
pos = (572.04,437);
},
{
angle = 90;
pos = (69.04,309);
}
);
layerId = "21C22D19-092A-479F-91CA-8C525B8909B6";
shapes = (
{
closed = 1;
nodes = (
(421.799,663.918,o),
(381.262,669.873,o),
(358.521,672.85,cs),
(271.514,681.782,o),
(182.529,645.061,o),
(129.138,577.574,cs),
(84.645,522.989,o),
(50.04,436.645,o),
(85.634,360.225,cs),
(98.487,332.436,o),
(130.126,297.7,o),
(181.54,286.783,cs),
(212.534,280.56,o),
(243.242,284.504,o),
(271.514,298.693,cs),
(284.367,304.647,o),
(289.311,319.534,o),
(284.367,331.444,cs),
(277.446,343.353,o),
(263.604,349.308,o),
(251.739,342.361,cs),
(239.875,337.399,o),
(218.123,329.459,o),
(191.427,335.414,cs),
(155.833,342.361,o),
(136.059,367.172,o),
(129.138,381.067,cs),
(96.51,453.516,o),
(154.845,531.921,o),
(166.709,547.8,cs),
(210.213,601.393,o),
(282.39,631.167,o),
(353.578,624.22,cs),
(375.448,621.083,o),
(455.718,603.561,o),
(488.044,605.363,cs),
(497.931,606.355,o),
(504.852,596.431,o),
(501.886,587.499,cs),
(392.138,246.092,ls),
(371.375,182.575,o),
(351.6,107.148,o),
(327.871,74.397,cs),
(307.108,44.623,o),
(264.593,44.623,o),
(256.683,44.623,cs),
(226.032,44.623,o),
(204.281,57.525,o),
(193.405,64.472,cs),
(182.529,73.404,o),
(167.698,71.419,o),
(158.799,59.51,cs),
(151.878,48.593,o),
(153.856,33.706,o),
(164.732,24.774,cs),
(179.563,14.849,o),
(212.19,-5,o),
(255.694,-5,cs),
(275.469,-5,o),
(333.803,-2.023,o),
(367.42,44.623,cs),
(396.093,85.314,o),
(415.867,160.741,o),
(439.596,232.198,cs),
(570.108,639.106,ls),
(576.04,657.963,o),
(554.288,678.805,o),
(534.514,667.888,cs),
(510.784,653.993,o),
(479.145,651.016,o),
(444.54,658.956,cs)
);
}
);
userData = {
assembly = "PUSHW[ ]	/* 4 values pushed */
57 3 78 4 
CALL[ ]	/* CallFunction */
PUSHW[ ]	/* 4 values pushed */
3 5 47 4 
CALL[ ]	/* CallFunction */
NPUSHW[ ]	/* 5 values pushed */
218 47 234 47 2 
DELTAP1[ ]	/* DeltaExceptionP1 */
NPUSHW[ ]	/* 27 values pushed */
9 47 25 47 41 47 57 47 73 47 89 47 105 47 121 47 137 47 153 47 169 47 185 47 201 47 13 
DELTAP1[ ]	/* DeltaExceptionP1 */
NPUSHW[ ]	/* 27 values pushed */
6 57 22 57 38 57 54 57 70 57 86 57 102 57 118 57 134 57 150 57 166 57 182 57 198 57 13 
DELTAP1[ ]	/* DeltaExceptionP1 */
NPUSHW[ ]	/* 5 values pushed */
213 57 229 57 2 
DELTAP1[ ]	/* DeltaExceptionP1 */
PUSHW[ ]	/* 1 value pushed */
78 
SRP0[ ]	/* SetRefPoint0 */
PUSHW[ ]	/* 1 value pushed */
68 
MDRP[11100]	/* MoveDirectRelPt */
PUSHW[ ]	/* 1 value pushed */
3 
SRP0[ ]	/* SetRefPoint0 */
PUSHW[ ]	/* 1 value pushed */
92 
MDRP[11100]	/* MoveDirectRelPt */
SVTCA[0]	/* SetFreedomAndProjectionVectorToAxis */
PUSHW[ ]	/* 1 value pushed */
0 
RCVT[ ]	/* ReadCVT */
IF[ ]	/* If */
PUSHW[ ]	/* 1 value pushed */
19 
MDAP[1]	/* MoveDirectAbsPt */
ELSE[ ]	/* Else */
PUSHW[ ]	/* 2 values pushed */
19 6 
MIAP[0]	/* MoveIndirectAbsPt */
EIF[ ]	/* EndIf */
PUSHW[ ]	/* 4 values pushed */
88 2 52 4 
CALL[ ]	/* CallFunction */
PUSHW[ ]	/* 4 values pushed */
62 1 73 4 
CALL[ ]	/* CallFunction */
PUSHW[ ]	/* 1 value pushed */
19 
SRP0[ ]	/* SetRefPoint0 */
PUSHW[ ]	/* 2 values pushed */
30 2 
MIRP[10100]	/* MoveIndirectRelPt */
NPUSHW[ ]	/* 33 values pushed */
7 30 23 30 39 30 55 30 71 30 87 30 103 30 119 30 135 30 151 30 167 30 183 30 199 30 215 30 231 30 247 30 16 
DELTAP1[ ]	/* DeltaExceptionP1 */
NPUSHW[ ]	/* 9 values pushed */
7 30 23 30 39 30 55 30 4 
DELTAP2[ ]	/* DeltaExceptionP2 */
NPUSHW[ ]	/* 5 values pushed */
70 30 86 30 2 
DELTAP2[ ]	/* DeltaExceptionP2 */
IUP[0]	/* InterpolateUntPts */
IUP[1]	/* InterpolateUntPts */";
};
width = 526.39;
}
);
note = I;
unicode = 73;
},
{
glyphname = IJ;
lastChange = "2025-11-12 14:19:19 +0000";
layers = (
{
layerId = "21C22D19-092A-479F-91CA-8C525B8909B6";
shapes = (
{
closed = 1;
nodes = (
(448,-172,ls),
(470,-172,o),
(542.559,-167.405,o),
(583,-111,cs),
(618.563,-61.399,o),
(643.661,32.413,o),
(672,122,cs),
(703,220,ls),
(703.954,223.015,o),
(705.847,225.251,o),
(709,227,cs),
(746.865,248,o),
(762.069,261.172,o),
(780,280,cs),
(788.613,289.044,o),
(798.227,301.942,o),
(788.613,313.479,cs),
(782.612,320.681,o),
(772.006,324.44,o),
(762.545,316.733,cs),
(755.53,311.019,o),
(745.687,303.236,o),
(731.844,294.005,cs),
(729.491,292.436,o),
(726.86,294,o),
(727.844,297.005,cs),
(751.585,369.53,o),
(816.596,570.183,o),
(848.181,645.544,cs),
(856.39,665.129,o),
(848.181,676.355,o),
(835.58,680.47,cs),
(821.089,685.202,o),
(813.174,681.612,o),
(805.63,674.478,cs),
(800.294,669.433,o),
(796.144,660.857,o),
(791.05,658.347,cs),
(738.168,632.295,o),
(648.62,645.544,o),
(616,649,cs),
(417.797,670,o),
(300.627,721.832,o),
(166,584,cs),
(102.072,518.55,o),
(77.75,407.491,o),
(120,308,cs),
(174.675,179.248,o),
(318.248,151.919,o),
(382,178,cs),
(394.032,182.922,o),
(401,197,o),
(396,210,cs),
(391,223,o),
(376.07,228.828,o),
(364,224,cs),
(338.899,213.96,o),
(217,210.998,o),
(166,328,cs),
(129.323,412.142,o),
(161.796,497.87,o),
(201,548,cs),
(294.41,667.443,o),
(431.08,625.189,o),
(613,599,cs),
(638.905,595.271,o),
(718,591,o),
(765,599,cs),
(769.065,599.692,o),
(772.375,596.256,o),
(771,592,cs),
(666,267,ls),
(664.732,263.077,o),
(661.932,260.242,o),
(658,259,cs),
(642.923,254.239,o),
(627.044,249.604,o),
(611,248,cs),
(597.034,246.603,o),
(586.45,233.95,o),
(588,220,cs),
(589.452,206.928,o),
(601,200.014,o),
(613,200,cs),
(628.783,199.982,o),
(649.043,213.447,o),
(643,195,cs),
(624,137,ls),
(597.103,54.893,o),
(572.641,-38.737,o),
(542,-81,cs),
(514.638,-118.74,o),
(460,-122,o),
(448,-122,cs),
(447,-122,ls),
(407.987,-122,o),
(377.962,-104.053,o),
(364,-94,cs),
(352.962,-86.053,o),
(338.317,-88.237,o),
(330,-99,cs),
(321.31,-110.246,o),
(324.032,-125.957,o),
(335,-134,cs),
(354.032,-147.957,o),
(392.991,-172,o),
(447,-172,cs)
);
},
{
closed = 1;
nodes = (
(200.338,364.084,o),
(242.415,295.484,o),
(320,278,cs),
(346.031,272.134,o),
(374,276,o),
(400,288,cs),
(413,294,o),
(417.806,308.905,o),
(412,321,cs),
(405.804,333.908,o),
(391.113,335.768,o),
(379,330,cs),
(370.108,325.766,o),
(351.063,320.272,o),
(330,325,cs),
(261.354,340.41,o),
(240.75,413.36,o),
(295,471,cs),
(333.297,511.69,o),
(385.218,511.871,o),
(443,502,cs),
(483.301,495.115,o),
(509.315,487,o),
(561,487,cs),
(566,487,o),
(569.272,481.922,o),
(568,478,cs),
(565.948,470.244,o),
(479.799,203.755,o),
(444.025,102.396,cs),
(424.551,47.219,o),
(378,44,o),
(370,44,cs),
(345,44,o),
(326.653,54.51,o),
(318,61,cs),
(306.63,69.528,o),
(291,67,o),
(283,56,cs),
(275,45,o),
(277.296,29.427,o),
(289,21,cs),
(345.582,-19.739,o),
(431.08,-13.944,o),
(469,39,cs),
(492.422,71.702,o),
(507.292,127.529,o),
(531,201,cs),
(632,514,ls),
(638.095,532.888,o),
(630.66,545.687,o),
(617,550,cs),
(608.853,552.573,o),
(599,551,o),
(593,545,cs),
(569.706,521.706,o),
(461.018,547.905,o),
(440.461,551,cs),
(362.976,562.666,o),
(304.954,555.475,o),
(258,502,cs),
(243.972,486.024,o),
(226.592,463.851,o),
(219,435,cs)
);
}
);
userData = {
assembly = "PUSHW[ ]	/* 4 values pushed */
94 5 158 4 
CALL[ ]	/* CallFunction */
PUSHW[ ]	/* 4 values pushed */
3 5 45 4 
CALL[ ]	/* CallFunction */
NPUSHW[ ]	/* 5 values pushed */
218 45 234 45 2 
DELTAP1[ ]	/* DeltaExceptionP1 */
NPUSHW[ ]	/* 27 values pushed */
9 45 25 45 41 45 57 45 73 45 89 45 105 45 121 45 137 45 153 45 169 45 185 45 201 45 13 
DELTAP1[ ]	/* DeltaExceptionP1 */
NPUSHW[ ]	/* 5 values pushed */
218 158 234 158 2 
DELTAP1[ ]	/* DeltaExceptionP1 */
NPUSHW[ ]	/* 27 values pushed */
9 158 25 158 41 158 57 158 73 158 89 158 105 158 121 158 137 158 153 158 169 158 185 158 201 158 13 
DELTAP1[ ]	/* DeltaExceptionP1 */
PUSHW[ ]	/* 3 values pushed */
110 158 94 
SRP1[ ]	/* SetRefPoint1 */
SRP2[ ]	/* SetRefPoint2 */
IP[ ]	/* InterpolatePts */
PUSHW[ ]	/* 1 value pushed */
110 
MDAP[1]	/* MoveDirectAbsPt */
PUSHW[ ]	/* 1 value pushed */
146 
MDRP[11100]	/* MoveDirectRelPt */
NPUSHW[ ]	/* 5 values pushed */
218 146 234 146 2 
DELTAP1[ ]	/* DeltaExceptionP1 */
NPUSHW[ ]	/* 27 values pushed */
9 146 25 146 41 146 57 146 73 146 89 146 105 146 121 146 137 146 153 146 169 146 185 146 201 146 13 
DELTAP1[ ]	/* DeltaExceptionP1 */
PUSHW[ ]	/* 1 value pushed */
94 
SRP0[ ]	/* SetRefPoint0 */
PUSHW[ ]	/* 1 value pushed */
197 
MDRP[11100]	/* MoveDirectRelPt */
SVTCA[0]	/* SetFreedomAndProjectionVectorToAxis */
PUSHW[ ]	/* 1 value pushed */
0 
RCVT[ ]	/* ReadCVT */
IF[ ]	/* If */
PUSHW[ ]	/* 1 value pushed */
19 
MDAP[1]	/* MoveDirectAbsPt */
ELSE[ ]	/* Else */
PUSHW[ ]	/* 2 values pushed */
19 6 
MIAP[0]	/* MoveIndirectAbsPt */
EIF[ ]	/* EndIf */
PUSHW[ ]	/* 4 values pushed */
132 1 122 4 
CALL[ ]	/* CallFunction */
PUSHW[ ]	/* 4 values pushed */
83 2 165 4 
CALL[ ]	/* CallFunction */
PUSHW[ ]	/* 4 values pushed */
57 1 68 4 
CALL[ ]	/* CallFunction */
PUSHW[ ]	/* 4 values pushed */
180 1 188 4 
CALL[ ]	/* CallFunction */
PUSHW[ ]	/* 1 value pushed */
19 
SRP0[ ]	/* SetRefPoint0 */
PUSHW[ ]	/* 2 values pushed */
27 1 
MIRP[10100]	/* MoveIndirectRelPt */
NPUSHW[ ]	/* 27 values pushed */
7 27 23 27 39 27 55 27 71 27 87 27 103 27 119 27 135 27 151 27 167 27 183 27 199 27 13 
DELTAP1[ ]	/* DeltaExceptionP1 */
NPUSHW[ ]	/* 5 values pushed */
214 27 230 27 2 
DELTAP1[ ]	/* DeltaExceptionP1 */
PUSHW[ ]	/* 1 value pushed */
19 
SRP0[ ]	/* SetRefPoint0 */
PUSHW[ ]	/* 2 values pushed */
30 2 
MIRP[10100]	/* MoveIndirectRelPt */
NPUSHW[ ]	/* 33 values pushed */
7 30 23 30 39 30 55 30 71 30 87 30 103 30 119 30 135 30 151 30 167 30 183 30 199 30 215 30 231 30 247 30 16 
DELTAP1[ ]	/* DeltaExceptionP1 */
NPUSHW[ ]	/* 9 values pushed */
7 30 23 30 39 30 55 30 4 
DELTAP2[ ]	/* DeltaExceptionP2 */
NPUSHW[ ]	/* 5 values pushed */
70 30 86 30 2 
DELTAP2[ ]	/* DeltaExceptionP2 */
PUSHW[ ]	/* 1 value pushed */
83 
SRP0[ ]	/* SetRefPoint0 */
PUSHW[ ]	/* 1 value pushed */
91 
MDRP[10000]	/* MoveDirectRelPt */
PUSHW[ ]	/* 1 value pushed */
91 
MDAP[1]	/* MoveDirectAbsPt */
PUSHW[ ]	/* 1 value pushed */
68 
SRP0[ ]	/* SetRefPoint0 */
PUSHW[ ]	/* 1 value pushed */
107 
MDRP[10000]	/* MoveDirectRelPt */
PUSHW[ ]	/* 1 value pushed */
107 
MDAP[1]	/* MoveDirectAbsPt */
PUSHW[ ]	/* 1 value pushed */
188 
SRP0[ ]	/* SetRefPoint0 */
PUSHW[ ]	/* 2 values pushed */
175 1 
MIRP[10100]	/* MoveIndirectRelPt */
IUP[0]	/* InterpolateUntPts */
IUP[1]	/* InterpolateUntPts */";
};
width = 845;
}
);
note = IJ;
unicode = 306;
},
{
glyphname = Iacute;
lastChange = "2025-11-12 14:19:19 +0000";
layers = (
{
layerId = "21C22D19-092A-479F-91CA-8C525B8909B6";
shapes = (
{
closed = 1;
nodes = (
(421.799,663.918,o),
(381.262,669.873,o),
(358.521,672.85,cs),
(271.514,681.782,o),
(182.529,645.061,o),
(129.138,577.574,cs),
(84.645,522.989,o),
(50.04,436.645,o),
(85.634,360.225,cs),
(98.487,332.436,o),
(130.126,297.7,o),
(181.54,286.783,cs),
(212.534,280.56,o),
(243.242,284.504,o),
(271.514,298.693,cs),
(284.367,304.647,o),
(289.311,319.534,o),
(284.367,331.444,cs),
(277.446,343.353,o),
(263.604,349.308,o),
(251.739,342.361,cs),
(239.875,337.399,o),
(218.123,329.459,o),
(191.427,335.414,cs),
(155.833,342.361,o),
(136.059,367.172,o),
(129.138,381.067,cs),
(96.51,453.516,o),
(154.845,531.921,o),
(166.709,547.8,cs),
(210.213,601.393,o),
(282.39,631.167,o),
(353.578,624.22,cs),
(375.448,621.083,o),
(455.718,603.561,o),
(488.044,605.363,cs),
(497.931,606.355,o),
(504.852,596.431,o),
(501.886,587.499,cs),
(392.138,246.092,ls),
(371.375,182.575,o),
(351.6,107.148,o),
(327.871,74.397,cs),
(307.108,44.623,o),
(264.593,44.623,o),
(256.683,44.623,cs),
(226.032,44.623,o),
(204.281,57.525,o),
(193.405,64.472,cs),
(182.529,73.404,o),
(167.698,71.419,o),
(158.799,59.51,cs),
(151.878,48.593,o),
(153.856,33.706,o),
(164.732,24.774,cs),
(179.563,14.849,o),
(212.19,-5,o),
(255.694,-5,cs),
(275.469,-5,o),
(333.803,-2.023,o),
(367.42,44.623,cs),
(396.093,85.314,o),
(415.867,160.741,o),
(439.596,232.198,cs),
(570.108,639.106,ls),
(576.04,657.963,o),
(554.288,678.805,o),
(534.514,667.888,cs),
(510.784,653.993,o),
(479.145,651.016,o),
(444.54,658.956,cs)
);
},
{
closed = 1;
nodes = (
(364.11,741.875,o),
(386.073,706.893,o),
(411,724,cs),
(437.073,741.894,o),
(492.902,784.106,o),
(521,810,cs),
(543.903,831.106,o),
(516.902,865.128,o),
(488,843,cs),
(452.902,816.128,o),
(400.111,773.876,o),
(380,756,cs)
);
}
);
width = 530;
}
);
note = Iacute;
unicode = 205;
},
{
glyphname = Ibreve;
lastChange = "2025-11-12 14:19:19 +0000";
layers = (
{
layerId = "21C22D19-092A-479F-91CA-8C525B8909B6";
shapes = (
{
closed = 1;
nodes = (
(421.799,663.918,o),
(381.262,669.873,o),
(358.521,672.85,cs),
(271.514,681.782,o),
(182.529,645.061,o),
(129.138,577.574,cs),
(84.645,522.989,o),
(50.04,436.645,o),
(85.634,360.225,cs),
(98.487,332.436,o),
(130.126,297.7,o),
(181.54,286.783,cs),
(212.534,280.56,o),
(243.242,284.504,o),
(271.514,298.693,cs),
(284.367,304.647,o),
(289.311,319.534,o),
(284.367,331.444,cs),
(277.446,343.353,o),
(263.604,349.308,o),
(251.739,342.361,cs),
(239.875,337.399,o),
(218.123,329.459,o),
(191.427,335.414,cs),
(155.833,342.361,o),
(136.059,367.172,o),
(129.138,381.067,cs),
(96.51,453.516,o),
(154.845,531.921,o),
(166.709,547.8,cs),
(210.213,601.393,o),
(282.39,631.167,o),
(353.578,624.22,cs),
(375.448,621.083,o),
(455.718,603.561,o),
(488.044,605.363,cs),
(497.931,606.355,o),
(504.852,596.431,o),
(501.886,587.499,cs),
(392.138,246.092,ls),
(371.375,182.575,o),
(351.6,107.148,o),
(327.871,74.397,cs),
(307.108,44.623,o),
(264.593,44.623,o),
(256.683,44.623,cs),
(226.032,44.623,o),
(204.281,57.525,o),
(193.405,64.472,cs),
(182.529,73.404,o),
(167.698,71.419,o),
(158.799,59.51,cs),
(151.878,48.593,o),
(153.856,33.706,o),
(164.732,24.774,cs),
(179.563,14.849,o),
(212.19,-5,o),
(255.694,-5,cs),
(275.469,-5,o),
(333.803,-2.023,o),
(367.42,44.623,cs),
(396.093,85.314,o),
(415.867,160.741,o),
(439.596,232.198,cs),
(570.108,639.106,ls),
(576.04,657.963,o),
(554.288,678.805,o),
(534.514,667.888,cs),
(510.784,653.993,o),
(479.145,651.016,o),
(444.54,658.956,cs)
);
},
{
closed = 1;
nodes = (
(400.674,760.017,o),
(433.799,717,o),
(487.63,717,cs),
(538.53,717,o),
(587.514,757.19,o),
(593,809,cs),
(594.268,820.975,o),
(584.952,832.505,o),
(572,834,cs),
(558.934,835.508,o),
(547.622,827.053,o),
(546,814,cs),
(542.38,784.872,o),
(517.024,765,o),
(489.63,765,cs),
(464.43,765,o),
(450,788.8,o),
(450,814,cs),
(450,827.038,o),
(440.003,837.04,o),
(428,838,cs),
(415.003,839.04,o),
(403.541,829.027,o),
(403,816,cs)
);
}
);
width = 530;
}
);
note = Ibreve;
unicode = 300;
},
{
glyphname = Icircumflex;
lastChange = "2025-11-12 14:19:19 +0000";
layers = (
{
layerId = "21C22D19-092A-479F-91CA-8C525B8909B6";
shapes = (
{
closed = 1;
nodes = (
(421.799,663.918,o),
(381.262,669.873,o),
(358.521,672.85,cs),
(271.514,681.782,o),
(182.529,645.061,o),
(129.138,577.574,cs),
(84.645,522.989,o),
(50.04,436.645,o),
(85.634,360.225,cs),
(98.487,332.436,o),
(130.126,297.7,o),
(181.54,286.783,cs),
(212.534,280.56,o),
(243.242,284.504,o),
(271.514,298.693,cs),
(284.367,304.647,o),
(289.311,319.534,o),
(284.367,331.444,cs),
(277.446,343.353,o),
(263.604,349.308,o),
(251.739,342.361,cs),
(239.875,337.399,o),
(218.123,329.459,o),
(191.427,335.414,cs),
(155.833,342.361,o),
(136.059,367.172,o),
(129.138,381.067,cs),
(96.51,453.516,o),
(154.845,531.921,o),
(166.709,547.8,cs),
(210.213,601.393,o),
(282.39,631.167,o),
(353.578,624.22,cs),
(375.448,621.083,o),
(455.718,603.561,o),
(488.044,605.363,cs),
(497.931,606.355,o),
(504.852,596.431,o),
(501.886,587.499,cs),
(392.138,246.092,ls),
(371.375,182.575,o),
(351.6,107.148,o),
(327.871,74.397,cs),
(307.108,44.623,o),
(264.593,44.623,o),
(256.683,44.623,cs),
(226.032,44.623,o),
(204.281,57.525,o),
(193.405,64.472,cs),
(182.529,73.404,o),
(167.698,71.419,o),
(158.799,59.51,cs),
(151.878,48.593,o),
(153.856,33.706,o),
(164.732,24.774,cs),
(179.563,14.849,o),
(212.19,-5,o),
(255.694,-5,cs),
(275.469,-5,o),
(333.803,-2.023,o),
(367.42,44.623,cs),
(396.093,85.314,o),
(415.867,160.741,o),
(439.596,232.198,cs),
(570.108,639.106,ls),
(576.04,657.963,o),
(554.288,678.805,o),
(534.514,667.888,cs),
(510.784,653.993,o),
(479.145,651.016,o),
(444.54,658.956,cs)
);
},
{
closed = 1;
nodes = (
(413.756,748.785,o),
(430.408,747.523,o),
(441,757,cs),
(498,808,ls),
(502.216,811.772,o),
(508.87,810.919,o),
(512,806,cs),
(540,762,ls),
(546.408,751.93,o),
(562.117,747.055,o),
(575,755,cs),
(586.098,761.844,o),
(589.672,777.788,o),
(582,790,cs),
(533,868,ls),
(524.801,881.051,o),
(505.476,883.289,o),
(494,873,cs),
(407,795,ls),
(396.418,785.512,o),
(395.751,769.791,o),
(405,759,cs)
);
}
);
width = 530;
}
);
note = Icircumflex;
unicode = 206;
},
{
glyphname = Idieresis;
lastChange = "2025-11-12 14:19:19 +0000";
layers = (
{
layerId = "21C22D19-092A-479F-91CA-8C525B8909B6";
shapes = (
{
closed = 1;
nodes = (
(421.799,663.918,o),
(381.262,669.873,o),
(358.521,672.85,cs),
(271.514,681.782,o),
(182.529,645.061,o),
(129.138,577.574,cs),
(84.645,522.989,o),
(50.04,436.645,o),
(85.634,360.225,cs),
(98.487,332.436,o),
(130.126,297.7,o),
(181.54,286.783,cs),
(212.534,280.56,o),
(243.242,284.504,o),
(271.514,298.693,cs),
(284.367,304.647,o),
(289.311,319.534,o),
(284.367,331.444,cs),
(277.446,343.353,o),
(263.604,349.308,o),
(251.739,342.361,cs),
(239.875,337.399,o),
(218.123,329.459,o),
(191.427,335.414,cs),
(155.833,342.361,o),
(136.059,367.172,o),
(129.138,381.067,cs),
(96.51,453.516,o),
(154.845,531.921,o),
(166.709,547.8,cs),
(210.213,601.393,o),
(282.39,631.167,o),
(353.578,624.22,cs),
(375.448,621.083,o),
(455.718,603.561,o),
(488.044,605.363,cs),
(497.931,606.355,o),
(504.852,596.431,o),
(501.886,587.499,cs),
(392.138,246.092,ls),
(371.375,182.575,o),
(351.6,107.148,o),
(327.871,74.397,cs),
(307.108,44.623,o),
(264.593,44.623,o),
(256.683,44.623,cs),
(226.032,44.623,o),
(204.281,57.525,o),
(193.405,64.472,cs),
(182.529,73.404,o),
(167.698,71.419,o),
(158.799,59.51,cs),
(151.878,48.593,o),
(153.856,33.706,o),
(164.732,24.774,cs),
(179.563,14.849,o),
(212.19,-5,o),
(255.694,-5,cs),
(275.469,-5,o),
(333.803,-2.023,o),
(367.42,44.623,cs),
(396.093,85.314,o),
(415.867,160.741,o),
(439.596,232.198,cs),
(570.108,639.106,ls),
(576.04,657.963,o),
(554.288,678.805,o),
(534.514,667.888,cs),
(510.784,653.993,o),
(479.145,651.016,o),
(444.54,658.956,cs)
);
},
{
closed = 1;
nodes = (
(372,736,o),
(382,728,o),
(397,728,cs),
(423,728,o),
(466,768,o),
(466,791,cs),
(466,802,o),
(452,810,o),
(443,810,cs),
(417,810,o),
(372,774,o),
(372,751,cs)
);
},
{
closed = 1;
nodes = (
(535,734,o),
(547,727,o),
(558,727,cs),
(582,727,o),
(634.208,766.091,o),
(634,792,cs),
(633.904,804,o),
(620.289,812.006,o),
(607.404,810,cs),
(576.238,805.149,o),
(535,769,o),
(535,746,cs)
);
}
);
width = 589;
}
);
note = Idieresis;
unicode = 207;
},
{
glyphname = Idotaccent;
lastChange = "2025-11-12 14:19:19 +0000";
layers = (
{
layerId = "21C22D19-092A-479F-91CA-8C525B8909B6";
shapes = (
{
closed = 1;
nodes = (
(421.799,663.918,o),
(381.262,669.873,o),
(358.521,672.85,cs),
(271.514,681.782,o),
(182.529,645.061,o),
(129.138,577.574,cs),
(84.645,522.989,o),
(50.04,436.645,o),
(85.634,360.225,cs),
(98.487,332.436,o),
(130.126,297.7,o),
(181.54,286.783,cs),
(212.534,280.56,o),
(243.242,284.504,o),
(271.514,298.693,cs),
(284.367,304.647,o),
(289.311,319.534,o),
(284.367,331.444,cs),
(277.446,343.353,o),
(263.604,349.308,o),
(251.739,342.361,cs),
(239.875,337.399,o),
(218.123,329.459,o),
(191.427,335.414,cs),
(155.833,342.361,o),
(136.059,367.172,o),
(129.138,381.067,cs),
(96.51,453.516,o),
(154.845,531.921,o),
(166.709,547.8,cs),
(210.213,601.393,o),
(282.39,631.167,o),
(353.578,624.22,cs),
(375.448,621.083,o),
(455.718,603.561,o),
(488.044,605.363,cs),
(497.931,606.355,o),
(504.852,596.431,o),
(501.886,587.499,cs),
(392.138,246.092,ls),
(371.375,182.575,o),
(351.6,107.148,o),
(327.871,74.397,cs),
(307.108,44.623,o),
(264.593,44.623,o),
(256.683,44.623,cs),
(226.032,44.623,o),
(204.281,57.525,o),
(193.405,64.472,cs),
(182.529,73.404,o),
(167.698,71.419,o),
(158.799,59.51,cs),
(151.878,48.593,o),
(153.856,33.706,o),
(164.732,24.774,cs),
(179.563,14.849,o),
(212.19,-5,o),
(255.694,-5,cs),
(275.469,-5,o),
(333.803,-2.023,o),
(367.42,44.623,cs),
(396.093,85.314,o),
(415.867,160.741,o),
(439.596,232.198,cs),
(570.108,639.106,ls),
(576.04,657.963,o),
(554.288,678.805,o),
(534.514,667.888,cs),
(510.784,653.993,o),
(479.145,651.016,o),
(444.54,658.956,cs)
);
},
{
closed = 1;
nodes = (
(381,745,o),
(388,719,o),
(409,719,cs),
(430,719,o),
(456,745,o),
(467,778,cs),
(478,811,o),
(469,837,o),
(448,837,cs),
(427,837,o),
(403,811,o),
(392,778,cs)
);
}
);
width = 530;
}
);
note = Idotaccent;
unicode = 304;
},
{
glyphname = Igrave;
lastChange = "2025-11-12 14:19:19 +0000";
layers = (
{
layerId = "21C22D19-092A-479F-91CA-8C525B8909B6";
shapes = (
{
closed = 1;
nodes = (
(421.799,663.918,o),
(381.262,669.873,o),
(358.521,672.85,cs),
(271.514,681.782,o),
(182.529,645.061,o),
(129.138,577.574,cs),
(84.645,522.989,o),
(50.04,436.645,o),
(85.634,360.225,cs),
(98.487,332.436,o),
(130.126,297.7,o),
(181.54,286.783,cs),
(212.534,280.56,o),
(243.242,284.504,o),
(271.514,298.693,cs),
(284.367,304.647,o),
(289.311,319.534,o),
(284.367,331.444,cs),
(277.446,343.353,o),
(263.604,349.308,o),
(251.739,342.361,cs),
(239.875,337.399,o),
(218.123,329.459,o),
(191.427,335.414,cs),
(155.833,342.361,o),
(136.059,367.172,o),
(129.138,381.067,cs),
(96.51,453.516,o),
(154.845,531.921,o),
(166.709,547.8,cs),
(210.213,601.393,o),
(282.39,631.167,o),
(353.578,624.22,cs),
(375.448,621.083,o),
(455.718,603.561,o),
(488.044,605.363,cs),
(497.931,606.355,o),
(504.852,596.431,o),
(501.886,587.499,cs),
(392.138,246.092,ls),
(371.375,182.575,o),
(351.6,107.148,o),
(327.871,74.397,cs),
(307.108,44.623,o),
(264.593,44.623,o),
(256.683,44.623,cs),
(226.032,44.623,o),
(204.281,57.525,o),
(193.405,64.472,cs),
(182.529,73.404,o),
(167.698,71.419,o),
(158.799,59.51,cs),
(151.878,48.593,o),
(153.856,33.706,o),
(164.732,24.774,cs),
(179.563,14.849,o),
(212.19,-5,o),
(255.694,-5,cs),
(275.469,-5,o),
(333.803,-2.023,o),
(367.42,44.623,cs),
(396.093,85.314,o),
(415.867,160.741,o),
(439.596,232.198,cs),
(570.108,639.106,ls),
(576.04,657.963,o),
(554.288,678.805,o),
(534.514,667.888,cs),
(510.784,653.993,o),
(479.145,651.016,o),
(444.54,658.956,cs)
);
},
{
closed = 1;
nodes = (
(362.975,819.976,o),
(411.077,778.09,o),
(439,754,cs),
(462.078,734.09,o),
(495,766,o),
(471,787,cs),
(439,815,o),
(391.187,857.211,o),
(372,874,cs),
(351.185,892.213,o),
(322,863,o),
(342,842,cs)
);
}
);
width = 530;
}
);
note = Igrave;
unicode = 204;
},
{
glyphname = Imacron;
lastChange = "2025-11-12 14:19:19 +0000";
layers = (
{
layerId = "21C22D19-092A-479F-91CA-8C525B8909B6";
shapes = (
{
closed = 1;
nodes = (
(421.799,663.918,o),
(381.262,669.873,o),
(358.521,672.85,cs),
(271.514,681.782,o),
(182.529,645.061,o),
(129.138,577.574,cs),
(84.645,522.989,o),
(50.04,436.645,o),
(85.634,360.225,cs),
(98.487,332.436,o),
(130.126,297.7,o),
(181.54,286.783,cs),
(212.534,280.56,o),
(243.242,284.504,o),
(271.514,298.693,cs),
(284.367,304.647,o),
(289.311,319.534,o),
(284.367,331.444,cs),
(277.446,343.353,o),
(263.604,349.308,o),
(251.739,342.361,cs),
(239.875,337.399,o),
(218.123,329.459,o),
(191.427,335.414,cs),
(155.833,342.361,o),
(136.059,367.172,o),
(129.138,381.067,cs),
(96.51,453.516,o),
(154.845,531.921,o),
(166.709,547.8,cs),
(210.213,601.393,o),
(282.39,631.167,o),
(353.578,624.22,cs),
(375.448,621.083,o),
(455.718,603.561,o),
(488.044,605.363,cs),
(497.931,606.355,o),
(504.852,596.431,o),
(501.886,587.499,cs),
(392.138,246.092,ls),
(371.375,182.575,o),
(351.6,107.148,o),
(327.871,74.397,cs),
(307.108,44.623,o),
(264.593,44.623,o),
(256.683,44.623,cs),
(226.032,44.623,o),
(204.281,57.525,o),
(193.405,64.472,cs),
(182.529,73.404,o),
(167.698,71.419,o),
(158.799,59.51,cs),
(151.878,48.593,o),
(153.856,33.706,o),
(164.732,24.774,cs),
(179.563,14.849,o),
(212.19,-5,o),
(255.694,-5,cs),
(275.469,-5,o),
(333.803,-2.023,o),
(367.42,44.623,cs),
(396.093,85.314,o),
(415.867,160.741,o),
(439.596,232.198,cs),
(570.108,639.106,ls),
(576.04,657.963,o),
(554.288,678.805,o),
(534.514,667.888,cs),
(510.784,653.993,o),
(479.145,651.016,o),
(444.54,658.956,cs)
);
},
{
closed = 1;
nodes = (
(329,766,o),
(337,755,o),
(348,755,cs),
(577,755,ls),
(587,755,o),
(595,766,o),
(595,777,cs),
(595,789,o),
(587,799,o),
(577,799,cs),
(348,799,ls),
(337,799,o),
(329,789,o),
(329,777,cs)
);
}
);
width = 530;
}
);
note = Imacron;
unicode = 298;
},
{
glyphname = Iogonek;
lastChange = "2025-11-12 14:19:19 +0000";
layers = (
{
layerId = "21C22D19-092A-479F-91CA-8C525B8909B6";
shapes = (
{
closed = 1;
nodes = (
(336.187,14.818,o),
(353.428,26.707,o),
(367,45,cs),
(396,86,o),
(417,162,o),
(440,234,cs),
(572,644,ls),
(578,663,o),
(556,684,o),
(536,673,cs),
(512,659,o),
(480,656,o),
(445,664,cs),
(422,669,o),
(381,675,o),
(358,678,cs),
(270,687,o),
(180,650,o),
(126,582,cs),
(81,527,o),
(46,440,o),
(82,363,cs),
(95,335,o),
(127,300,o),
(179,289,cs),
(210.348,282.73,o),
(241.406,286.703,o),
(270,301,cs),
(283,307,o),
(288,322,o),
(283,334,cs),
(276,346,o),
(262,352,o),
(250,345,cs),
(238,340,o),
(216,332,o),
(189,338,cs),
(153,345,o),
(133,370,o),
(126,384,cs),
(93,457,o),
(152,536,o),
(164,552,cs),
(208,606,o),
(281,636,o),
(353,629,cs),
(374,626,o),
(413,620,o),
(434,615,cs),
(453,611,o),
(471,609,o),
(489,610,cs),
(499,611,o),
(506,601,o),
(503,592,cs),
(392,248,ls),
(371,184,o),
(351,108,o),
(327,75,cs),
(306,45,o),
(263,45,o),
(255,45,cs),
(224,45,o),
(202,58,o),
(191,65,cs),
(180,74,o),
(165,72,o),
(156,60,cs),
(149,49,o),
(151,34,o),
(162,25,cs),
(173.75,17.166,o),
(196.546,3.196,o),
(227.023,-2.489,c),
(223.746,-7.825,o),
(220.738,-13.55,o),
(218.036,-19.674,cs),
(192.786,-75.226,o),
(218.799,-133.442,o),
(259.563,-157.348,cs),
(279.06,-168.782,o),
(308.854,-180.551,o),
(340.428,-180.36,cs),
(358.063,-180.254,o),
(368.841,-176.708,o),
(374,-167.934,cs),
(382.464,-153.54,o),
(371.482,-141.707,o),
(352.536,-137.377,cs),
(326.976,-131.536,o),
(314.751,-133.367,o),
(293.097,-121.054,cs),
(265.03,-105.095,o),
(249.881,-72.964,o),
(262.878,-43.07,cs),
(274.971,-15.702,o),
(291.568,-4.135,o),
(316.819,6.571,cs),
(317.356,6.792,o),
(317.893,7.017,o),
(318.429,7.246,cs)
);
}
);
userData = {
assembly = "PUSHW[ ]	/* 4 values pushed */
61 3 82 4 
CALL[ ]	/* CallFunction */
PUSHW[ ]	/* 4 values pushed */
98 5 51 4 
CALL[ ]	/* CallFunction */
PUSHW[ ]	/* 1 value pushed */
82 
SRP0[ ]	/* SetRefPoint0 */
PUSHW[ ]	/* 1 value pushed */
72 
MDRP[11100]	/* MoveDirectRelPt */
PUSHW[ ]	/* 3 values pushed */
25 82 72 
SRP1[ ]	/* SetRefPoint1 */
SRP2[ ]	/* SetRefPoint2 */
IP[ ]	/* InterpolatePts */
NPUSHW[ ]	/* 5 values pushed */
218 51 234 51 2 
DELTAP1[ ]	/* DeltaExceptionP1 */
NPUSHW[ ]	/* 27 values pushed */
9 51 25 51 41 51 57 51 73 51 89 51 105 51 121 51 137 51 153 51 169 51 185 51 201 51 13 
DELTAP1[ ]	/* DeltaExceptionP1 */
NPUSHW[ ]	/* 27 values pushed */
6 61 22 61 38 61 54 61 70 61 86 61 102 61 118 61 134 61 150 61 166 61 182 61 198 61 13 
DELTAP1[ ]	/* DeltaExceptionP1 */
NPUSHW[ ]	/* 5 values pushed */
213 61 229 61 2 
DELTAP1[ ]	/* DeltaExceptionP1 */
PUSHW[ ]	/* 1 value pushed */
98 
SRP0[ ]	/* SetRefPoint0 */
PUSHW[ ]	/* 1 value pushed */
115 
MDRP[11100]	/* MoveDirectRelPt */
SVTCA[0]	/* SetFreedomAndProjectionVectorToAxis */
PUSHW[ ]	/* 3 values pushed */
77 36 3 
CALL[ ]	/* CallFunction */
PUSHW[ ]	/* 1 value pushed */
77 
SRP0[ ]	/* SetRefPoint0 */
PUSHW[ ]	/* 1 value pushed */
33 
MDRP[11100]	/* MoveDirectRelPt */
IUP[0]	/* InterpolateUntPts */
IUP[1]	/* InterpolateUntPts */";
};
width = 561;
}
);
note = Iogonek;
unicode = 302;
},
{
glyphname = Itilde;
lastChange = "2025-11-12 14:19:19 +0000";
layers = (
{
layerId = "21C22D19-092A-479F-91CA-8C525B8909B6";
shapes = (
{
closed = 1;
nodes = (
(421.799,663.918,o),
(381.262,669.873,o),
(358.521,672.85,cs),
(271.514,681.782,o),
(182.529,645.061,o),
(129.138,577.574,cs),
(84.645,522.989,o),
(50.04,436.645,o),
(85.634,360.225,cs),
(98.487,332.436,o),
(130.126,297.7,o),
(181.54,286.783,cs),
(212.534,280.56,o),
(243.242,284.504,o),
(271.514,298.693,cs),
(284.367,304.647,o),
(289.311,319.534,o),
(284.367,331.444,cs),
(277.446,343.353,o),
(263.604,349.308,o),
(251.739,342.361,cs),
(239.875,337.399,o),
(218.123,329.459,o),
(191.427,335.414,cs),
(155.833,342.361,o),
(136.059,367.172,o),
(129.138,381.067,cs),
(96.51,453.516,o),
(154.845,531.921,o),
(166.709,547.8,cs),
(210.213,601.393,o),
(282.39,631.167,o),
(353.578,624.22,cs),
(375.448,621.083,o),
(455.718,603.561,o),
(488.044,605.363,cs),
(497.931,606.355,o),
(504.852,596.431,o),
(501.886,587.499,cs),
(392.138,246.092,ls),
(371.375,182.575,o),
(351.6,107.148,o),
(327.871,74.397,cs),
(307.108,44.623,o),
(264.593,44.623,o),
(256.683,44.623,cs),
(226.032,44.623,o),
(204.281,57.525,o),
(193.405,64.472,cs),
(182.529,73.404,o),
(167.698,71.419,o),
(158.799,59.51,cs),
(151.878,48.593,o),
(153.856,33.706,o),
(164.732,24.774,cs),
(179.563,14.849,o),
(212.19,-5,o),
(255.694,-5,cs),
(275.469,-5,o),
(333.803,-2.023,o),
(367.42,44.623,cs),
(396.093,85.314,o),
(415.867,160.741,o),
(439.596,232.198,cs),
(570.108,639.106,ls),
(576.04,657.963,o),
(554.288,678.805,o),
(534.514,667.888,cs),
(510.784,653.993,o),
(479.145,651.016,o),
(444.54,658.956,cs)
);
},
{
closed = 1;
nodes = (
(310.295,737.964,o),
(313.096,725.188,o),
(323,720,cs),
(334.099,714.186,o),
(346,718,o),
(354,729,c),
(377.487,754.481,o),
(391.336,775,o),
(404,775,cs),
(417,775,o),
(421.919,767.951,o),
(428,758,cs),
(441.589,735.763,o),
(455.34,719,o),
(484,719,cs),
(508,719,o),
(531.477,730.636,o),
(552,758,cs),
(564.485,774.647,o),
(573,792,o),
(573,792,c),
(579,803,o),
(572.9,814.735,o),
(562,819,cs),
(549.894,823.737,o),
(537,819,o),
(532,809,c),
(532,809,o),
(521.67,792.24,o),
(513,780,cs),
(504.664,768.231,o),
(497,766,o),
(488,766,cs),
(480,766,o),
(470.721,774.734,o),
(465,781,cs),
(447.15,800.55,o),
(439,822,o),
(406,822,cs),
(383,822,o),
(361.183,807.843,o),
(338,781,cs),
(323.181,763.842,o),
(315.035,752.047,o),
(313,746,cs)
);
}
);
width = 530;
}
);
note = Itilde;
unicode = 296;
},
{
glyphname = J;
lastChange = "2025-11-12 14:19:19 +0000";
layers = (
{
guides = (
{
angle = 90;
pos = (633,299);
},
{
angle = 90;
pos = (45,414);
}
);
layerId = "21C22D19-092A-479F-91CA-8C525B8909B6";
shapes = (
{
closed = 1;
nodes = (
(240.072,-200.35,o),
(302.057,-195.37,o),
(337.181,-148.882,cs),
(368.092,-107.971,o),
(390.591,-31.38,o),
(411.955,40.481,cs),
(457.597,182.261,ls),
(460.51,191.972,o),
(468.507,200.279,o),
(477.99,205.567,cs),
(521.477,229.821,o),
(550.214,254.146,o),
(565.388,268.688,cs),
(575.099,278.399,o),
(575.099,294.908,o),
(564.417,305.59,cs),
(554.706,314.329,o),
(538.197,314.329,o),
(529.457,304.618,cs),
(520.717,296.85,o),
(513.92,290.052,o),
(505.18,283.254,cs),
(499.354,277.428,o),
(494.047,273.995,o),
(490.614,277.428,cs),
(489.078,278.963,o),
(490.592,285.203,o),
(501.296,318.214,cs),
(605.202,638.674,ls),
(612,659.067,o),
(589.665,680.431,o),
(568.301,668.778,cs),
(519.356,639.411,o),
(431.439,668.042,o),
(386.707,673.634,cs),
(295.425,682.374,o),
(205.113,645.472,o),
(148.79,575.553,cs),
(104.12,519.23,o),
(67.218,429.889,o),
(104.12,351.231,cs),
(117.715,323.069,o),
(150.732,287.139,o),
(204.142,276.457,cs),
(234.718,270.341,o),
(269.477,274.165,o),
(297.367,288.11,cs),
(309.991,293.936,o),
(314.846,309.474,o),
(309.991,322.098,cs),
(303.193,334.722,o),
(288.627,339.578,o),
(276.003,333.751,cs),
(264.35,328.896,o),
(240.072,320.156,o),
(213.853,325.982,cs),
(177.923,333.751,o),
(156.559,359,o),
(149.761,373.566,cs),
(114.802,447.369,o),
(175.98,528.941,o),
(188.605,544.478,cs),
(234.246,600.802,o),
(308.049,630.906,o),
(381.852,622.166,cs),
(402.734,620.177,o),
(490.41,602.171,o),
(519.746,603.715,cs),
(530.428,604.686,o),
(538.197,594.975,o),
(534.313,585.264,cs),
(432.348,268.688,ls),
(423.928,243.426,o),
(393.769,226.931,o),
(372.141,226.931,cs),
(358.545,225.96,o),
(348.834,213.336,o),
(349.806,198.769,cs),
(351.748,186.145,o),
(362.437,176.013,o),
(375.054,176.434,cs),
(389.851,176.929,o),
(399.864,181.196,o),
(401.273,178.376,c),
(402.244,177.405,o),
(400.302,172.55,o),
(362.43,56.019,cs),
(340.369,-10.165,o),
(320.363,-86.497,o),
(295.425,-119.749,cs),
(273.749,-148.65,o),
(229.39,-149.853,o),
(221.622,-149.853,cs),
(189.576,-149.853,o),
(166.209,-137.311,o),
(155.587,-129.46,cs),
(143.874,-120.802,o),
(127.752,-122.887,o),
(119.657,-134.315,cs),
(111.238,-146.202,o),
(113.583,-161.858,o),
(124.513,-169.275,cs),
(140.783,-180.316,o),
(175.98,-200.35,o),
(221.622,-200.35,cs)
);
}
);
userData = {
assembly = "PUSHW[ ]	/* 4 values pushed */
11 5 75 4 
CALL[ ]	/* CallFunction */
NPUSHW[ ]	/* 5 values pushed */
218 75 234 75 2 
DELTAP1[ ]	/* DeltaExceptionP1 */
NPUSHW[ ]	/* 27 values pushed */
9 75 25 75 41 75 57 75 73 75 89 75 105 75 121 75 137 75 153 75 169 75 185 75 201 75 13 
DELTAP1[ ]	/* DeltaExceptionP1 */
PUSHW[ ]	/* 3 values pushed */
27 75 11 
SRP1[ ]	/* SetRefPoint1 */
SRP2[ ]	/* SetRefPoint2 */
IP[ ]	/* InterpolatePts */
PUSHW[ ]	/* 1 value pushed */
27 
MDAP[1]	/* MoveDirectAbsPt */
PUSHW[ ]	/* 1 value pushed */
58 
MDRP[11100]	/* MoveDirectRelPt */
NPUSHW[ ]	/* 5 values pushed */
218 58 234 58 2 
DELTAP1[ ]	/* DeltaExceptionP1 */
NPUSHW[ ]	/* 27 values pushed */
9 58 25 58 41 58 57 58 73 58 89 58 105 58 121 58 137 58 153 58 169 58 185 58 201 58 13 
DELTAP1[ ]	/* DeltaExceptionP1 */
PUSHW[ ]	/* 1 value pushed */
11 
SRP0[ ]	/* SetRefPoint0 */
PUSHW[ ]	/* 1 value pushed */
112 
MDRP[11100]	/* MoveDirectRelPt */
SVTCA[0]	/* SetFreedomAndProjectionVectorToAxis */
PUSHW[ ]	/* 4 values pushed */
49 1 39 4 
CALL[ ]	/* CallFunction */
PUSHW[ ]	/* 4 values pushed */
0 2 80 4 
CALL[ ]	/* CallFunction */
PUSHW[ ]	/* 4 values pushed */
95 1 103 4 
CALL[ ]	/* CallFunction */
PUSHW[ ]	/* 1 value pushed */
0 
SRP0[ ]	/* SetRefPoint0 */
PUSHW[ ]	/* 1 value pushed */
8 
MDRP[10000]	/* MoveDirectRelPt */
PUSHW[ ]	/* 1 value pushed */
8 
MDAP[1]	/* MoveDirectAbsPt */
PUSHW[ ]	/* 1 value pushed */
103 
SRP0[ ]	/* SetRefPoint0 */
PUSHW[ ]	/* 2 values pushed */
90 1 
MIRP[10100]	/* MoveIndirectRelPt */
IUP[0]	/* InterpolateUntPts */
IUP[1]	/* InterpolateUntPts */";
};
width = 601.04;
}
);
note = J;
unicode = 74;
},
{
glyphname = Jcircumflex;
lastChange = "2025-11-12 14:19:19 +0000";
layers = (
{
layerId = "21C22D19-092A-479F-91CA-8C525B8909B6";
shapes = (
{
closed = 1;
nodes = (
(240.072,-200.35,o),
(302.057,-195.37,o),
(337.181,-148.882,cs),
(368.092,-107.971,o),
(390.591,-31.38,o),
(411.955,40.481,cs),
(457.597,182.261,ls),
(460.51,191.972,o),
(468.507,200.279,o),
(477.99,205.567,cs),
(521.477,229.821,o),
(550.214,254.146,o),
(565.388,268.688,cs),
(575.099,278.399,o),
(575.099,294.908,o),
(564.417,305.59,cs),
(554.706,314.329,o),
(538.197,314.329,o),
(529.457,304.618,cs),
(520.717,296.85,o),
(513.92,290.052,o),
(505.18,283.254,cs),
(499.354,277.428,o),
(494.047,273.995,o),
(490.614,277.428,cs),
(489.078,278.963,o),
(490.592,285.203,o),
(501.296,318.214,cs),
(605.202,638.674,ls),
(612,659.067,o),
(589.665,680.431,o),
(568.301,668.778,cs),
(519.356,639.411,o),
(431.439,668.042,o),
(386.707,673.634,cs),
(295.425,682.374,o),
(205.113,645.472,o),
(148.79,575.553,cs),
(104.12,519.23,o),
(67.218,429.889,o),
(104.12,351.231,cs),
(117.715,323.069,o),
(150.732,287.139,o),
(204.142,276.457,cs),
(234.718,270.341,o),
(269.477,274.165,o),
(297.367,288.11,cs),
(309.991,293.936,o),
(314.846,309.474,o),
(309.991,322.098,cs),
(303.193,334.722,o),
(288.627,339.578,o),
(276.003,333.751,cs),
(264.35,328.896,o),
(240.072,320.156,o),
(213.853,325.982,cs),
(177.923,333.751,o),
(156.559,359,o),
(149.761,373.566,cs),
(114.802,447.369,o),
(175.98,528.941,o),
(188.605,544.478,cs),
(234.246,600.802,o),
(308.049,630.906,o),
(381.852,622.166,cs),
(402.734,620.177,o),
(490.41,602.171,o),
(519.746,603.715,cs),
(530.428,604.686,o),
(538.197,594.975,o),
(534.313,585.264,cs),
(432.348,268.688,ls),
(423.928,243.426,o),
(393.769,226.931,o),
(372.141,226.931,cs),
(358.545,225.96,o),
(348.834,213.336,o),
(349.806,198.769,cs),
(351.748,186.145,o),
(362.437,176.013,o),
(375.054,176.434,cs),
(389.851,176.929,o),
(399.864,181.196,o),
(401.273,178.376,c),
(402.244,177.405,o),
(400.302,172.55,o),
(362.43,56.019,cs),
(340.369,-10.165,o),
(320.363,-86.497,o),
(295.425,-119.749,cs),
(273.749,-148.65,o),
(229.39,-149.853,o),
(221.622,-149.853,cs),
(189.576,-149.853,o),
(166.209,-137.311,o),
(155.587,-129.46,cs),
(143.874,-120.802,o),
(127.752,-122.887,o),
(119.657,-134.315,cs),
(111.238,-146.202,o),
(113.583,-161.858,o),
(124.513,-169.275,cs),
(140.783,-180.316,o),
(175.98,-200.35,o),
(221.622,-200.35,cs)
);
},
{
closed = 1;
nodes = (
(447.756,731.785,o),
(464.408,730.523,o),
(475,740,cs),
(532,791,ls),
(536.216,794.772,o),
(542.87,793.919,o),
(546,789,cs),
(574,745,ls),
(580.408,734.93,o),
(596.117,730.055,o),
(609,738,cs),
(620.098,744.844,o),
(623.672,760.788,o),
(616,773,cs),
(567,851,ls),
(558.801,864.051,o),
(539.476,866.289,o),
(528,856,cs),
(441,778,ls),
(430.418,768.512,o),
(429.751,752.791,o),
(439,742,cs)
);
}
);
width = 675;
}
);
note = Jcircumflex;
unicode = 308;
},
